<?xml version="1.0" standalone="no"?>
<!DOCTYPE svg PUBLIC "-//W3C//DTD SVG 1.1//EN" "http://www.w3.org/Graphics/SVG/1.1/DTD/svg11.dtd" >
<svg xmlns="http://www.w3.org/2000/svg" xmlns:xlink="http://www.w3.org/1999/xlink" version="1.1">
<metadata>
Created by FontForge 20190801 at Wed Mar 23 18:21:55 2005
 By Jimmy Wärting
Copyright (c) Frantisek Storm, www.stormtype.com, 2000. All rights reserved.
</metadata>
<defs>
<font id="SplendidScript" horiz-adv-x="240" >
  <font-face 
    font-family="Splendid Script"
    font-weight="400"
    font-stretch="normal"
    units-per-em="1000"
    panose-1="2 0 5 5 2 0 0 2 0 4"
    ascent="800"
    descent="-200"
    x-height="335"
    cap-height="877"
    bbox="-1393 -673 3087 1098"
    underline-thickness="50"
    underline-position="-150"
    stemh="10"
    stemv="10"
    unicode-range="U+0020-2265"
  />
<missing-glyph horiz-adv-x="1000" 
 />
    <glyph glyph-name="fi" unicode="fi" horiz-adv-x="393" 
d="M219 143c-27 -29 -54 -53 -92 -53c-17 0 -32 6 -43 20c-144 -186 -315 -405 -366 -471h-51c69 88 254 317 402 499c-3 12 -5 26 -5 44c0 7 0 14 1 22c-25 -24 -47 -46 -61 -62l-7 7c14 17 38 41 71 71c11 54 45 102 83 102c11 0 18 -6 21 -14c26 20 54 41 85 65
c48 60 336 461 403 461c13 0 18 -7 18 -20c0 -62 -148 -262 -372 -414c-32 -44 -117 -154 -216 -282c9 -13 22 -19 37 -19c34 0 59 24 85 51c51 54 154 149 186 185h52c-84 -106 -239 -290 -239 -327c0 -6 2 -9 8 -9c23 0 96 63 171 151l7 -7c-65 -78 -147 -156 -184 -156
c-13 0 -20 10 -20 22c0 62 85 162 163 264c4 4 -1 9 -4 3c-22 -26 -77 -73 -133 -133zM77 148c68 83 127 156 162 197c2 2 0 4 -2 2c-50 -36 -111 -87 -161 -133c-2 -10 -3 -20 -3 -30c0 -14 1 -26 4 -36zM80 231c15 13 32 28 52 44c-9 1 -19 4 -26 9
c-10 -11 -20 -31 -26 -53zM323 419c230 172 343 343 343 390c0 8 -3 12 -10 12c-31 0 -202 -218 -335 -400c-1 -1 0 -4 2 -2zM601 609c11 0 15 -10 15 -20c0 -20 -20 -44 -37 -44c-10 0 -16 6 -16 18c0 24 21 46 38 46z" />
    <glyph glyph-name="fl" unicode="fl" horiz-adv-x="424" 
d="M218 142c-26 -28 -53 -52 -91 -52c-17 0 -32 6 -43 20c-144 -186 -315 -405 -366 -471h-51c69 88 254 317 402 499c-3 12 -5 26 -5 44c0 7 0 14 1 22c-25 -24 -47 -46 -61 -62l-7 7c14 17 38 41 71 71c11 54 45 102 83 102c11 0 18 -6 21 -14c26 20 54 41 85 65
c48 60 336 461 403 461c13 0 18 -7 18 -20c0 -62 -148 -262 -372 -414c-32 -44 -117 -154 -216 -282c9 -13 22 -19 37 -19c34 0 60 23 84 50c46 51 149 156 234 225c48 60 351 460 410 460c13 0 18 -7 18 -20c0 -62 -148 -262 -372 -414c-83 -104 -149 -195 -168 -220
c-46 -60 -112 -144 -112 -170c0 -7 4 -13 12 -13c41 0 121 73 189 153l7 -7c-70 -82 -151 -156 -197 -156c-22 0 -33 10 -33 32c0 48 55 113 214 310c3 3 1 6 -2 3c-63 -55 -146 -138 -193 -190zM77 148c68 83 127 156 162 197c2 2 0 4 -2 2c-50 -36 -111 -87 -161 -133
c-2 -10 -3 -20 -3 -30c0 -14 1 -26 4 -36zM80 231c15 13 32 28 52 44c-9 1 -19 4 -26 9c-10 -11 -20 -31 -26 -53zM323 419c230 172 343 343 343 390c0 8 -3 12 -10 12c-31 0 -202 -218 -335 -400c-1 -1 0 -4 2 -2zM520 427c-2 -3 0 -4 3 -2c226 168 338 338 338 384
c0 8 -3 12 -10 12c-31 0 -203 -226 -331 -394z" />
    <glyph glyph-name=".notdef" horiz-adv-x="1000" 
 />
    <glyph glyph-name="eth" unicode="&#xf0;" horiz-adv-x="416" 
d="M520 600c-33 -310 -278 -607 -438 -607c-50 0 -57 50 -57 93c0 146 135 348 275 348c28 0 41 -19 41 -48c0 -48 -36 -122 -106 -189l-6 5c70 71 104 141 104 182c0 31 -16 37 -31 37c-104 0 -262 -243 -262 -363c0 -33 14 -52 37 -52c90 0 355 276 425 594h-130v16h132
c5 25 7 51 7 78c0 111 -35 149 -63 160c-3 1 -5 3 -5 5c0 4 2 8 5 8c2 0 4 0 6 -1c59 -39 70 -123 70 -191c0 -19 -1 -38 -3 -59h59v-16h-60z" />
    <glyph glyph-name="Lslash" unicode="&#x141;" horiz-adv-x="822" 
d="M940 667c35 47 52 89 52 118c0 17 -5 25 -25 25c-42 0 -87 -34 -135 -90c40 -14 76 -33 108 -53zM383 212l-146 -41l7 18l158 44c37 41 75 86 114 135c-60 -22 -138 -35 -221 -35c-116 0 -204 43 -204 151c0 148 204 278 482 278c87 0 167 -13 236 -35
c55 57 107 93 153 93c24 0 38 -13 38 -35c0 -33 -19 -75 -54 -122c52 -33 95 -78 119 -127c0 -5 -1 -7 -3 -7c-1 0 -3 1 -4 5c-24 48 -65 89 -116 123c-68 -89 -190 -190 -340 -257c-34 -47 -69 -95 -108 -141l194 54l-7 -18l-204 -57c-69 -79 -146 -151 -233 -201
c88 -27 177 -59 280 -59c137 0 204 73 296 172l7 -7c-64 -71 -182 -198 -331 -198c-102 0 -191 43 -277 78c-59 -30 -125 -48 -199 -48c-53 0 -90 16 -90 49c0 19 14 52 110 52c54 0 106 -11 158 -26c61 39 122 94 185 162zM935 661c-22 14 -46 26 -71 37
c-12 5 -25 10 -38 15c-64 -73 -134 -185 -216 -301c45 20 90 46 134 76c87 60 150 119 191 173zM802 720c-71 23 -154 33 -229 33c-129 0 -244 -27 -332 -76c-93 -52 -140 -124 -140 -193c0 -100 80 -142 194 -142c75 0 152 12 229 37c99 124 193 254 278 341zM177 39
c-45 16 -90 28 -137 28c-86 0 -100 -27 -100 -43c0 -22 24 -36 78 -36c51 0 105 18 159 51z" />
    <glyph glyph-name="lslash" unicode="&#x142;" horiz-adv-x="210" 
d="M529 608c-63 -68 -145 -142 -242 -208c-83 -104 -149 -195 -168 -220c-46 -60 -112 -144 -112 -170c0 -7 4 -13 12 -13c41 0 121 73 189 153l7 -7c-70 -82 -151 -156 -197 -156c-22 0 -33 10 -33 32c0 48 55 113 214 310c3 3 1 6 -2 3c-63 -55 -146 -138 -193 -190l-7 7
c43 51 149 156 234 225c19 24 81 105 153 194l-125 -35l7 18l134 37c98 120 208 246 241 246c13 0 18 -7 18 -20c0 -32 -40 -102 -111 -184l112 31l-7 -18zM306 427c-2 -3 0 -4 3 -2c226 168 338 338 338 384c0 8 -3 12 -10 12c-31 0 -203 -226 -331 -394z" />
    <glyph glyph-name="Scaron" unicode="&#x160;" horiz-adv-x="742" 
d="M1151 918c47 46 133 96 176 103l1 -9c-47 -12 -128 -65 -173 -111c-13 -13 -14 -20 -27 -20c-4 0 -8 2 -8 6c0 2 0 4 4 11c9 19 29 68 29 105c0 5 -1 9 -2 11l7 7c4 -7 7 -20 7 -36c0 -19 -4 -43 -14 -67zM756 492c110 77 204 157 271 237c46 55 65 100 65 132
c0 33 -19 51 -48 51c-34 0 -84 -27 -132 -88c-53 -67 -106 -176 -156 -332zM-19 128c180 44 380 130 562 231c-65 33 -142 52 -225 52c-212 0 -342 -130 -342 -246c0 -12 2 -25 5 -37zM-31 125c-3 13 -4 25 -4 38c0 137 145 258 353 258c78 0 161 -20 234 -57
c51 28 104 60 152 92c75 188 139 306 197 377c51 61 104 89 143 89c35 0 59 -22 59 -60c0 -34 -20 -82 -68 -138c-73 -85 -173 -170 -284 -247c-25 -76 -51 -143 -76 -201c26 -27 62 -74 76 -121c0 -9 -2 -12 -4 -12s-5 2 -5 8c-12 42 -46 89 -72 115
c-97 -209 -223 -300 -443 -300c-132 0 -228 63 -255 150c-41 -10 -79 -18 -115 -24c-5 0 -7 3 -7 5s1 4 3 4c38 6 77 14 116 24zM-16 119c22 -65 92 -121 234 -121c183 0 315 116 413 304c-24 19 -50 36 -78 52c-184 -104 -387 -188 -569 -235zM636 311c20 39 41 83 60 129
c-42 -27 -88 -55 -134 -81c26 -14 51 -29 74 -48z" />
    <glyph glyph-name="scaron" unicode="&#x161;" horiz-adv-x="200" 
d="M182 327c-61 -66 -135 -140 -178 -185l-7 7c39 40 58 59 117 119c40 41 67 70 87 92c26 28 43 52 54 52c5 0 8 -3 8 -8c0 -3 -1 -6 -5 -9c-29 -22 -55 -52 -69 -87c-15 -37 -1 -82 -24 -148c-38 -107 -136 -173 -180 -173c-27 0 -37 18 -37 39c0 31 22 69 52 69
c15 0 21 -8 21 -19c0 -14 -10 -26 -26 -26c-17 0 -32 -14 -32 -31c0 -11 7 -21 22 -21c44 0 118 79 153 199c18 60 30 98 48 127c0 5 -3 4 -4 3zM311 483c47 46 133 96 176 103l1 -8c-47 -12 -128 -66 -173 -112c-13 -13 -14 -20 -27 -20c-4 0 -8 2 -8 6c0 2 0 4 4 11
c16 35 29 72 29 102c0 8 -1 15 -2 17l7 4c4 -7 7 -20 7 -36c0 -19 -4 -43 -14 -67z" />
    <glyph glyph-name="Yacute" unicode="&#xdd;" horiz-adv-x="1053" 
d="M972 269c14 -36 21 -72 21 -109c0 -70 -25 -146 -81 -222c-1 -4 -4 -5 -6 -5c-3 0 -5 3 -5 8c55 75 80 149 80 218c0 35 -6 67 -18 97c-175 -271 -412 -550 -837 -550c-225 0 -326 116 -326 261c0 169 139 377 382 480c87 37 187 61 301 65c119 174 307 326 460 326
c45 0 68 -21 68 -63c0 -94 -108 -217 -219 -324c33 -16 62 -36 87 -58c146 117 293 256 320 281c93 86 152 125 214 125c11 0 16 -5 16 -10s-6 -11 -20 -11c-158 0 -270 -249 -437 -509zM949 311c85 120 166 239 250 342c2 2 2 3 2 4c0 2 -1 2 -6 2
c-59 -57 -183 -174 -307 -274c24 -23 45 -48 61 -74zM942 301c-16 28 -37 55 -62 78c-118 -95 -235 -174 -299 -174c-14 0 -28 8 -28 33c0 39 83 131 173 229c-64 23 -136 35 -214 35h-26c-69 -101 -116 -213 -116 -311c0 -103 48 -183 145 -222c3 0 5 -2 5 -4
c0 -3 -3 -5 -9 -5c-106 42 -150 128 -150 230c0 94 45 207 115 311c-108 -4 -204 -27 -288 -62c-240 -101 -375 -306 -375 -471c0 -137 94 -247 299 -247c386 0 618 285 830 580zM871 386c-26 22 -55 41 -87 56c-103 -99 -216 -190 -216 -214c0 -9 5 -13 13 -13
c56 0 171 77 290 171zM734 475c120 128 253 264 253 312c0 23 -11 40 -43 40c-142 0 -328 -142 -451 -315h19c83 0 158 -13 222 -37zM1329 936c-53 -46 -130 -87 -186 -103l-1 9c52 17 126 65 171 111c13 13 16 20 29 20c4 0 8 -2 8 -6c0 -8 -7 -19 -21 -31z" />
    <glyph glyph-name="yacute" unicode="&#xfd;" horiz-adv-x="347" 
d="M345 150l7 -7c-109 -110 -235 -182 -252 -204c-48 -60 -316 -426 -383 -426c-13 0 -18 7 -18 20c0 71 163 257 386 413c76 104 169 223 186 253l-2 2c-114 -127 -197 -214 -234 -214c-12 0 -21 10 -21 31c0 101 208 261 208 308c0 9 -3 13 -9 13
c-38 0 -135 -117 -209 -197l-7 7c69 76 174 200 217 200c12 0 23 -8 23 -29c0 -96 -207 -255 -207 -311c0 -9 3 -11 9 -11c41 0 220 201 332 337h51c-82 -103 -229 -283 -283 -351c-2 -3 0 -4 2 -2c59 42 123 88 204 168zM52 -89c-235 -176 -341 -320 -341 -373
c0 -8 3 -12 10 -12c41 0 189 197 333 383c1 1 0 3 -2 2zM520 549c-53 -46 -130 -87 -186 -103l-1 9c52 17 126 65 171 111c13 13 16 20 29 20c4 0 8 -2 8 -6c0 -8 -7 -19 -21 -31z" />
    <glyph glyph-name="Thorn" unicode="&#xde;" horiz-adv-x="673" 
d="M510 643c102 -2 163 -43 195 -104c61 70 135 124 234 142c-84 0 -154 44 -240 44c-35 0 -73 -8 -115 -28l-3 6c56 26 100 35 137 35c85 0 138 -46 230 -46c9 0 14 -4 14 -9s-6 -11 -17 -13c-62 -8 -118 -36 -175 -82c-21 -17 -40 -36 -60 -61c15 -31 23 -65 23 -102
c0 -182 -147 -296 -252 -296c-18 -20 -36 -37 -54 -52c-79 -68 -189 -109 -306 -109c-116 0 -221 67 -221 162c0 82 71 162 196 200c24 153 217 311 403 313c-18 43 -58 70 -125 70v8c72 0 117 -30 136 -78zM502 635c-178 -1 -369 -157 -395 -302c44 12 95 20 153 20
c2 0 2 -2 2 -5c0 -2 0 -4 -2 -4c-56 0 -108 -8 -154 -21c-1 -9 -2 -17 -2 -25c0 -53 30 -86 88 -86c57 0 119 22 196 107c109 121 124 210 124 256c0 22 -3 42 -10 60zM513 635c6 -18 9 -37 9 -59c0 -232 -193 -377 -326 -377c-71 0 -102 41 -102 101c0 7 0 13 1 20
c-115 -36 -184 -110 -184 -190c0 -74 68 -132 200 -132c119 0 209 46 312 144c-23 12 -33 32 -33 51c0 32 27 65 63 65c5 0 12 -1 18 -3c2 0 3 -2 3 -4s-2 -5 -6 -5c-5 2 -8 2 -15 2c-23 0 -53 -20 -53 -55c0 -17 9 -33 29 -44c87 85 162 252 266 377
c-31 72 -100 106 -182 109zM700 513c-27 -37 -56 -88 -96 -170c-47 -97 -81 -160 -116 -204c41 2 97 45 140 96c75 87 84 170 84 202c0 29 -4 54 -12 76z" />
    <glyph glyph-name="thorn" unicode="&#xfe;" horiz-adv-x="331" 
d="M369 530l-2 2c-215 -240 -267 -286 -363 -390l-7 7c97 107 364 376 514 565c3 4 6 6 9 6c4 0 7 -3 7 -7c0 -3 -1 -7 -5 -11c-179 -214 -360 -454 -445 -571l2 -2c121 134 205 220 242 220c12 0 21 -10 21 -31c0 -101 -204 -258 -204 -305c0 -9 5 -13 13 -13
c40 0 135 100 178 150l7 -7c-43 -49 -143 -153 -185 -153c-14 0 -28 8 -28 33c0 92 203 248 203 304c0 9 -3 11 -9 11c-23 0 -119 -86 -252 -239c-103 -118 -227 -275 -369 -460h-51c223 279 424 517 724 891z" />
    <glyph glyph-name="Zcaron" unicode="&#x17d;" horiz-adv-x="683" 
d="M844 874c47 46 133 96 176 103l1 -9c-47 -12 -128 -65 -173 -111c-13 -13 -14 -20 -27 -20c-4 0 -8 2 -8 6c0 2 0 4 4 11c9 19 29 68 29 105c0 5 -1 9 -2 11l7 7c4 -7 7 -20 7 -36c0 -19 -4 -43 -14 -67zM393 827c-206 -31 -408 -233 -408 -433c0 -61 30 -90 77 -90
c139 0 364 218 364 407c0 46 -6 87 -33 116zM385 836c-25 23 -63 36 -113 36c-149 0 -283 -90 -363 -270c-2 -3 -4 -4 -6 -4s-3 2 -3 8c69 156 195 276 372 276c56 0 98 -17 125 -45c18 3 40 5 65 5c129 0 203 -48 203 -134c0 -148 -198 -252 -198 -291c0 -9 5 -13 13 -13
c118 0 331 168 383 219c100 97 86 135 106 135c7 0 11 -4 11 -15c0 -47 -72 -113 -170 -195c-200 -168 -487 -337 -606 -446c-3 -3 -5 -6 -5 -8c0 -1 1 -2 2 -2c2 0 5 2 8 6c29 26 329 251 404 251c25 0 36 -12 36 -36c0 -109 -183 -257 -183 -303c0 -7 4 -13 12 -13
c41 0 132 73 203 153l7 -7c-73 -82 -165 -156 -211 -156c-22 0 -36 10 -36 48c0 85 184 225 184 286c0 13 -5 17 -16 17c-72 0 -382 -227 -472 -317c-73 -73 -110 -148 -141 -148c-6 0 -10 4 -10 13c0 12 3 18 41 59c119 128 238 226 348 307c172 126 322 209 421 294
c0 5 0 5 -4 5c-45 -36 -206 -157 -312 -157c-14 0 -28 8 -28 33c0 109 177 181 177 297c0 64 -44 108 -167 108c-18 0 -38 -1 -57 -4c25 -31 36 -71 36 -134c0 -200 -218 -402 -373 -402c-56 0 -93 33 -93 102c0 205 204 406 410 442z" />
    <glyph glyph-name="zcaron" unicode="&#x17e;" horiz-adv-x="316" 
d="M168 153c3 2 9 4 15 4c19 0 30 -10 30 -28c0 -42 -88 -98 -88 -123c0 -5 2 -7 6 -7c39 0 136 97 182 151l7 -7c-46 -53 -148 -153 -192 -153c-9 0 -23 3 -23 26c0 47 86 98 86 125c0 6 -4 10 -10 10c-7 0 -15 -3 -24 -8c-59 -56 -112 -102 -139 -128
c-19 -17 -31 -25 -37 -25c-2 0 -3 1 -3 4c0 13 35 55 103 96c23 14 90 76 111 96c-3 -2 -9 -4 -15 -4c-19 0 -30 10 -30 28c0 42 86 96 86 120c0 6 -2 8 -6 8c-29 0 -180 -146 -223 -196l-7 7c49 55 195 198 233 198c9 0 23 -3 23 -26c0 -47 -84 -96 -84 -123
c0 -6 4 -10 10 -10c7 0 15 3 22 7c65 59 113 101 142 129c18 17 30 25 36 25c2 0 4 -1 4 -4c0 -13 -35 -54 -104 -96c-27 -16 -77 -61 -111 -96zM379 483c47 46 133 96 176 103l1 -8c-47 -12 -128 -66 -173 -112c-13 -13 -14 -20 -27 -20c-4 0 -8 2 -8 6c0 2 0 4 4 11
c16 35 29 72 29 102c0 8 -1 15 -2 17l7 4c4 -7 7 -20 7 -36c0 -19 -4 -43 -14 -67z" />
    <glyph glyph-name="onehalf" unicode="&#xbd;" horiz-adv-x="638" 
d="M616 553h25l-607 -553h-25zM396 577l17 -5l-232 -296h-43l212 242l-1 1c-44 -41 -112 -67 -138 -67c-6 0 -6 12 0 12c42 0 136 51 185 113zM550 247c-22 -55 -88 -110 -126 -110c-13 0 -24 12 -24 30c0 69 89 144 156 144c27 0 47 -21 47 -46c0 -23 -14 -53 -42 -84
c-57 -62 -169 -97 -231 -141c-3 -2 -4 -4 -4 -4v-1c2 0 3 1 6 2c24 15 44 27 68 27c36 0 39 -47 63 -47c12 0 28 7 55 35l5 -6c-37 -40 -55 -53 -82 -53c-30 0 -31 53 -63 53c-27 0 -57 -19 -74 -34c-11 -10 -17 -18 -22 -18c-1 0 -2 1 -2 2c0 8 27 44 106 87
c128 69 198 151 198 192c0 15 -7 26 -27 26c-64 0 -146 -69 -146 -135c0 -12 4 -19 14 -19c44 0 99 57 117 103z" />
    <glyph glyph-name="onequarter" unicode="&#xbc;" horiz-adv-x="638" 
d="M616 553h25l-607 -553h-25zM396 577l17 -5l-232 -296h-43l212 242l-1 1c-44 -41 -112 -67 -138 -67c-6 0 -6 12 0 12c42 0 136 51 185 113zM419 72c17 -11 34 -22 50 -22c30 0 49 11 72 30v-9c-26 -20 -49 -35 -82 -35c-17 0 -34 12 -52 23l-153 -197h-45l176 207
c-12 6 -24 10 -38 10c-38 0 -60 -13 -75 -23c-14 -9 -19 -19 -24 -19c-4 0 -6 3 -6 7c0 6 16 21 64 53c120 82 143 138 143 183c0 10 -4 19 -11 27c23 0 43 -14 43 -40c0 -53 -44 -107 -187 -188c-1 -1 -1 -4 2 -3c29 16 46 16 66 16c12 0 24 -4 34 -10l176 210l24 3z" />
    <glyph glyph-name="onesuperior" horiz-adv-x="360" 
d="M396 577l17 -5l-232 -296h-43l212 242l-1 1c-44 -41 -112 -67 -138 -67c-6 0 -6 12 0 12c42 0 136 51 185 113z" />
    <glyph glyph-name="threequarters" unicode="&#xbe;" horiz-adv-x="688" 
d="M721 553h25l-607 -553h-25zM524 72c17 -11 34 -22 50 -22c30 0 49 11 72 30v-9c-26 -20 -49 -35 -82 -35c-17 0 -34 12 -52 23l-153 -197h-45l176 207c-12 6 -24 10 -38 10c-38 0 -60 -13 -75 -23c-14 -9 -19 -19 -24 -19c-4 0 -6 3 -6 7c0 6 16 21 64 53
c120 82 143 138 143 183c0 10 -4 19 -11 27c23 0 43 -14 43 -40c0 -53 -44 -107 -187 -188c-1 -1 -1 -4 2 -3c29 16 46 16 66 16c12 0 24 -4 34 -10l176 210l24 3zM310 403c5 1 11 2 15 2c32 0 44 -26 44 -55c0 -88 -143 -200 -273 -200c-24 0 -38 9 -38 31
c0 31 18 49 36 49c7 0 11 -4 11 -10c0 -11 -12 -27 -33 -27c-3 -2 -4 -5 -4 -10c0 -15 10 -22 27 -22c89 0 249 121 249 207c0 18 -9 29 -26 29c-12 0 -29 -6 -50 -17c-18 -18 -33 -25 -41 -25c-3 0 -4 1 -4 4s4 12 13 18c23 15 39 19 55 24c109 51 182 138 182 179
c0 15 -9 26 -29 26c-40 0 -120 -41 -120 -105c0 -14 7 -24 23 -24c20 0 61 16 84 73l8 -5c-19 -48 -65 -77 -95 -77c-16 0 -31 12 -31 32c0 62 78 116 133 116c23 0 41 -18 41 -39c0 -26 -4 -52 -25 -78c-36 -42 -115 -78 -152 -96z" />
    <glyph glyph-name="threesuperior" horiz-adv-x="369" 
d="M310 403c5 1 11 2 15 2c32 0 44 -26 44 -55c0 -88 -143 -200 -273 -200c-24 0 -38 9 -38 31c0 31 18 49 36 49c7 0 11 -4 11 -10c0 -11 -12 -27 -33 -27c-3 -2 -4 -5 -4 -10c0 -15 10 -22 27 -22c89 0 249 121 249 207c0 18 -9 29 -26 29c-12 0 -29 -6 -50 -17
c-18 -18 -33 -25 -41 -25c-3 0 -4 1 -4 4s4 12 13 18c23 15 39 19 55 24c109 51 182 138 182 179c0 15 -9 26 -29 26c-40 0 -120 -41 -120 -105c0 -14 7 -24 23 -24c20 0 61 16 84 73l8 -5c-19 -48 -65 -77 -95 -77c-16 0 -31 12 -31 32c0 62 78 116 133 116
c23 0 41 -18 41 -39c0 -26 -4 -52 -25 -78c-36 -42 -115 -78 -152 -96z" />
    <glyph glyph-name="twosuperior" horiz-adv-x="332" 
d="M383 521c-22 -55 -88 -110 -126 -110c-13 0 -24 12 -24 30c0 69 89 144 156 144c27 0 47 -21 47 -46c0 -23 -14 -53 -42 -84c-57 -62 -169 -97 -231 -141c-3 -2 -4 -4 -4 -4v-1c2 0 3 1 6 2c24 15 44 27 68 27c36 0 39 -47 63 -47c12 0 28 7 55 35l5 -6
c-37 -40 -55 -53 -82 -53c-30 0 -31 53 -63 53c-27 0 -57 -19 -74 -34c-11 -10 -17 -18 -22 -18c-1 0 -2 1 -2 2c0 8 27 44 106 87c128 69 198 151 198 192c0 15 -7 26 -27 26c-64 0 -146 -69 -146 -135c0 -12 4 -19 14 -19c44 0 99 57 117 103z" />
    <glyph glyph-name="brokenbar" unicode="&#xa6;" horiz-adv-x="188" 
d="M66 206h54v-406h-54v406zM120 446h-54v354h54v-354z" />
    <glyph glyph-name="minus" unicode="&#x2212;" horiz-adv-x="453" 
d="M72 183h335l-7 -18h-335z" />
    <glyph glyph-name="multiply" unicode="&#xd7;" horiz-adv-x="330" 
d="M160 175l41 -130l-17 -24l-40 132l-87 -123l-11 16l92 129l-40 131l16 22l40 -130l86 122l11 -17z" />
    <glyph glyph-name="space" unicode=" " horiz-adv-x="208" 
 />
    <glyph glyph-name="exclam" unicode="!" horiz-adv-x="307" 
d="M122 124c-4 -7 -17 1 -13 6c127 164 327 425 425 566c14 0 29 3 44 12c-2 -13 2 -30 9 -36c-120 -131 -336 -380 -465 -548zM54 48c16 0 29 -13 29 -29s-13 -29 -29 -29s-29 13 -29 29s13 29 29 29z" />
    <glyph glyph-name="quotedbl" unicode="&#x22;" horiz-adv-x="347" 
d="M337 550c0 16 10 29 26 29c19 0 26 -11 26 -28c0 -42 -63 -87 -107 -124l-6 6c59 46 61 80 61 117zM430 550c0 16 10 29 26 29c19 0 26 -11 26 -28c0 -42 -63 -87 -107 -124l-6 6c59 46 61 80 61 117z" />
    <glyph glyph-name="numbersign" unicode="#" horiz-adv-x="599" 
d="M498 250l-192 -249h-24l192 249h-196l-192 -249h-24l192 249h-116l6 18h123l146 191h-124l7 18h132l170 222h24l-170 -222h196l170 222h24l-170 -222h99l-7 -18h-107l-145 -191h108l-7 -18h-115zM487 268l146 191h-196l-146 -191h196z" />
    <glyph glyph-name="dollar" unicode="$" horiz-adv-x="408" 
d="M300 316l122 150c-39 -2 -72 -25 -101 -70c-16 -25 -21 -52 -21 -80zM478 453l-171 -211c3 -22 6 -44 6 -67c0 -142 -132 -181 -209 -184l-99 -122h-12l99 122c-14 1 -26 3 -37 7l-105 -129h-12l108 133c-20 11 -33 29 -33 54c0 49 23 73 52 73c13 0 20 -8 20 -22
s-21 -32 -56 -32c-4 -4 -6 -13 -6 -22c0 -21 11 -36 29 -44l212 262v17c0 42 6 85 36 122c38 46 74 64 129 65l102 126h12l-102 -126c13 -1 25 -4 35 -9l110 135h12l-114 -140c18 -13 28 -32 28 -58c0 -54 -25 -76 -51 -76c-13 0 -20 5 -20 19s19 38 54 38c4 4 6 13 6 22
c0 20 -8 36 -23 47zM98 -1l168 207c0 18 -1 35 -1 52l-205 -253c11 -4 24 -6 38 -6zM305 254l165 204c-10 4 -22 7 -36 8l-134 -165c1 -15 3 -31 5 -47zM266 191l-156 -192c55 3 103 34 136 101c14 29 19 60 20 91z" />
    <glyph glyph-name="percent" unicode="%" horiz-adv-x="609" 
d="M705 655c-71 -41 -127 -55 -166 -55c-17 0 -31 2 -41 6c-47 -96 -182 -212 -260 -212c-28 0 -46 16 -46 45c0 123 175 271 278 271c35 0 47 -13 47 -42c0 -16 -5 -35 -15 -54c9 -2 21 -4 37 -4c56 0 123 26 204 79l167 149h35l-1120 -1000h-36zM504 686
c-5 9 -15 14 -34 14c-67 0 -266 -171 -266 -261c0 -25 15 -35 34 -35c73 0 202 115 250 205c-14 7 -22 18 -22 34c0 19 13 36 38 43zM532 312c35 0 47 -13 47 -42c0 -97 -183 -274 -279 -274c-28 0 -46 16 -46 45c0 123 175 271 278 271zM532 302c-67 0 -266 -171 -266 -261
c0 -25 15 -35 34 -35c91 0 269 178 269 264c0 21 -8 32 -37 32z" />
    <glyph glyph-name="ampersand" unicode="&#x26;" horiz-adv-x="572" 
d="M507 494c197 118 240 203 240 255c0 36 -25 54 -56 54c-34 0 -74 -19 -108 -67c-33 -46 -56 -137 -76 -242zM380 120c-65 -66 -143 -133 -251 -133c-62 0 -104 32 -104 110c0 132 147 223 372 337c24 12 46 24 67 36c30 119 62 226 116 286c36 40 76 58 110 58
c41 0 69 -22 69 -64c0 -50 -26 -135 -255 -270c-16 -88 -32 -191 -53 -274c104 125 200 275 289 275c34 0 49 -23 49 -49s-16 -54 -47 -54c-17 0 -25 10 -25 21c0 17 16 37 52 37c1 2 2 5 2 8c0 11 -7 27 -31 27c-69 0 -174 -147 -292 -282c-47 -192 -127 -358 -316 -381v10
c129 15 200 147 248 302zM383 135c31 104 53 217 78 321c-19 -11 -39 -21 -60 -32c-237 -121 -355 -258 -355 -342c0 -59 28 -85 85 -85c95 0 178 61 252 138z" />
    <glyph glyph-name="quotesingle" unicode="'" horiz-adv-x="227" 
d="M337 550c0 16 10 29 26 29c19 0 26 -11 26 -28c0 -42 -63 -87 -107 -124l-6 6c59 46 61 80 61 117z" />
    <glyph glyph-name="parenleft" unicode="(" horiz-adv-x="326" 
d="M993 781v-10c-517 -27 -957 -564 -957 -874c0 -126 74 -215 246 -215l-4 -10c-194 0 -278 94 -278 227c0 317 475 853 993 882z" />
    <glyph glyph-name="parenright" unicode=")" horiz-adv-x="346" 
d="M-562 -329v10c517 27 957 564 957 874c0 126 -74 215 -246 215l4 10c194 0 278 -94 278 -227c0 -317 -475 -853 -993 -882z" />
    <glyph glyph-name="asterisk" unicode="*" horiz-adv-x="407" 
d="M339 431c-27 -24 -42 -55 -42 -95c0 -18 -9 -30 -24 -30s-21 11 -21 29c0 28 53 83 80 104c-13 5 -27 7 -40 7c-21 0 -42 -6 -63 -18c-7 -4 -13 -6 -18 -6c-12 0 -23 8 -23 22c0 18 22 28 45 28c32 0 80 -12 103 -22c-8 35 -27 63 -61 83c-11 6 -17 15 -17 24
c0 13 10 22 20 22c44 0 65 -98 69 -128c27 24 42 56 42 95c0 18 9 30 24 30s21 -11 21 -29c0 -28 -54 -84 -80 -105c13 -4 26 -6 39 -6c21 0 43 6 64 18c7 4 13 6 18 6c15 0 23 -12 23 -22c0 -18 -21 -28 -44 -28c-33 0 -81 13 -104 22c8 -35 27 -63 61 -83
c11 -6 17 -15 17 -24c0 -14 -8 -22 -20 -22c-40 0 -60 79 -69 128z" />
    <glyph glyph-name="question" unicode="?" horiz-adv-x="380" 
d="M54 48c16 0 29 -13 29 -29s-13 -29 -29 -29s-29 13 -29 29s13 29 29 29zM467 492c-46 -45 -101 -78 -135 -78c-22 0 -36 13 -36 44c0 114 145 230 257 230c46 0 67 -28 67 -71c0 -38 -16 -88 -63 -139c-46 -50 -143 -106 -281 -180c-125 -67 -162 -117 -162 -145
c0 -11 6 -18 15 -18c45 0 43 57 69 57c8 0 11 -6 11 -13c0 -25 -38 -54 -77 -54c-16 0 -28 10 -28 28c0 32 38 87 164 156c224 123 331 257 331 326c0 25 -12 43 -46 43c-107 0 -247 -111 -247 -220c0 -21 8 -35 27 -35c33 0 92 41 129 78z" />
    <glyph glyph-name="at" unicode="@" horiz-adv-x="782" 
d="M586 342c-103 0 -191 -81 -246 -148c-53 -64 -96 -132 -96 -168c0 -8 3 -12 10 -12c53 0 287 273 332 328zM474 -73l4 -9c-84 -57 -199 -97 -293 -97c-98 0 -175 43 -175 155c0 333 394 580 649 580c113 0 168 -63 168 -154c0 -50 -16 -108 -47 -169
c-70 -138 -204 -232 -283 -232c-42 0 -71 24 -71 66c0 34 19 81 63 143l-2 2c-74 -84 -197 -211 -236 -211c-15 0 -23 10 -23 32c0 53 30 132 100 203c0 0 1 2 -2 2c-22 -17 -62 -55 -85 -82l-7 7c30 35 114 115 229 161c45 18 91 27 132 27c13 0 26 -1 39 -2
c-125 -144 -175 -240 -175 -289c0 -35 16 -47 44 -47c68 0 200 89 268 226c29 60 44 116 44 163c0 86 -50 143 -156 143c-262 0 -630 -318 -630 -570c0 -104 70 -143 159 -143c93 0 206 42 286 95z" />
    <glyph glyph-name="A" unicode="A" horiz-adv-x="1010" 
d="M988 326c-110 -199 -213 -383 -374 -475c-4 0 -5 1 -5 2s1 3 3 5c149 111 244 277 355 469c-32 2 -66 10 -102 20c-187 -216 -374 -393 -683 -393c-167 0 -232 83 -232 188c0 238 292 463 549 463c122 0 167 -48 167 -123c0 -18 -4 -39 -10 -58c64 -15 126 -36 188 -53
c144 146 290 313 455 448c3 2 5 3 8 3c4 0 7 -2 7 -6c0 -3 -2 -6 -7 -10c-127 -139 -220 -303 -308 -461c68 1 115 15 157 49c1 1 3 2 4 2c2 0 4 -2 4 -4s-1 -3 -3 -4c-48 -44 -117 -61 -173 -62zM978 346c77 132 162 276 282 422c2 2 2 3 2 4s0 1 -1 1s-2 0 -4 -2
c-146 -128 -262 -274 -379 -409c33 -8 66 -14 100 -16zM831 358c-55 18 -115 40 -180 56c-51 -136 -245 -290 -409 -290c-71 0 -97 32 -97 75c0 94 122 243 359 243c48 0 95 -6 140 -16c8 20 12 40 12 59c0 62 -39 110 -157 110c-254 0 -538 -222 -538 -447
c0 -94 60 -164 213 -164c240 0 449 166 657 374zM640 417c-43 9 -88 16 -135 16c-232 0 -351 -144 -351 -233c0 -38 23 -66 88 -66c117 0 336 146 398 283z" />
    <glyph glyph-name="B" unicode="B" horiz-adv-x="910" 
d="M833 186c-53 -107 -177 -205 -342 -205c-88 0 -126 33 -126 75c0 75 118 180 286 180c43 0 90 -9 139 -25c17 35 27 72 27 106c0 52 -23 98 -76 121c-37 -14 -78 -22 -120 -22c-27 0 -41 11 -41 22c0 13 19 28 61 28c38 0 71 -5 99 -13c118 57 199 191 199 291
c0 69 -39 122 -131 122c-197 0 -415 -189 -415 -378c0 -10 1 -21 2 -31c171 98 325 247 419 247c7 0 11 -3 11 -7s-5 -9 -16 -9c-72 0 -216 -163 -367 -346c12 -16 27 -32 45 -48c2 -1 3 -4 3 -5c0 -3 -1 -5 -4 -5c-2 0 -4 1 -6 3c-17 15 -31 31 -44 48
c-95 -116 -194 -241 -278 -335h-81c113 115 230 248 338 366c-13 23 -22 51 -27 79c-85 -48 -177 -86 -268 -86c-77 0 -120 47 -120 104c0 46 28 98 88 137c7 0 9 -1 9 -3s-1 -4 -3 -5c-57 -33 -86 -84 -86 -128c0 -52 38 -95 112 -95c89 0 179 35 266 83c-1 11 -2 23 -2 34
c0 194 219 390 421 390c132 0 174 -68 174 -147c0 -109 -92 -229 -219 -284c69 -28 100 -85 100 -149c0 -33 -8 -67 -24 -102c25 -11 51 -24 77 -41c1 -1 2 -3 2 -4c0 -3 -2 -5 -5 -5c-26 17 -52 31 -77 42zM723 445c-23 8 -50 12 -83 12s-49 -10 -49 -19
c0 -7 10 -13 30 -13c35 0 69 7 102 20zM786 204c-47 16 -92 23 -135 23c-164 0 -278 -102 -278 -170c0 -33 28 -58 91 -58c145 0 267 98 322 205zM422 374c142 154 269 282 359 315c3 1 2 4 -1 3c-86 -24 -225 -152 -384 -242c4 -26 12 -51 26 -76z" />
    <glyph glyph-name="C" unicode="C" horiz-adv-x="773" 
d="M485 322c6 -40 36 -57 72 -57c66 0 191 87 278 203c-23 27 -51 52 -84 73c-55 -72 -149 -156 -266 -219zM484 329c23 13 46 27 69 43c86 59 150 119 191 173c-26 18 -69 38 -106 52c-21 -21 -41 -44 -60 -69c-40 -53 -94 -134 -94 -199zM242 240c30 151 127 281 243 391
c-33 4 -72 6 -103 6c-129 0 -244 -27 -332 -76c-93 -52 -140 -122 -140 -191c0 -47 23 -75 48 -96c40 -33 100 -47 148 -47c43 0 92 5 136 13zM240 231c-32 -8 -85 -14 -136 -14c-97 0 -204 56 -204 153c0 152 204 276 482 276c32 0 72 -2 112 -7c140 125 290 202 362 202
c58 0 95 -26 95 -103c0 -93 -45 -189 -107 -272c10 -11 21 -28 30 -46c4 -5 -5 -12 -7 -2c-7 15 -17 29 -27 44c-88 -118 -213 -205 -283 -205c-40 0 -71 20 -81 60c-52 -29 -110 -54 -179 -72c-18 -48 -29 -95 -29 -137c0 -113 109 -130 153 -130c111 0 220 55 349 172
l7 -7c-112 -101 -228 -175 -356 -175c-134 0 -186 76 -186 197c0 22 2 44 5 66zM300 253c58 16 116 39 175 70c-2 8 -3 16 -3 26c0 104 63 194 133 258c-22 6 -45 12 -67 16c-78 -84 -188 -239 -238 -370zM838 473c73 96 105 189 105 265c0 67 -31 93 -87 93
c-74 0 -194 -75 -311 -201c22 -5 45 -10 67 -17c66 57 137 91 164 91c24 0 33 -13 33 -35c0 -32 -19 -74 -54 -122c32 -20 60 -44 83 -74zM749 551c35 48 52 89 52 118c0 17 -5 25 -25 25c-22 0 -77 -36 -133 -92c40 -14 75 -31 106 -51z" />
    <glyph glyph-name="D" unicode="D" horiz-adv-x="1023" 
d="M660 763c-10 1 -21 1 -32 1c-259 0 -422 -203 -422 -330c0 -49 22 -69 70 -69c135 0 343 238 384 398zM670 762c-48 -200 -246 -406 -394 -406c-53 0 -78 24 -78 78c0 146 180 340 430 340c11 0 23 0 35 -1c5 20 6 41 6 62c0 72 -37 111 -124 111
c-248 0 -505 -307 -505 -541c0 -88 44 -152 129 -175c2 -1 3 -2 3 -4c0 -3 -2 -5 -6 -5c-97 27 -135 99 -135 184c0 245 263 551 514 551c99 0 133 -50 133 -121c0 -21 -1 -41 -6 -63c85 -7 149 -33 199 -78c53 44 109 80 173 106c5 0 7 -3 7 -5c0 -1 -1 -3 -4 -3
c-61 -27 -112 -61 -163 -109c76 -75 108 -174 108 -283c0 -190 -123 -433 -451 -433c-102 0 -180 26 -252 53c-53 -28 -120 -45 -199 -45c-53 0 -90 16 -90 49c0 19 14 52 89 52c63 0 118 -15 172 -34c103 63 197 176 294 297c94 118 189 243 294 337
c-47 50 -110 77 -179 86zM861 663c-100 -100 -179 -232 -267 -355c-82 -115 -171 -221 -288 -282c68 -24 140 -48 235 -48c282 0 403 223 403 418c0 119 -31 207 -83 267zM246 35c-51 17 -100 32 -157 32c-65 0 -79 -27 -79 -43c0 -22 24 -36 78 -36c51 0 101 15 158 47z
" />
    <glyph glyph-name="E" unicode="E" horiz-adv-x="671" 
d="M493 389c-105 -39 -242 -187 -242 -319c0 -54 23 -93 98 -93c117 0 224 73 320 173l7 -7c-96 -102 -208 -176 -326 -176c-103 0 -149 53 -149 132c0 167 181 280 286 301c-5 10 -9 21 -12 33c-111 -60 -240 -100 -371 -100c-97 0 -204 56 -204 153c0 152 204 276 482 276
c87 0 164 -12 231 -33c65 58 134 91 158 91s38 -13 38 -35c0 -33 -19 -76 -54 -122c56 -37 96 -81 119 -127c0 -5 -1 -7 -3 -7c-1 0 -3 1 -4 5c-24 48 -66 89 -117 122c-56 -72 -147 -152 -256 -213c0 -14 2 -26 6 -39c34 7 51 8 66 8c43 0 63 -19 63 -37
c0 -17 -17 -33 -54 -33c-35 0 -64 19 -82 47zM505 393c13 -27 38 -42 70 -42c29 0 43 11 43 24s-18 28 -52 28c-20 0 -41 -3 -61 -10zM474 439c-1 7 -2 14 -2 22c0 111 68 204 133 262c-75 22 -153 30 -223 30c-277 0 -472 -127 -472 -267c0 -81 83 -143 196 -143
c123 0 248 31 368 96zM494 451c95 56 192 133 250 210c-22 14 -47 26 -71 37c-10 5 -21 9 -31 12c-49 -53 -144 -169 -148 -259zM749 667c35 48 52 90 52 118c0 17 -5 25 -25 25c-22 0 -73 -37 -127 -93c37 -15 70 -32 100 -50z" />
    <glyph glyph-name="F" unicode="F" horiz-adv-x="785" 
d="M907 891c-234 -20 -397 -201 -397 -329c0 -45 23 -72 67 -72c148 0 331 221 331 381c0 7 0 13 -1 20zM919 892c1 -7 1 -14 1 -22c0 -177 -185 -390 -338 -390c-52 0 -82 30 -82 82c0 148 179 317 406 338c-10 64 -55 101 -132 101c-219 0 -528 -265 -559 -572
c58 14 124 21 195 21c3 0 5 -2 5 -5s-2 -5 -5 -5c-72 0 -138 -8 -196 -21c-1 -9 -1 -17 -1 -26c0 -103 48 -183 145 -222c3 0 5 -2 5 -4c0 -3 -3 -5 -9 -5c-106 42 -150 128 -150 230v25c-194 -48 -294 -164 -294 -265c0 -95 87 -176 264 -176c318 0 523 270 686 505
c-67 0 -136 -19 -228 -105c-6 0 -7 2 -7 4s1 4 4 5c91 95 164 119 228 119c6 0 12 0 18 -1c96 136 179 256 267 289c7 0 9 -3 9 -5s-1 -4 -5 -4c-96 -44 -165 -155 -238 -284c23 -4 39 -10 62 -15c22 23 48 33 71 33c24 0 36 -11 36 -23c0 -14 -16 -28 -48 -28
c-28 0 -40 1 -58 3c-13 -16 -26 -37 -37 -62c-1 -2 -3 -3 -4 -3c-2 0 -3 1 -3 6c10 24 18 44 31 60c-24 3 -41 8 -62 9c-136 -237 -296 -526 -702 -526c-191 0 -294 90 -294 198c0 106 96 225 305 276c23 300 338 584 569 584c81 0 132 -40 144 -110c11 1 22 1 33 1
c120 0 186 -31 231 -65c54 -41 76 -85 120 -85c14 0 18 7 26 7c5 0 8 -3 8 -7c0 -8 -14 -14 -34 -14c-26 0 -54 16 -128 78c-60 51 -109 77 -223 77c-10 0 -21 -1 -32 -1zM982 481c17 -3 33 -5 50 -5c23 0 35 9 35 18c0 7 -9 14 -26 14c-21 0 -41 -10 -59 -27z" />
    <glyph glyph-name="G" unicode="G" horiz-adv-x="859" 
d="M504 337c86 50 172 107 257 172c-35 29 -81 51 -137 62c-93 -118 -120 -182 -120 -234zM20 110c-18 -6 -39 -14 -61 -20c-6 -1 -9 1 -9 4c0 2 2 4 7 5c19 5 40 12 60 20c-4 18 -7 36 -7 56c0 46 14 97 44 151c85 153 276 261 500 261c10 0 20 0 30 -1c13 19 29 40 47 61
c98 117 350 335 461 335c36 0 52 -16 52 -44c0 -78 -133 -251 -368 -430c23 -21 43 -46 58 -76c6 4 11 9 17 14c15 12 173 137 212 164c3 3 7 4 9 4c4 0 7 -3 7 -6c0 -2 -2 -4 -6 -6c-24 -20 -32 -26 -131 -126c-24 -25 -54 -61 -88 -103c6 -20 8 -51 8 -70
c0 -125 -79 -244 -216 -279c-5 0 -7 3 -7 5s1 5 5 5c137 35 208 153 208 270c0 20 -2 40 -6 60c-78 -98 -177 -221 -269 -283c-112 -76 -219 -115 -316 -115c-121 0 -211 57 -241 144zM30 123c152 52 309 119 462 207c-3 10 -5 21 -5 33c0 49 24 120 89 213
c-7 1 -14 1 -22 1c-330 0 -530 -237 -530 -406c0 -17 2 -33 6 -48zM33 114c21 -64 81 -108 186 -108c232 0 454 221 619 388c-2 6 -4 13 -7 18c-80 -67 -173 -132 -279 -132c-24 0 -47 14 -58 42c-125 -74 -281 -147 -461 -208zM505 328c7 -29 32 -38 53 -38
c68 0 143 31 268 134c-14 29 -33 56 -58 78c-76 -58 -165 -117 -263 -174zM769 515c7 4 13 9 20 15c215 168 343 341 343 407c0 18 -9 28 -29 28c-66 0 -190 -67 -400 -301c-27 -30 -51 -58 -72 -84c51 -11 99 -33 138 -65zM846 402c48 49 92 93 129 124l-3 4
c-41 -28 -85 -69 -133 -110c2 -6 5 -12 7 -18z" />
    <glyph glyph-name="H" unicode="H" horiz-adv-x="1012" 
d="M569 439c-38 10 -77 14 -119 14c-166 0 -340 -108 -340 -227c0 -50 36 -74 92 -74c119 0 344 125 367 287zM1307 655c-6 2 -12 3 -20 3c-70 0 -205 -151 -335 -333c79 0 123 16 165 49c1 1 3 2 4 2c2 0 4 -2 4 -4s-1 -3 -3 -4c-43 -37 -92 -62 -183 -62
c-72 -101 -142 -211 -196 -306h-51c60 103 133 211 208 311c-38 8 -78 25 -121 45c-142 -188 -339 -366 -582 -366c-160 0 -247 79 -247 198c0 227 240 406 464 406c108 0 165 -49 165 -132v-15c27 -7 53 -16 79 -26c0 218 196 465 334 465c24 0 36 -14 36 -38
c0 -54 -88 -274 -241 -480c43 -18 85 -33 127 -39c143 189 292 339 373 339c10 0 19 -2 26 -5c23 33 66 63 122 63c5 0 8 -4 8 -8s-3 -8 -12 -8c-55 0 -91 -25 -110 -51c15 -11 22 -28 22 -45c0 -21 -11 -37 -28 -37c-14 0 -24 10 -24 32c0 13 5 30 16 46zM1315 651
c-10 -16 -15 -31 -15 -41c0 -13 5 -23 15 -23s18 11 18 28c0 14 -5 28 -18 36zM731 378c-21 9 -42 19 -64 28c0 -32 3 -63 9 -93c19 23 37 44 55 65zM739 388c177 220 274 396 274 461c0 17 -7 27 -21 27c-95 0 -234 -129 -294 -303c-18 -51 -29 -102 -31 -155
c24 -9 48 -20 72 -30zM657 410c-25 10 -52 20 -79 27c-24 -180 -241 -294 -376 -294c-61 0 -101 24 -101 83c0 123 178 236 349 236c41 0 81 -4 120 -13v13c0 75 -54 123 -156 123c-215 0 -454 -174 -454 -396c0 -93 59 -172 220 -172c181 0 350 134 488 287
c-7 34 -11 70 -11 106z" />
    <glyph glyph-name="I" unicode="I" horiz-adv-x="842" 
d="M661 207c0 39 3 79 9 120c-115 83 -245 119 -372 119c-227 0 -353 -132 -353 -252c0 -101 88 -194 280 -194c163 0 297 71 436 207zM670 216c19 20 38 41 59 63c-17 15 -33 29 -51 42c-5 -34 -8 -69 -8 -105zM672 135c4 -49 11 -93 23 -137c0 -5 -2 -8 -5 -8
c-1 0 -2 1 -3 2c-12 44 -20 89 -23 136c-110 -92 -247 -156 -409 -156c-222 0 -324 106 -324 218c0 128 132 266 367 266c128 0 257 -34 373 -116c27 189 112 359 221 458c44 40 110 79 153 79c26 0 44 -14 44 -50c0 -27 -11 -68 -36 -126c-57 -129 -145 -298 -276 -457
c26 -28 51 -60 75 -96c0 -5 -1 -8 -4 -8c-1 0 -2 1 -3 2c-23 34 -47 66 -74 94c-30 -35 -63 -70 -99 -101zM736 287c142 160 239 306 298 423c28 57 40 95 40 119c0 26 -13 36 -32 36c-38 0 -100 -38 -143 -77c-105 -97 -192 -264 -220 -455c18 -14 37 -29 57 -46z" />
    <glyph glyph-name="J" unicode="J" horiz-adv-x="1057" 
d="M543 511c83 157 269 333 478 338c-10 74 -48 119 -138 119c-211 0 -457 -241 -545 -474c21 8 94 18 174 18c10 0 21 0 31 -1zM970 273c14 -33 23 -75 23 -113c0 -70 -25 -146 -81 -222c-1 -4 -4 -5 -6 -5c-3 0 -5 3 -5 8c55 75 80 149 80 218c0 32 -7 68 -18 100
c-213 -379 -498 -553 -836 -553c-225 0 -327 117 -327 262c0 190 185 455 529 524c84 232 328 486 554 486c100 0 142 -51 152 -129c141 -1 189 -35 301 -69c26 17 53 26 80 26c33 0 50 -13 50 -25c0 -13 -17 -25 -50 -25c-29 0 -55 5 -80 11c-102 -65 -259 -309 -366 -494z
M943 301c-25 44 -63 83 -111 114c-80 -80 -172 -137 -257 -137c-55 0 -79 31 -79 80c0 41 15 91 42 144h-26c-61 0 -120 -6 -178 -18c-19 -53 -30 -105 -30 -155c0 -103 48 -183 145 -222c3 0 5 -2 5 -4c0 -3 -3 -5 -9 -5c-106 42 -150 128 -150 230c0 47 11 99 30 155
c-323 -71 -511 -319 -511 -513c0 -138 95 -249 303 -249c348 0 591 234 826 580zM950 310c29 40 62 86 97 135c84 118 179 260 275 327c-106 28 -152 65 -286 67c1 -10 1 -21 1 -31c0 -114 -85 -271 -197 -386c47 -31 84 -68 110 -112zM823 432c112 118 200 280 200 376
c0 10 0 22 -1 31c-197 -3 -380 -176 -466 -329c103 -6 194 -34 267 -78zM817 425c-69 42 -159 70 -266 76c-29 -52 -45 -102 -45 -141c0 -44 22 -72 69 -72c77 0 165 57 242 137zM1351 776c20 -5 41 -8 65 -8c23 0 35 6 35 13s-12 13 -35 13c-21 0 -42 -6 -65 -18z" />
    <glyph glyph-name="K" unicode="K" horiz-adv-x="1048" 
d="M931 422c5 -14 7 -30 7 -49c0 -120 -99 -322 -99 -363c0 -7 4 -13 12 -13c41 0 116 73 195 153l7 -7c-81 -82 -157 -156 -203 -156c-22 0 -36 10 -36 48c0 100 101 276 101 365c0 7 -1 13 -2 18c-12 -2 -26 -3 -40 -3c-35 0 -52 13 -52 26c0 12 15 23 41 23
c32 0 53 -12 64 -33c98 24 193 113 288 199c104 93 207 182 316 182c57 0 76 -20 76 -34c0 -7 -5 -12 -12 -12c-27 0 -31 25 -81 25c-91 0 -182 -87 -281 -177c-91 -83 -189 -168 -301 -192zM910 428c-7 18 -23 28 -51 28c-16 0 -26 -7 -26 -15s12 -17 40 -17
c11 0 24 1 37 4zM663 342c141 161 271 353 404 461l-4 5c-170 -113 -310 -253 -456 -386c24 -22 43 -49 56 -80zM680 281c1 -11 2 -22 2 -32c0 -91 -51 -174 -124 -208c-4 0 -6 3 -6 6c0 1 1 2 2 3c74 34 117 114 117 197c0 7 0 15 -1 22c-127 -151 -282 -276 -494 -276
c-174 0 -270 78 -270 197c0 144 179 311 446 311c123 0 196 -28 248 -72c24 22 49 45 76 70c133 124 179 164 235 210s123 91 146 107c39 28 57 42 75 42c10 0 14 -4 14 -14c0 -12 -26 -11 -73 -49c-122 -100 -237 -326 -393 -514zM208 139c123 62 221 136 384 283
c-48 40 -118 69 -240 69c-241 0 -434 -149 -434 -301c0 -95 68 -168 234 -168c191 0 354 141 503 312c-12 29 -31 57 -56 81c-117 -106 -239 -208 -386 -284z" />
    <glyph glyph-name="L" unicode="L" horiz-adv-x="822" 
d="M940 667c35 47 52 89 52 118c0 17 -5 25 -25 25c-42 0 -87 -34 -135 -90c40 -14 76 -33 108 -53zM942 657c-68 -89 -190 -190 -340 -257c-99 -139 -215 -281 -358 -363c88 -27 177 -59 280 -59c137 0 204 73 296 172l7 -7c-64 -71 -182 -198 -331 -198
c-102 0 -191 43 -277 78c-59 -30 -125 -48 -199 -48c-53 0 -90 16 -90 49c0 19 14 52 110 52c54 0 106 -11 158 -26c104 66 205 178 318 318c-60 -22 -138 -35 -221 -35c-116 0 -204 43 -204 151c0 148 204 278 482 278c87 0 167 -13 236 -35c55 57 107 93 153 93
c24 0 38 -13 38 -35c0 -33 -19 -75 -54 -122c52 -33 95 -78 119 -127c0 -5 -1 -7 -3 -7c-1 0 -3 1 -4 5c-24 48 -65 89 -116 123zM935 661c-22 14 -46 26 -71 37c-12 5 -25 10 -38 15c-64 -73 -134 -185 -216 -301c45 20 90 46 134 76c87 60 150 119 191 173zM802 720
c-71 23 -154 33 -229 33c-129 0 -244 -27 -332 -76c-93 -52 -140 -124 -140 -193c0 -100 80 -142 194 -142c75 0 152 12 229 37c99 124 193 254 278 341zM177 39c-45 16 -90 28 -137 28c-86 0 -100 -27 -100 -43c0 -22 24 -36 78 -36c51 0 105 18 159 51z" />
    <glyph glyph-name="M" unicode="M" horiz-adv-x="1122" 
d="M660 376c-83 56 -195 92 -340 92c-339 0 -509 -186 -509 -328c0 -87 64 -158 195 -158c239 0 453 171 654 394zM815 192c-92 -99 -183 -191 -260 -252c-2 -2 -5 -3 -8 -3c-4 0 -7 2 -7 6c0 3 2 6 7 9c82 76 153 195 218 325c-19 25 -42 49 -68 71
c-173 -219 -375 -395 -670 -395c-152 0 -227 83 -227 182c0 151 173 341 520 341c143 0 259 -36 346 -94c160 178 314 391 469 569c3 2 5 3 8 3c4 0 7 -2 7 -6c0 -3 -1 -6 -6 -10c-110 -136 -177 -274 -240 -402c-34 -69 -77 -167 -124 -262c13 -19 26 -40 36 -61
c137 150 243 280 441 461c93 86 152 125 214 125c11 0 16 -5 16 -10s-6 -11 -20 -11c-68 0 -137 -40 -230 -171c-154 -216 -327 -538 -327 -597c0 -7 4 -13 12 -13c41 0 116 73 198 153l7 -7c-84 -82 -160 -156 -206 -156c-22 0 -33 10 -33 34c0 176 245 487 369 632
c2 2 2 3 2 4c0 2 -1 2 -6 2c-118 -107 -276 -292 -431 -459c18 -39 28 -80 32 -122c0 -4 -2 -6 -4 -6c-3 0 -5 2 -5 5c-4 37 -14 77 -30 115zM809 206c-9 20 -21 39 -34 58c-48 -98 -100 -190 -151 -242c0 -4 1 -5 2 -5s3 0 5 2c67 66 125 127 178 187zM770 287
c42 83 81 169 121 251c85 175 162 295 214 359c0 5 -2 5 -4 3c-136 -164 -259 -367 -398 -545c26 -20 48 -44 67 -68z" />
    <glyph glyph-name="N" unicode="N" horiz-adv-x="987" 
d="M743 385c-98 52 -223 87 -365 87c-357 0 -468 -171 -468 -289c0 -100 82 -201 259 -201c248 0 424 189 574 403zM940 219c-51 -83 -113 -178 -193 -279c-2 -2 -4 -3 -6 -3c-5 0 -9 3 -9 8c0 3 1 5 3 7c76 116 106 225 134 345c-25 22 -54 44 -85 64
c-121 -211 -281 -408 -593 -408c-118 0 -292 64 -292 230c0 125 110 299 479 299c140 0 267 -35 370 -89c106 151 198 315 297 426c2 2 4 3 7 3c4 0 8 -3 8 -8c0 -3 -1 -5 -3 -8c-78 -136 -109 -253 -146 -402c-9 -36 -18 -73 -27 -108c21 -19 39 -39 55 -60
c131 224 207 410 374 410c57 0 76 -20 76 -34c0 -7 -5 -12 -12 -12c-27 0 -31 25 -81 25c-137 0 -208 -161 -351 -397c19 -25 34 -52 46 -80c1 -1 2 -3 2 -4c0 -4 -3 -6 -6 -6c-2 0 -3 2 -3 5c-11 25 -25 51 -44 76zM933 228c-15 20 -32 39 -52 57
c-25 -99 -51 -190 -95 -267c2 0 3 -5 4 -4c55 71 101 143 143 214zM872 307c31 130 60 274 151 461c-2 0 -3 5 -4 3c-81 -100 -146 -253 -230 -402c30 -19 58 -39 83 -62z" />
    <glyph glyph-name="O" unicode="O" horiz-adv-x="932" 
d="M196 58c-22 -5 -42 -7 -60 -7c-66 0 -123 21 -146 79c0 8 2 12 4 12c1 0 2 -1 3 -4c19 -53 69 -78 138 -78c18 0 37 2 57 7c-9 23 -14 51 -14 83c0 172 94 328 219 451c170 167 399 273 531 273c67 0 104 -31 104 -84c0 -35 -16 -80 -52 -133c13 -25 20 -58 20 -98
c0 -338 -382 -599 -625 -599c-84 0 -149 30 -179 98zM224 75c66 20 141 58 215 103c-29 19 -47 51 -47 100c0 222 265 453 446 453c63 0 111 -20 138 -65c32 49 47 91 47 124c0 47 -30 74 -83 74c-208 0 -723 -367 -723 -735c0 -20 2 -38 7 -54zM227 66
c22 -64 82 -93 158 -93c228 0 605 254 605 586c0 36 -5 65 -16 89c-105 -152 -319 -346 -516 -469c16 -6 32 -9 51 -9c59 0 135 32 193 92c2 2 4 3 5 3c3 0 4 -3 4 -7c-61 -62 -140 -97 -204 -97c-22 0 -41 4 -58 12c-81 -50 -157 -88 -222 -107zM449 184
c206 130 422 327 521 473c-24 46 -70 65 -132 65c-176 0 -427 -298 -427 -465c0 -35 15 -59 38 -73z" />
    <glyph glyph-name="P" unicode="P" horiz-adv-x="673" 
d="M526 291c12 16 22 31 32 46c-21 13 -30 31 -30 50c0 32 27 65 63 65c5 0 12 -1 18 -3c2 0 3 -2 3 -4c0 -3 -2 -5 -6 -5c-5 2 -8 3 -15 3c-25 0 -54 -21 -54 -56c0 -16 8 -32 25 -43c60 85 146 245 288 305c-8 120 -93 177 -201 180c6 -19 10 -41 10 -66
c0 -209 -185 -370 -325 -370c-71 0 -102 41 -102 101c0 161 204 340 404 344c-18 44 -59 70 -120 70c-44 0 -98 -14 -162 -46c-141 -70 -265 -233 -265 -403c0 -59 7 -98 17 -126c44 13 96 20 154 20c107 0 197 -24 266 -62zM564 257c-50 -94 -87 -142 -132 -180
c-79 -68 -194 -109 -311 -109c-116 0 -221 67 -221 162c0 82 71 162 198 200c-12 32 -17 72 -17 129c0 178 127 341 270 412c62 31 118 46 164 46c64 0 109 -28 131 -79c141 -2 208 -83 222 -180c16 7 42 14 69 20c6 0 10 -3 10 -7c0 -2 -1 -3 -8 -3c-23 -5 -46 -11 -69 -20
c0 -9 1 -19 1 -29c0 -182 -145 -296 -250 -296c-8 0 -16 0 -22 1c-10 -21 -20 -40 -30 -59c48 -33 84 -72 108 -113c2 -1 3 -3 3 -5s-2 -4 -5 -4c-2 0 -4 2 -6 5c-24 40 -59 78 -105 109zM521 284c-69 37 -156 60 -261 60c-55 0 -105 -7 -150 -20c5 -11 11 -20 17 -29
c1 -1 2 -2 2 -4s-3 -4 -5 -4s-3 1 -4 2c-7 10 -14 21 -19 33c-118 -35 -190 -111 -190 -192c0 -74 68 -132 200 -132c187 0 297 114 410 286zM603 332h12c52 0 107 45 151 97c75 87 84 170 84 202v8c-27 -12 -53 -29 -80 -51c-53 -43 -93 -101 -167 -256zM639 829
c-190 -1 -397 -182 -397 -337c0 -53 30 -86 88 -86c57 0 120 22 197 107c88 97 121 188 121 259c0 20 -3 40 -9 57z" />
    <glyph glyph-name="Q" unicode="Q" horiz-adv-x="994" 
d="M529 256c-18 17 -29 42 -29 77c0 222 265 440 446 440c44 0 81 -10 108 -31c6 15 9 31 9 46c0 44 -28 72 -86 72c-217 0 -601 -362 -701 -624c29 -15 58 -34 87 -55c45 13 95 34 166 75zM582 7c153 -128 322 -247 488 -247c86 0 151 15 219 48c4 0 7 -2 7 -5
c0 -2 -1 -3 -3 -4c-41 -33 -128 -73 -231 -73c-193 0 -360 133 -514 269c-52 -16 -105 -26 -153 -26c-100 0 -179 44 -182 175c-136 3 -193 44 -193 88c0 29 31 54 85 54c41 0 82 -10 124 -28c64 272 486 611 748 611c66 0 95 -33 95 -77c0 -17 -4 -36 -11 -56
c30 -27 47 -71 47 -135c0 -242 -266 -499 -526 -594zM539 3c-65 57 -127 116 -189 163c-33 -11 -66 -18 -96 -21c-1 -9 -2 -18 -2 -28c0 -61 31 -137 153 -137c36 0 80 7 134 23zM573 14c259 88 525 353 525 584c0 59 -14 101 -42 128c-59 -140 -283 -343 -506 -470
c13 -10 31 -15 54 -15c72 0 174 51 254 120c4 5 7 6 10 6c2 0 4 -1 4 -4c0 -1 -1 -4 -4 -6c-82 -72 -188 -126 -268 -126c-24 0 -45 6 -62 18c-56 -31 -113 -56 -165 -75c65 -47 130 -103 200 -160zM542 263c200 105 448 323 508 469c-25 22 -60 32 -104 32
c-168 0 -427 -263 -427 -431c0 -32 7 -55 23 -70zM271 222c-8 -23 -14 -46 -16 -67c26 3 55 9 86 18c-23 18 -46 35 -70 49zM226 245c-38 20 -80 32 -123 32c-46 0 -73 -21 -73 -46c0 -35 52 -76 183 -78c0 19 5 61 13 92z" />
    <glyph glyph-name="R" unicode="R" horiz-adv-x="933" 
d="M479 240c-90 89 -197 125 -294 125c-151 0 -276 -89 -276 -196c0 -87 68 -145 200 -145c150 0 266 92 370 216zM817 424c6 -14 9 -31 9 -51c0 -120 -102 -322 -102 -363c0 -7 4 -13 12 -13c41 0 116 73 195 153l7 -7c-81 -82 -157 -156 -203 -156c-22 0 -36 10 -36 48
c0 100 104 276 104 365c0 7 -1 14 -2 20c-15 -3 -28 -5 -40 -5c-35 0 -52 13 -52 26c0 12 15 23 41 23c30 0 49 -10 61 -28c41 18 86 56 120 105c38 56 55 111 55 160c0 28 -5 54 -16 77c-185 -98 -283 -368 -444 -570c72 -87 132 -214 162 -394c0 -5 -1 -7 -3 -7s-3 0 -5 2
c-32 173 -90 300 -163 389c-95 -115 -216 -204 -398 -204c-116 0 -221 67 -221 176c0 113 132 205 290 205c98 0 206 -36 299 -126c155 185 284 439 478 539c-34 67 -109 110 -205 110c-6 0 -13 0 -20 -1c7 -18 11 -41 11 -69c0 -224 -191 -391 -332 -391
c-63 0 -94 41 -94 103c0 109 74 215 174 282c76 51 151 75 227 84c-21 48 -65 69 -118 69c-156 0 -396 -188 -396 -443c0 -3 -2 -5 -4 -5s-4 2 -4 5c0 264 243 452 405 452c58 0 105 -24 128 -77h21c101 0 181 -45 222 -113c25 12 52 21 83 27c4 0 5 -3 5 -6
c0 -2 -1 -4 -3 -4c-27 -5 -55 -14 -80 -26c16 -30 25 -64 25 -100c0 -52 -17 -109 -56 -166c-36 -53 -90 -83 -137 -95zM797 430c-7 16 -23 26 -50 26c-16 0 -26 -7 -26 -15s12 -17 40 -17c11 0 23 2 36 6zM730 897c-60 -6 -143 -27 -225 -83c-98 -67 -170 -172 -170 -274
c0 -60 28 -92 84 -92c61 0 128 39 205 124c109 121 117 216 117 256c0 27 -4 50 -11 69z" />
    <glyph glyph-name="S" unicode="S" horiz-adv-x="742" 
d="M756 492c110 77 204 157 271 237c46 55 65 100 65 132c0 33 -19 51 -48 51c-34 0 -84 -27 -132 -88c-53 -67 -106 -176 -156 -332zM-19 128c180 44 380 130 562 231c-65 33 -142 52 -225 52c-212 0 -342 -130 -342 -246c0 -12 2 -25 5 -37zM-31 125c-3 13 -4 25 -4 38
c0 137 145 258 353 258c78 0 161 -20 234 -57c51 28 104 60 152 92c75 188 139 306 197 377c51 61 104 89 143 89c35 0 59 -22 59 -60c0 -34 -20 -82 -68 -138c-73 -85 -173 -170 -284 -247c-25 -76 -51 -143 -76 -201c26 -27 62 -74 76 -121c0 -9 -2 -12 -4 -12s-5 2 -5 8
c-12 42 -46 89 -72 115c-97 -209 -223 -300 -443 -300c-132 0 -228 63 -255 150c-41 -10 -79 -18 -115 -24c-5 0 -7 3 -7 5s1 4 3 4c38 6 77 14 116 24zM-16 119c22 -65 92 -121 234 -121c183 0 315 116 413 304c-24 19 -50 36 -78 52c-184 -104 -387 -188 -569 -235z
M636 311c20 39 41 83 60 129c-42 -27 -88 -55 -134 -81c26 -14 51 -29 74 -48z" />
    <glyph glyph-name="T" unicode="T" horiz-adv-x="843" 
d="M1146 783c-140 -64 -220 -267 -340 -454c45 -36 79 -76 101 -112c6 -7 -9 -15 -9 -5c-22 37 -55 76 -97 109c-126 -194 -295 -368 -607 -368c-191 0 -294 90 -294 198c0 27 6 55 20 83c50 103 176 178 350 205c22 250 296 590 562 590c84 0 135 -44 149 -109
c8 1 19 2 30 2c91 0 147 -21 193 -49c77 -47 106 -111 162 -111c18 0 18 10 28 10c7 0 9 -12 2 -15c-10 -5 -20 -7 -30 -7c-59 0 -100 62 -177 109c-46 29 -104 52 -179 52c-8 0 -16 0 -26 -1c3 -16 5 -34 5 -54c0 -144 -142 -365 -300 -458c6 -3 12 -5 18 -8
c23 -11 43 -22 62 -35c146 193 256 393 373 437c8 4 11 -6 4 -9zM763 347c-32 21 -57 34 -85 45c-43 -23 -87 -38 -130 -38c-55 0 -79 30 -79 84c-19 1 -39 2 -59 2c-47 0 -91 -3 -132 -9c0 -9 -1 -17 -1 -26c0 -103 48 -183 145 -222c9 0 2 -14 -4 -9
c-106 42 -150 128 -150 230c0 8 0 16 1 25c-237 -36 -359 -165 -359 -277c0 -95 87 -176 264 -176c263 0 444 181 589 371zM970 919c-13 59 -63 100 -138 100c-163 0 -379 -154 -493 -385c-34 -68 -54 -134 -60 -193c40 6 84 9 131 9c20 0 40 -1 60 -2
c4 143 244 449 500 471zM972 909c-114 -9 -245 -79 -362 -213c-80 -91 -127 -183 -130 -248c62 -5 119 -16 178 -37c134 87 318 280 318 445c0 19 -1 37 -4 53zM647 403c-47 17 -104 29 -168 34c0 -45 20 -73 67 -73c23 0 61 14 101 39z" />
    <glyph glyph-name="U" unicode="U" horiz-adv-x="794" 
d="M592 822c5 -17 7 -36 7 -58c0 -204 -200 -389 -341 -389c-65 0 -96 41 -96 105c0 198 246 347 411 349c-13 44 -44 73 -109 73c-157 0 -406 -206 -406 -445c0 -52 14 -95 38 -128c1 -1 2 -2 2 -4s-3 -4 -5 -4s-3 1 -4 2c-28 38 -39 84 -39 134c0 247 252 453 415 453
c68 0 108 -30 125 -81c79 -4 142 -41 142 -153c0 -80 -49 -160 -117 -234c-157 -169 -404 -347 -404 -421c0 -16 10 -25 25 -25c138 0 651 587 716 647c93 86 152 125 214 125c11 0 16 -5 16 -10s-6 -11 -20 -11c-68 0 -137 -40 -230 -171c-221 -310 -341 -507 -341 -566
c0 -7 4 -13 12 -13c41 0 121 73 189 153l7 -7c-70 -82 -151 -156 -197 -156c-22 0 -33 10 -33 32c0 153 259 454 383 603c2 2 2 3 2 4c0 2 -1 2 -6 2c-37 -28 -560 -642 -712 -642c-24 0 -39 14 -39 42c0 110 233 299 387 459c76 79 127 156 127 221c0 72 -50 109 -119 114z
M576 822c-156 -1 -404 -140 -404 -342c0 -58 33 -95 87 -95c131 0 322 243 322 382c0 19 -1 36 -5 55z" />
    <glyph glyph-name="V" unicode="V" horiz-adv-x="600" 
d="M845 780c20 -8 41 -12 62 -12c23 0 35 6 35 13s-12 13 -35 13c-22 0 -42 -5 -62 -14zM830 771c-171 -99 -325 -489 -567 -787c-2 -2 -2 -3 -2 -4s0 -1 1 -1s2 0 4 2c234 224 400 436 558 588c146 141 286 230 469 230c86 0 116 -24 116 -38c0 -6 -5 -10 -13 -10
c-32 0 -21 33 -108 33c-167 0 -311 -94 -453 -228c-190 -179 -376 -430 -611 -623c-3 -2 -5 -3 -8 -3c-4 0 -7 2 -7 6c0 3 2 6 7 10c97 105 195 340 313 535c82 137 177 252 278 300c-67 29 -136 72 -244 72c-9 0 -17 0 -25 -1c2 -17 3 -30 3 -44
c0 -255 -317 -539 -466 -539c-45 0 -75 27 -75 89c0 161 249 481 527 503c-15 86 -69 118 -141 118c-107 0 -254 -77 -373 -202c-2 -2 -3 -2 -5 -2s-4 2 -4 5c0 1 1 3 2 4c121 127 271 205 381 205c79 0 138 -38 149 -127c10 1 19 1 27 1c125 0 194 -46 259 -74
c29 11 57 17 85 17c33 0 50 -13 50 -25c0 -13 -17 -25 -50 -25c-28 0 -53 6 -77 15zM528 851c-282 -25 -518 -347 -518 -491c0 -56 27 -81 69 -81c141 0 452 280 452 529c0 16 -1 31 -3 43z" />
    <glyph glyph-name="W" unicode="W" horiz-adv-x="744" 
d="M725 780c20 -7 40 -12 62 -12c23 0 35 6 35 13s-12 13 -35 13c-21 0 -42 -5 -62 -14zM709 772c-170 -98 -322 -489 -566 -788c-2 -2 -2 -3 -2 -4s0 -1 1 -1s2 0 4 2c307 290 537 614 721 717c4 2 9 4 13 4c7 0 13 -3 13 -9c0 -4 -4 -11 -15 -18
c-165 -106 -187 -346 -468 -691c-2 -2 -2 -3 -2 -4s0 -1 1 -1s2 0 4 2c196 184 390 422 589 621c216 215 437 383 672 383c86 0 116 -24 116 -38c0 -6 -5 -10 -13 -10c-32 0 -21 33 -108 33c-222 0 -443 -170 -656 -381c-225 -222 -441 -492 -642 -656c-3 -2 -5 -3 -8 -3
c-4 0 -7 2 -7 6c0 3 2 6 7 10c117 127 277 502 424 672c0 7 0 7 -6 7c-239 -209 -410 -473 -677 -692c-3 -2 -5 -3 -8 -3c-4 0 -7 2 -7 6c0 3 2 6 7 10c94 102 191 342 312 541c81 134 175 246 279 294c-67 29 -135 72 -244 72c-10 0 -19 0 -25 -1c2 -13 3 -29 3 -44
c0 -255 -317 -539 -466 -539c-45 0 -75 27 -75 89c0 159 244 477 527 503c-15 85 -70 118 -141 118c-107 0 -254 -77 -373 -202c-2 -2 -3 -2 -5 -2s-2 3 -2 9c121 127 271 205 381 205c77 0 135 -35 149 -127c9 1 18 1 27 1c127 0 194 -48 260 -75c39 16 68 18 84 18
c33 0 50 -13 50 -25c0 -13 -17 -25 -50 -25c-28 0 -54 6 -78 16zM408 852c-284 -29 -518 -344 -518 -492c0 -56 27 -81 69 -81c141 0 452 280 452 529c0 15 -1 31 -3 44z" />
    <glyph glyph-name="X" unicode="X" horiz-adv-x="885" 
d="M1249 799c-9 -15 -14 -29 -14 -41c0 -13 6 -22 15 -22c11 0 18 13 18 27c0 13 -5 27 -19 36zM734 411c8 -1 14 -1 20 -1c20 0 32 4 46 9c6 0 7 -1 7 -2c0 -2 -1 -4 -4 -5c-23 -9 -44 -13 -77 -13c-98 -147 -165 -299 -165 -376c0 -32 11 -50 37 -50c71 0 172 55 285 177
l7 -7c-117 -126 -222 -180 -293 -180c-54 0 -77 28 -77 75c0 84 66 224 169 366c-14 3 -27 7 -40 10c-127 -210 -356 -414 -589 -414c-92 0 -130 33 -130 97c0 10 1 21 3 32c1 4 3 6 6 6c2 0 4 -2 4 -6c-2 -11 -3 -21 -3 -31c0 -56 31 -88 118 -88c236 0 443 200 556 410
c-37 0 -61 -3 -90 -14c-5 0 -7 1 -7 3c0 1 1 2 3 3c40 16 73 20 101 20c18 34 33 68 46 102c27 74 39 134 39 182c0 111 -63 158 -148 158c-73 0 -161 -34 -240 -89c-146 -102 -238 -274 -238 -388c0 -66 30 -112 99 -115c-1 7 -1 14 -1 21c0 233 206 451 349 451
c62 0 81 -34 81 -82c0 -126 -177 -397 -419 -400c4 -32 15 -61 33 -85c0 -6 -2 -8 -4 -8c-3 0 -5 2 -6 5c-17 26 -28 56 -32 88c-76 3 -110 55 -110 128c0 117 90 290 239 395c85 59 185 93 268 93c101 0 179 -50 179 -168c0 -53 -15 -120 -52 -202c-13 -29 -29 -60 -47 -90
c15 -3 28 -7 41 -10c146 201 360 401 511 401c15 0 28 -2 37 -7c23 35 67 66 124 66c5 0 8 -4 8 -8s-3 -8 -8 -8c-54 0 -93 -26 -115 -54c17 -12 24 -30 24 -47c0 -21 -12 -38 -29 -38c-16 0 -25 13 -25 34c0 13 5 30 15 46c-8 3 -18 5 -31 5c-147 0 -337 -192 -475 -397z
M188 282c203 1 405 280 405 398c0 38 -16 64 -68 64c-134 0 -338 -218 -338 -439c0 -8 0 -16 1 -23z" />
    <glyph glyph-name="Y" unicode="Y" horiz-adv-x="1044" 
d="M972 269c14 -36 21 -72 21 -109c0 -70 -25 -146 -81 -222c-1 -4 -4 -5 -6 -5c-3 0 -5 3 -5 8c55 75 80 149 80 218c0 35 -6 67 -18 97c-175 -271 -412 -550 -837 -550c-225 0 -326 116 -326 261c0 169 139 377 382 480c87 37 187 61 301 65c119 174 307 326 460 326
c45 0 68 -21 68 -63c0 -94 -108 -217 -219 -324c33 -16 62 -36 87 -58c146 117 293 256 320 281c93 86 152 125 214 125c11 0 16 -5 16 -10s-6 -11 -20 -11c-158 0 -270 -249 -437 -509zM949 311c85 120 166 239 250 342c2 2 2 3 2 4c0 2 -1 2 -6 2
c-59 -57 -183 -174 -307 -274c24 -23 45 -48 61 -74zM942 301c-16 28 -37 55 -62 78c-118 -95 -235 -174 -299 -174c-14 0 -28 8 -28 33c0 39 83 131 173 229c-64 23 -136 35 -214 35h-26c-69 -101 -116 -213 -116 -311c0 -103 48 -183 145 -222c3 0 5 -2 5 -4
c0 -3 -3 -5 -9 -5c-106 42 -150 128 -150 230c0 94 45 207 115 311c-108 -4 -204 -27 -288 -62c-240 -101 -375 -306 -375 -471c0 -137 94 -247 299 -247c386 0 618 285 830 580zM871 386c-26 22 -55 41 -87 56c-103 -99 -216 -190 -216 -214c0 -9 5 -13 13 -13
c56 0 171 77 290 171zM734 475c120 128 253 264 253 312c0 23 -11 40 -43 40c-142 0 -328 -142 -451 -315h19c83 0 158 -13 222 -37z" />
    <glyph glyph-name="Z" unicode="Z" horiz-adv-x="683" 
d="M393 827c-206 -31 -408 -233 -408 -433c0 -61 30 -90 77 -90c139 0 364 218 364 407c0 46 -6 87 -33 116zM385 836c-25 23 -63 36 -113 36c-149 0 -283 -90 -363 -270c-2 -3 -4 -4 -6 -4s-3 2 -3 8c69 156 195 276 372 276c56 0 98 -17 125 -45c18 3 40 5 65 5
c129 0 203 -48 203 -134c0 -148 -198 -252 -198 -291c0 -9 5 -13 13 -13c118 0 331 168 383 219c100 97 86 135 106 135c7 0 11 -4 11 -15c0 -47 -72 -113 -170 -195c-200 -168 -487 -337 -606 -446c-3 -3 -5 -6 -5 -8c0 -1 1 -2 2 -2c2 0 5 2 8 6c29 26 329 251 404 251
c25 0 36 -12 36 -36c0 -109 -183 -257 -183 -303c0 -7 4 -13 12 -13c41 0 132 73 203 153l7 -7c-73 -82 -165 -156 -211 -156c-22 0 -36 10 -36 48c0 85 184 225 184 286c0 13 -5 17 -16 17c-72 0 -382 -227 -472 -317c-73 -73 -110 -148 -141 -148c-6 0 -10 4 -10 13
c0 12 3 18 41 59c119 128 238 226 348 307c172 126 322 209 421 294c0 5 0 5 -4 5c-45 -36 -206 -157 -312 -157c-14 0 -28 8 -28 33c0 109 177 181 177 297c0 64 -44 108 -167 108c-18 0 -38 -1 -57 -4c25 -31 36 -71 36 -134c0 -200 -218 -402 -373 -402
c-56 0 -93 33 -93 102c0 205 204 406 410 442z" />
    <glyph glyph-name="bracketleft" unicode="[" horiz-adv-x="361" 
d="M612 752h333v-13h-295l-808 -1053h274v-13h-332z" />
    <glyph glyph-name="bracketright" unicode="]" horiz-adv-x="361" 
d="M-132 -326h-332v13h295l808 1053h-274v13h332z" />
    <glyph glyph-name="underscore" unicode="_" horiz-adv-x="631" 
d="M0 -72h635v-39h-635v39z" />
    <glyph glyph-name="grave" unicode="`" horiz-adv-x="340" 
d="M332 573c0 16 7 26 14 26c6 0 12 -7 12 -25c0 -49 15 -116 39 -153l-7 -4c-28 39 -58 102 -58 156z" />
    <glyph glyph-name="a" unicode="a" horiz-adv-x="348" 
d="M250 198c-74 -84 -197 -211 -236 -211c-15 0 -23 10 -23 32c0 53 30 132 100 203c2 1 -1 3 -2 2c-22 -17 -62 -55 -85 -82l-7 7c30 35 114 115 229 161c45 18 91 27 132 27c13 0 26 -1 39 -2c-86 -108 -239 -291 -239 -323c0 -8 3 -12 11 -12c33 0 144 110 177 150l7 -7
c-24 -28 -145 -156 -192 -156c-13 0 -20 10 -20 22c0 33 24 75 111 187zM349 328c-103 0 -191 -81 -246 -148c-53 -64 -96 -132 -96 -168c0 -8 3 -12 10 -12c53 0 287 273 332 328z" />
    <glyph glyph-name="b" unicode="b" horiz-adv-x="309" 
d="M287 400c-82 -104 -149 -195 -168 -220c-50 -65 -112 -144 -112 -170c0 -7 4 -13 12 -13c41 0 127 79 189 152c31 37 59 70 71 93c7 44 29 97 44 97c6 0 8 -3 8 -11c0 -37 -38 -91 -88 -154c-3 -6 -5 -16 -5 -27c0 -16 9 -26 23 -26c12 0 29 9 46 29l7 -7
c-18 -21 -39 -32 -56 -32c-15 0 -30 10 -30 35c0 4 0 8 1 12c-73 -88 -162 -171 -211 -171c-22 0 -33 10 -33 32c0 48 58 116 216 313c1 1 0 4 -2 3c-66 -58 -147 -140 -195 -193l-7 7c42 50 143 152 235 225c48 60 345 460 409 460c13 0 18 -7 18 -20
c0 -62 -148 -262 -372 -414zM310 426c230 168 337 336 337 383c0 8 -3 12 -10 12c-31 0 -197 -215 -330 -393c-2 -3 0 -4 3 -2z" />
    <glyph glyph-name="c" unicode="c" 
d="M240 241c-13 0 -19 8 -19 18c0 18 20 44 55 44c6 6 9 13 9 20c0 9 -5 17 -16 17c-8 0 -19 -5 -35 -16c-40 -29 -87 -92 -129 -143c-46 -57 -106 -143 -106 -167c0 -11 4 -17 15 -17c57 0 172 93 224 154l7 -7c-63 -73 -180 -157 -229 -157c-25 0 -34 17 -34 31
c0 53 38 123 106 202c0 0 0 1 -2 1c-27 -20 -67 -59 -82 -78l-7 7c26 32 154 145 232 185c18 9 33 14 43 14c16 0 24 -11 24 -30c0 -44 -28 -78 -56 -78z" />
    <glyph glyph-name="d" unicode="d" horiz-adv-x="348" 
d="M397 335c-86 -108 -239 -291 -239 -323c0 -8 3 -12 11 -12c31 0 124 89 177 150l7 -7c-24 -28 -145 -156 -192 -156c-13 0 -20 10 -20 22c0 33 24 75 111 187l-2 2c-74 -84 -197 -211 -236 -211c-15 0 -23 10 -23 32c0 53 23 124 100 203c1 1 -1 3 -2 2
c-22 -17 -62 -55 -85 -82l-7 7c30 35 114 115 229 161c45 18 91 27 132 27l250 317h42zM349 328c-103 0 -191 -81 -246 -148c-53 -64 -96 -132 -96 -168c0 -8 3 -12 10 -12c53 0 287 273 332 328z" />
    <glyph glyph-name="e" unicode="e" 
d="M265 339c-40 0 -104 -90 -160 -158c-14 -18 -29 -37 -44 -57c147 82 214 174 214 204c0 7 -4 11 -10 11zM87 222c-28 -22 -58 -50 -83 -79l-7 7c36 41 221 199 269 199c12 0 20 -8 20 -21c0 -39 -62 -128 -236 -219c-28 -40 -51 -80 -51 -95c0 -11 4 -17 15 -17
c54 0 170 91 224 154l7 -7c-63 -73 -180 -157 -229 -157c-25 0 -34 17 -34 31c0 53 37 121 106 202c2 1 0 3 -1 2z" />
    <glyph glyph-name="f" unicode="f" horiz-adv-x="214" 
d="M90 118c9 -13 22 -19 37 -19c34 0 59 24 85 51l7 -7c-27 -29 -54 -53 -92 -53c-17 0 -32 6 -43 20c-144 -186 -315 -405 -366 -471h-51c69 88 254 317 402 499c-3 12 -5 26 -5 44c0 7 0 14 1 22c-25 -24 -47 -46 -61 -62l-7 7c14 17 38 41 71 71c11 54 45 102 83 102
c11 0 18 -6 21 -14c26 20 54 41 85 65c48 60 336 461 403 461c13 0 18 -7 18 -20c0 -62 -148 -262 -372 -414c-32 -44 -117 -154 -216 -282zM77 148c68 83 127 156 162 197c2 2 0 4 -2 2c-50 -36 -111 -87 -161 -133c-2 -10 -3 -20 -3 -30c0 -14 1 -26 4 -36zM80 231
c15 13 32 28 52 44c-9 1 -19 4 -26 9c-10 -11 -20 -31 -26 -53zM323 419c230 172 343 343 343 390c0 8 -3 12 -10 12c-31 0 -202 -218 -335 -400c-1 -1 0 -4 2 -2z" />
    <glyph glyph-name="g" unicode="g" horiz-adv-x="308" 
d="M226 310c45 18 91 27 132 27c13 0 26 -1 39 -2c-34 -42 -141 -179 -272 -335c-1 -1 2 -3 3 -2c54 40 134 108 177 152l7 -7c-78 -80 -214 -175 -236 -202c-59 -74 -92 -117 -150 -189c-109 -135 -195 -240 -231 -240c-16 0 -24 9 -24 26c0 33 37 95 105 169
c76 84 182 162 284 239c76 103 161 211 192 250l-2 2c-74 -84 -197 -211 -236 -211c-15 0 -23 10 -23 32c0 53 33 135 100 203c2 1 -1 3 -2 2c-22 -17 -62 -55 -85 -82l-7 7c30 35 114 115 229 161zM33 -87c1 2 -1 2 -2 1c-85 -61 -172 -135 -248 -216
c-64 -69 -99 -128 -99 -155c0 -10 4 -16 11 -16c33 0 114 105 213 231c42 53 85 107 125 155zM349 328c-103 0 -191 -81 -246 -148c-53 -64 -96 -132 -96 -168c0 -8 3 -12 10 -12c53 0 287 273 332 328z" />
    <glyph glyph-name="h" unicode="h" horiz-adv-x="330" 
d="M84 136l2 -2c114 127 204 215 241 215c12 0 21 -10 21 -31c0 -101 -216 -258 -216 -305c0 -9 5 -13 13 -13c40 0 140 100 183 150l7 -7c-43 -49 -148 -153 -190 -153c-14 0 -28 8 -28 33c0 92 215 248 215 304c0 9 -3 11 -9 11c-41 0 -227 -202 -339 -338h-51
c86 108 209 259 264 329c1 1 -1 4 -2 3c-62 -52 -145 -138 -191 -190l-7 7c43 51 150 156 232 225c48 60 336 460 403 460c13 0 18 -7 18 -20c0 -62 -148 -262 -372 -414c-76 -104 -152 -208 -194 -264zM296 419c234 175 342 343 342 390c0 8 -3 12 -10 12
c-31 0 -198 -215 -335 -400c-2 -3 0 -4 3 -2z" />
    <glyph glyph-name="i" unicode="i" horiz-adv-x="179" 
d="M142 273c4 4 -1 9 -4 3c-22 -26 -78 -74 -134 -134l-7 7c51 54 155 150 187 186h52c-84 -106 -239 -290 -239 -327c0 -6 2 -9 8 -9c23 0 96 63 171 151l7 -7c-65 -78 -147 -156 -184 -156c-13 0 -20 10 -20 22c0 62 85 162 163 264zM387 609c11 0 15 -10 15 -20
c0 -20 -20 -44 -37 -44c-10 0 -16 6 -16 18c0 24 21 46 38 46z" />
    <glyph glyph-name="j" unicode="j" horiz-adv-x="164" 
d="M142 273c4 4 -1 9 -4 3c-37 -39 -78 -74 -134 -134l-7 7c50 53 155 149 187 186h52c-86 -108 -229 -283 -282 -350c-1 -3 1 -3 2 -2c71 53 142 104 205 167l7 -7c-102 -102 -232 -176 -254 -204c-48 -60 -316 -426 -383 -426c-13 0 -18 7 -18 20c0 71 163 257 386 413
c76 104 182 244 243 327zM-135 -90c-232 -175 -340 -319 -340 -372c0 -8 3 -12 10 -12c41 0 190 198 332 382c2 3 0 5 -2 2zM387 609c11 0 15 -10 15 -20c0 -20 -20 -44 -37 -44c-10 0 -16 6 -16 18c0 24 21 46 38 46z" />
    <glyph glyph-name="k" unicode="k" horiz-adv-x="300" 
d="M183 224c-58 -52 -126 -127 -199 -224h-51c86 108 207 256 264 329c2 3 0 5 -3 3c-60 -52 -144 -138 -190 -190l-7 7c43 51 150 156 232 225c48 60 336 460 403 460c13 0 18 -7 18 -20c0 -62 -148 -262 -372 -414c-76 -104 -143 -196 -200 -266l2 -2
c83 96 207 217 281 217c25 0 38 -13 38 -24c0 -8 -8 -16 -23 -16c-16 0 -28 7 -37 7c-37 0 -84 -28 -151 -88c10 -5 23 -18 23 -41c0 -69 -100 -139 -100 -174c0 -9 5 -13 13 -13c40 0 131 100 174 150l7 -7c-43 -49 -139 -153 -181 -153c-14 0 -27 8 -27 33
c0 73 99 143 99 178c0 13 -6 19 -13 23zM294 418c236 177 344 344 344 391c0 8 -3 12 -10 12c-31 0 -197 -215 -336 -401c-2 -2 1 -3 2 -2z" />
    <glyph glyph-name="l" unicode="l" horiz-adv-x="210" 
d="M215 143c-70 -82 -151 -156 -197 -156c-22 0 -33 10 -33 32c0 48 55 113 214 310c3 3 1 6 -2 3c-63 -55 -146 -138 -193 -190l-7 7c43 51 149 156 234 225c48 60 351 460 410 460c13 0 18 -7 18 -20c0 -62 -148 -262 -372 -414c-83 -104 -149 -195 -168 -220
c-46 -60 -112 -144 -112 -170c0 -7 4 -13 12 -13c41 0 121 73 189 153zM306 427c-2 -3 0 -4 3 -2c226 168 338 338 338 384c0 8 -3 12 -10 12c-31 0 -203 -226 -331 -394z" />
    <glyph glyph-name="m" unicode="m" horiz-adv-x="545" 
d="M195 0h-47c86 108 237 294 237 326c0 8 -3 12 -11 12c-44 0 -263 -253 -335 -338h-47c86 108 237 294 237 326c0 8 -2 12 -10 12c-25 0 -143 -113 -215 -196l-7 7c63 71 184 200 231 200c13 0 20 -10 20 -22c0 -33 -28 -71 -114 -201l2 -2c108 126 209 225 248 225
c13 0 20 -10 20 -22c0 -33 -28 -71 -115 -204l2 -2c124 140 214 228 248 228c12 0 19 -10 19 -31c0 -101 -205 -258 -205 -305c0 -9 5 -13 13 -13c34 0 134 100 177 150l7 -7c-43 -49 -144 -153 -186 -153c-14 0 -28 8 -28 33c0 92 207 256 207 303c0 11 -5 13 -12 13
c-36 0 -264 -254 -336 -339z" />
    <glyph glyph-name="n" unicode="n" horiz-adv-x="389" 
d="M43 0h-51c86 108 238 291 238 328c0 6 -2 9 -8 9c-28 0 -131 -94 -218 -195l-7 7c63 71 184 200 231 200c13 0 20 -10 20 -22c0 -33 -28 -71 -105 -191l2 -2c114 127 201 215 238 215c12 0 21 -10 21 -31c0 -101 -208 -258 -208 -305c0 -9 5 -13 13 -13
c40 0 135 100 178 150l7 -7c-43 -49 -143 -153 -185 -153c-14 0 -28 8 -28 33c0 92 207 248 207 304c0 9 -3 11 -9 11c-41 0 -224 -202 -336 -338z" />
    <glyph glyph-name="o" unicode="o" horiz-adv-x="276" 
d="M221 149c-71 -86 -154 -162 -197 -162c-25 0 -37 17 -37 44c0 40 32 113 99 182c0 0 1 2 -2 2c-23 -17 -51 -40 -80 -73l-7 7c33 37 223 200 286 200c19 0 29 -12 29 -30c0 -33 -27 -93 -79 -156c-3 -4 -5 -9 -5 -19c0 -9 5 -16 14 -16c8 0 19 6 32 22l7 -7
c-16 -18 -29 -25 -39 -25c-12 0 -22 9 -22 23c0 4 0 6 1 8zM27 -1c21 0 73 20 195 167c3 39 25 75 40 75c3 0 6 -2 8 -5c19 32 30 63 30 80c0 14 -6 21 -17 21c-47 0 -124 -89 -180 -157c-53 -64 -92 -134 -92 -165c0 -11 5 -16 16 -16z" />
    <glyph glyph-name="p" unicode="p" horiz-adv-x="331" 
d="M222 359l-2 2c-68 -69 -120 -115 -216 -219l-7 7c97 107 222 205 372 394c3 4 6 6 9 6c4 0 7 -3 7 -7c0 -3 -1 -7 -5 -11c-37 -43 -218 -283 -303 -400l2 -2c121 134 205 220 242 220c12 0 21 -10 21 -31c0 -101 -204 -258 -204 -305c0 -9 5 -13 13 -13
c40 0 135 100 178 150l7 -7c-43 -49 -143 -153 -185 -153c-14 0 -28 8 -28 33c0 92 203 248 203 304c0 9 -3 11 -9 11c-23 0 -119 -86 -252 -239c-103 -118 -227 -275 -369 -460h-51c223 279 424 517 577 720z" />
    <glyph glyph-name="q" unicode="q" horiz-adv-x="337" 
d="M-211 -478c29 0 98 116 184 242c51 75 135 193 183 239c63 61 134 103 179 147l7 -7c-54 -49 -119 -90 -166 -133c-58 -52 -145 -177 -190 -247c-90 -140 -167 -251 -197 -251c-10 0 -15 5 -15 15c0 79 295 441 476 671l-2 2c-72 -86 -195 -213 -234 -213
c-15 0 -23 10 -23 32c0 53 30 132 99 198c1 2 -1 2 -2 2c-28 -17 -54 -41 -84 -77l-7 7c35 46 130 121 229 161c45 18 91 27 132 27c13 0 26 -1 39 -2c-431 -533 -614 -767 -614 -807c0 -4 2 -6 6 -6zM348 326c-103 0 -190 -79 -245 -146c-53 -64 -96 -132 -96 -168
c0 -8 3 -12 10 -12c53 0 286 271 331 326z" />
    <glyph glyph-name="r" unicode="r" horiz-adv-x="254" 
d="M-3 149c39 40 58 59 117 119c40 41 67 70 87 92c-1 5 -1 10 -1 15c0 30 18 51 37 51c7 0 12 -4 12 -13c0 -14 -14 -29 -38 -54c4 -26 26 -51 46 -66c-38 -38 -207 -253 -207 -282c0 -7 3 -11 11 -11c34 0 123 75 170 126c8 9 15 17 21 24l7 -7c-6 -7 -14 -16 -22 -25
c-48 -51 -140 -128 -176 -128c-14 0 -29 8 -29 33c0 79 142 222 198 279c-10 11 -23 29 -27 47c-65 -71 -151 -157 -199 -207zM210 370c19 20 28 34 28 42c0 3 -2 4 -4 4c-12 0 -24 -22 -24 -46z" />
    <glyph glyph-name="s" unicode="s" horiz-adv-x="200" 
d="M182 327c-61 -66 -135 -140 -178 -185l-7 7c39 40 58 59 117 119c40 41 67 70 87 92c26 28 43 52 54 52c5 0 8 -3 8 -8c0 -3 -1 -6 -5 -9c-29 -22 -55 -52 -69 -87c-15 -37 -1 -82 -24 -148c-38 -107 -136 -173 -180 -173c-27 0 -37 18 -37 39c0 31 22 69 52 69
c15 0 21 -8 21 -19c0 -14 -10 -26 -26 -26c-17 0 -32 -14 -32 -31c0 -11 7 -21 22 -21c44 0 118 79 153 199c18 60 30 98 48 127c0 5 -3 4 -4 3z" />
    <glyph glyph-name="t" unicode="t" horiz-adv-x="192" 
d="M304 416l-63 -81c-85 -109 -239 -294 -239 -326c0 -8 3 -12 11 -12c33 0 144 113 177 153l7 -7c-24 -28 -145 -159 -192 -159c-13 0 -20 10 -20 22c0 53 66 140 206 318l-2 2c-66 -66 -154 -150 -185 -184l-7 7c36 41 223 207 272 275c-11 2 -23 3 -33 3
c-27 0 -55 -10 -83 -44c-1 -2 -3 -2 -5 -2c-4 0 -7 2 -7 5c0 1 1 2 2 3c41 49 76 62 109 62c12 0 24 -2 35 -4l126 159h42l-133 -168c9 -2 18 -3 27 -3c19 0 36 6 53 28c2 2 4 3 5 3c4 0 5 -4 5 -11c-27 -34 -52 -43 -78 -43c-10 0 -21 1 -30 4z" />
    <glyph glyph-name="u" unicode="u" horiz-adv-x="327" 
d="M139 276c-37 -39 -74 -72 -135 -134l-7 7c65 63 162 158 187 186h52c-77 -92 -245 -286 -245 -328c0 -7 3 -9 8 -9c41 0 221 203 333 337h51c-86 -106 -238 -290 -238 -327c0 -6 2 -9 8 -9c23 0 96 63 171 151l7 -7c-65 -78 -147 -156 -184 -156c-13 0 -20 10 -20 22
c0 33 28 72 105 192l-2 2c-114 -127 -197 -216 -234 -216c-12 0 -21 10 -21 28c0 61 107 183 168 258c4 4 -1 9 -4 3z" />
    <glyph glyph-name="v" unicode="v" horiz-adv-x="350" 
d="M320 247c0 45 24 92 42 92c6 0 9 -5 9 -15c0 -33 -38 -87 -88 -150c-3 -6 -5 -16 -5 -27c0 -16 9 -26 23 -26c12 0 29 9 46 29l7 -7c-18 -21 -39 -32 -56 -32c-15 0 -30 10 -30 35c0 4 0 8 1 11c-71 -84 -166 -170 -219 -170c-14 0 -28 8 -28 33c0 92 205 251 205 307
c0 9 -3 11 -7 11c-26 0 -127 -94 -216 -196l-7 7c101 118 199 200 225 200c12 0 21 -10 21 -31c0 -101 -206 -262 -206 -309c0 -9 5 -13 13 -13c64 0 224 167 270 251z" />
    <glyph glyph-name="w" unicode="w" horiz-adv-x="505" 
d="M475 247c8 43 29 92 43 92c6 0 8 -3 8 -11c0 -37 -38 -91 -88 -154c-3 -6 -5 -16 -5 -27c0 -16 9 -26 23 -26c12 0 29 9 46 29l7 -7c-18 -21 -39 -32 -56 -32c-15 0 -30 10 -30 35c0 4 1 9 2 13c-70 -83 -168 -172 -221 -172c-18 0 -25 10 -25 22c0 33 28 72 105 192
l-2 2c-114 -127 -198 -216 -233 -216c-18 0 -25 12 -25 30c0 95 203 254 203 310c0 9 -3 11 -7 11c-26 0 -127 -94 -216 -196l-7 7c101 118 199 200 225 200c12 0 21 -10 21 -31c0 -101 -200 -258 -200 -307c0 -7 2 -12 8 -12c41 0 221 202 333 336h51
c-86 -106 -238 -290 -238 -327c0 -6 2 -11 8 -11c64 0 224 166 270 250z" />
    <glyph glyph-name="x" unicode="x" horiz-adv-x="350" 
d="M-17 -13c-19 0 -26 14 -26 32c0 32 22 76 56 76c13 0 19 -8 19 -18c0 -30 -43 -35 -53 -45c-5 -4 -9 -10 -9 -17c0 -9 4 -17 13 -17c49 0 94 71 160 152c46 57 107 147 107 171c0 12 -4 18 -14 18c-41 0 -145 -96 -232 -197l-7 7c63 71 189 200 242 200
c17 0 25 -11 25 -30c0 -25 -5 -54 -35 -104c-1 -1 1 -2 2 -1c55 74 108 135 150 135c19 0 26 -14 26 -32c0 -32 -22 -76 -56 -76c-13 0 -19 8 -19 18c0 30 43 35 53 45c5 4 9 10 9 17c0 9 -4 18 -14 18c-49 0 -109 -91 -165 -159c-46 -57 -106 -142 -106 -166
c0 -11 4 -17 15 -17c57 0 172 92 224 153l7 -7c-63 -73 -180 -156 -229 -156c-25 0 -31 14 -31 28c0 24 7 58 23 87c1 1 -1 2 -2 1c-47 -65 -91 -116 -133 -116z" />
    <glyph glyph-name="y" unicode="y" horiz-adv-x="347" 
d="M345 150l7 -7c-109 -110 -235 -182 -252 -204c-48 -60 -316 -426 -383 -426c-13 0 -18 7 -18 20c0 71 163 257 386 413c76 104 169 223 186 253l-2 2c-114 -127 -197 -214 -234 -214c-12 0 -21 10 -21 31c0 101 208 261 208 308c0 9 -3 13 -9 13
c-38 0 -135 -117 -209 -197l-7 7c69 76 174 200 217 200c12 0 23 -8 23 -29c0 -96 -207 -255 -207 -311c0 -9 3 -11 9 -11c41 0 220 201 332 337h51c-82 -103 -229 -283 -283 -351c-2 -3 0 -4 2 -2c59 42 123 88 204 168zM52 -89c-235 -176 -341 -320 -341 -373
c0 -8 3 -12 10 -12c41 0 189 197 333 383c1 1 0 3 -2 2z" />
    <glyph glyph-name="z" unicode="z" horiz-adv-x="316" 
d="M168 153c3 2 9 4 15 4c19 0 30 -10 30 -28c0 -42 -88 -98 -88 -123c0 -5 2 -7 6 -7c39 0 136 97 182 151l7 -7c-46 -53 -148 -153 -192 -153c-9 0 -23 3 -23 26c0 47 86 98 86 125c0 6 -4 10 -10 10c-7 0 -15 -3 -24 -8c-59 -56 -112 -102 -139 -128
c-19 -17 -31 -25 -37 -25c-2 0 -3 1 -3 4c0 13 35 55 103 96c23 14 90 76 111 96c-3 -2 -9 -4 -15 -4c-19 0 -30 10 -30 28c0 42 86 96 86 120c0 6 -2 8 -6 8c-29 0 -180 -146 -223 -196l-7 7c49 55 195 198 233 198c9 0 23 -3 23 -26c0 -47 -84 -96 -84 -123
c0 -6 4 -10 10 -10c7 0 15 3 22 7c65 59 113 101 142 129c18 17 30 25 36 25c2 0 4 -1 4 -4c0 -13 -35 -54 -104 -96c-27 -16 -77 -61 -111 -96z" />
    <glyph glyph-name="braceleft" unicode="{" horiz-adv-x="361" 
d="M883 752v-10c-198 0 -261 -141 -359 -278c-79 -111 -180 -220 -391 -253c52 -11 78 -39 78 -82c0 -115 -232 -257 -232 -372c0 -54 43 -75 115 -75v-10c-116 0 -143 41 -143 94c0 125 220 263 220 370c0 41 -18 60 -65 73c-2 -1 -7 -2 -11 -2s-7 1 -7 4c0 4 5 6 10 6
c3 0 7 -1 10 -2c193 38 294 159 387 277c103 132 194 260 388 260z" />
    <glyph glyph-name="bar" unicode="|" horiz-adv-x="263" 
d="M551 700h29l-539 -700h-29z" />
    <glyph glyph-name="braceright" unicode="}" horiz-adv-x="361" 
d="M-411 -328v10c198 0 261 141 359 278c79 111 180 220 391 253c-52 11 -78 39 -78 82c0 115 232 257 232 372c0 54 -43 75 -115 75v10c116 0 143 -41 143 -94c0 -125 -220 -263 -220 -370c0 -41 18 -60 65 -73c2 1 7 2 11 2s7 -1 7 -4c0 -4 -5 -6 -10 -6c-3 0 -7 1 -10 2
c-193 -38 -294 -159 -387 -277c-103 -132 -194 -260 -388 -260z" />
    <glyph glyph-name="asciitilde" unicode="~" horiz-adv-x="298" 
d="M271 249c-19 -48 -41 -59 -59 -59c-56 0 -80 77 -128 77c-25 0 -37 -17 -48 -45l-9 5c20 50 42 58 62 58c55 0 78 -78 124 -78c27 0 38 20 49 47z" />
    <glyph glyph-name="Adieresis" unicode="&#xc4;" horiz-adv-x="1010" 
d="M988 326c-110 -199 -213 -383 -374 -475c-4 0 -5 1 -5 2s1 3 3 5c149 111 244 277 355 469c-32 2 -66 10 -102 20c-187 -216 -374 -394 -696 -394c-154 0 -219 82 -219 187c0 238 292 465 549 465c122 0 167 -48 167 -123c0 -18 -4 -39 -10 -58c64 -15 126 -36 188 -53
c144 146 290 313 455 448c3 2 5 3 8 3c4 0 7 -2 7 -6c0 -3 -2 -6 -7 -10c-127 -139 -220 -303 -308 -461c68 1 115 15 157 49c1 1 3 2 4 2c2 0 4 -2 4 -4s-1 -3 -3 -4c-48 -44 -117 -61 -173 -62zM978 346c77 132 162 276 282 422c2 2 2 3 2 4s0 1 -1 1s-2 0 -4 -2
c-146 -128 -262 -274 -379 -409c33 -8 66 -14 100 -16zM831 358c-55 18 -115 40 -180 56c-51 -136 -245 -290 -409 -290c-71 0 -97 32 -97 75c0 94 122 243 359 243c48 0 95 -6 140 -16c8 20 12 40 12 59c0 62 -39 110 -157 110c-254 0 -538 -224 -538 -449
c0 -94 60 -164 192 -164c261 0 470 168 678 376zM640 417c-43 9 -88 16 -135 16c-232 0 -351 -144 -351 -233c0 -38 23 -66 88 -66c117 0 336 146 398 283zM1232 876c14 0 20 -9 20 -17c0 -17 -27 -38 -49 -38c-13 0 -21 5 -21 16c0 20 28 39 50 39zM1399 876
c14 0 20 -9 20 -17c0 -17 -27 -38 -49 -38c-13 0 -21 5 -21 16c0 20 28 39 50 39z" />
    <glyph glyph-name="Aring" unicode="&#xc5;" horiz-adv-x="1010" 
d="M1309 808l-2 -2c-127 -139 -220 -303 -308 -461c68 1 115 15 157 49c1 1 3 2 4 2c2 0 4 -2 4 -4s-1 -3 -3 -4c-48 -44 -117 -61 -173 -62c-110 -199 -213 -383 -374 -475c-4 0 -5 1 -5 2s1 3 3 5c149 111 244 277 355 469c-32 2 -66 10 -102 20
c-187 -216 -374 -394 -696 -394c-154 0 -219 82 -219 187c0 238 292 465 549 465c122 0 167 -48 167 -123c0 -18 -4 -39 -10 -58c64 -15 126 -36 188 -53c143 145 288 311 453 446c-3 4 -4 9 -4 14c0 14 7 32 21 52c29 42 79 76 110 76c16 0 25 -9 25 -24
c0 -14 -7 -32 -21 -52c-29 -42 -79 -76 -110 -76c-3 0 -7 0 -9 1zM978 346c77 132 162 276 282 422c2 2 2 3 2 4s0 1 -1 1s-2 0 -4 -2c-146 -128 -262 -274 -379 -409c33 -8 66 -14 100 -16zM831 358c-55 18 -115 40 -180 56c-51 -136 -245 -290 -409 -290
c-71 0 -97 32 -97 75c0 94 122 243 359 243c48 0 95 -6 140 -16c8 20 12 40 12 59c0 62 -39 110 -157 110c-254 0 -538 -224 -538 -449c0 -94 60 -164 192 -164c261 0 470 168 678 376zM640 417c-43 9 -88 16 -135 16c-232 0 -351 -144 -351 -233c0 -38 23 -66 88 -66
c117 0 336 146 398 283zM1421 944c-24 0 -66 -29 -95 -70c-11 -15 -17 -29 -17 -39c0 -8 4 -13 14 -13c18 0 64 27 93 70c7 10 18 29 18 41c0 6 -3 11 -13 11z" />
    <glyph glyph-name="Ccedilla" unicode="&#xc7;" horiz-adv-x="873" 
d="M585 322c6 -40 36 -57 72 -57c66 0 191 87 278 203c-23 27 -51 52 -84 73c-55 -72 -149 -156 -266 -219zM584 329c23 13 46 27 69 43c86 59 150 119 191 173c-26 18 -69 38 -106 52c-21 -21 -41 -44 -60 -69c-40 -53 -94 -134 -94 -199zM342 240c30 151 127 281 243 391
c-33 4 -72 6 -103 6c-129 0 -244 -27 -332 -76c-93 -52 -140 -122 -140 -191c0 -47 23 -75 48 -96c40 -33 100 -47 148 -47c43 0 92 5 136 13zM525 -32l-62 -35c7 1 14 1 20 1c44 0 71 -21 71 -55c0 -72 -80 -102 -145 -102c-32 0 -55 7 -69 15l7 11c9 -6 24 -16 62 -16
c46 0 111 27 111 89c0 33 -24 48 -51 48c-38 0 -34 -23 -57 -23c-3 0 -5 3 -5 7c0 3 1 6 5 8l94 52c-123 6 -171 80 -171 197c0 22 2 44 5 66c-32 -8 -85 -14 -136 -14c-97 0 -204 56 -204 153c0 152 204 276 482 276c32 0 72 -2 112 -7c140 125 290 202 362 202
c58 0 95 -26 95 -103c0 -93 -45 -189 -107 -272c10 -11 21 -28 30 -46c4 -5 -5 -12 -7 -2c-7 15 -17 29 -27 44c-88 -118 -213 -205 -283 -205c-40 0 -71 20 -81 60c-52 -29 -110 -54 -179 -72c-18 -48 -29 -95 -29 -137c0 -113 109 -130 153 -130c111 0 220 55 349 172
l7 -7c-110 -99 -225 -173 -352 -175zM400 253c58 16 116 39 175 70c-2 8 -3 16 -3 26c0 104 63 194 133 258c-22 6 -45 12 -67 16c-78 -84 -188 -239 -238 -370zM938 473c73 96 105 189 105 265c0 67 -31 93 -87 93c-74 0 -194 -75 -311 -201c22 -5 45 -10 67 -17
c66 57 137 91 164 91c24 0 33 -13 33 -35c0 -32 -19 -74 -54 -122c32 -20 60 -44 83 -74zM849 551c35 48 52 89 52 118c0 17 -5 25 -25 25c-22 0 -77 -36 -133 -92c40 -14 75 -31 106 -51z" />
    <glyph glyph-name="Eacute" unicode="&#xc9;" horiz-adv-x="671" 
d="M977 954c-53 -46 -130 -87 -186 -103l-1 9c52 17 126 65 171 111c13 13 16 20 29 20c4 0 8 -2 8 -6c0 -8 -7 -19 -21 -31zM493 389c-105 -39 -242 -187 -242 -319c0 -54 23 -93 98 -93c117 0 224 73 320 173l7 -7c-96 -102 -208 -176 -326 -176c-103 0 -149 53 -149 132
c0 167 181 280 286 301c-5 10 -9 21 -12 33c-111 -60 -240 -100 -371 -100c-97 0 -204 56 -204 153c0 152 204 276 482 276c87 0 164 -12 231 -33c65 58 134 91 158 91s38 -13 38 -35c0 -33 -19 -76 -54 -122c56 -37 96 -81 119 -127c0 -5 -1 -7 -3 -7c-1 0 -3 1 -4 5
c-24 48 -66 89 -117 122c-56 -72 -147 -152 -256 -213c0 -14 2 -26 6 -39c34 7 51 8 66 8c43 0 63 -19 63 -37c0 -17 -17 -33 -54 -33c-35 0 -64 19 -82 47zM505 393c13 -27 38 -42 70 -42c29 0 43 11 43 24s-18 28 -52 28c-20 0 -41 -3 -61 -10zM474 439c-1 7 -2 14 -2 22
c0 111 68 204 133 262c-75 22 -153 30 -223 30c-277 0 -472 -127 -472 -267c0 -81 83 -143 196 -143c123 0 248 31 368 96zM494 451c95 56 192 133 250 210c-22 14 -47 26 -71 37c-10 5 -21 9 -31 12c-49 -53 -144 -169 -148 -259zM749 667c35 48 52 90 52 118
c0 17 -5 25 -25 25c-22 0 -73 -37 -127 -93c37 -15 70 -32 100 -50z" />
    <glyph glyph-name="Ntilde" unicode="&#xd1;" horiz-adv-x="987" 
d="M1108 809c35 36 63 48 88 48c48 0 81 -48 125 -48c19 0 41 9 67 37l4 -4c-34 -41 -59 -55 -84 -55c-48 0 -84 50 -129 50c-19 0 -42 -8 -65 -32zM743 385c-98 52 -223 87 -365 87c-357 0 -468 -171 -468 -289c0 -100 82 -201 259 -201c248 0 424 189 574 403zM940 219
c-51 -83 -113 -178 -193 -279c-2 -2 -4 -3 -6 -3c-5 0 -9 3 -9 8c0 3 1 5 3 7c76 116 106 225 134 345c-25 22 -54 44 -85 64c-121 -211 -281 -408 -593 -408c-118 0 -292 64 -292 230c0 125 110 299 479 299c140 0 267 -35 370 -89c106 151 198 315 297 426c2 2 4 3 7 3
c4 0 8 -3 8 -8c0 -3 -1 -5 -3 -8c-78 -136 -109 -253 -146 -402c-9 -36 -18 -73 -27 -108c21 -19 39 -39 55 -60c131 224 207 410 374 410c57 0 76 -20 76 -34c0 -7 -5 -12 -12 -12c-27 0 -31 25 -81 25c-137 0 -208 -161 -351 -397c19 -25 34 -52 46 -80c1 -1 2 -3 2 -4
c0 -4 -3 -6 -6 -6c-2 0 -3 2 -3 5c-11 25 -25 51 -44 76zM933 228c-15 20 -32 39 -52 57c-25 -99 -51 -190 -95 -267c2 0 3 -5 4 -4c55 71 101 143 143 214zM872 307c31 130 60 274 151 461c-2 0 -3 5 -4 3c-81 -100 -146 -253 -230 -402c30 -19 58 -39 83 -62z" />
    <glyph glyph-name="Odieresis" unicode="&#xd6;" horiz-adv-x="932" 
d="M196 58c-22 -5 -42 -7 -60 -7c-66 0 -123 21 -146 79c0 8 2 12 4 12c1 0 2 -1 3 -4c19 -53 69 -78 138 -78c18 0 37 2 57 7c-9 23 -14 51 -14 83c0 172 94 328 219 451c170 167 399 273 531 273c67 0 104 -31 104 -84c0 -35 -16 -80 -52 -133c13 -25 20 -58 20 -98
c0 -338 -382 -599 -625 -599c-84 0 -149 30 -179 98zM224 75c66 20 141 58 215 103c-29 19 -47 51 -47 100c0 222 265 453 446 453c63 0 111 -20 138 -65c32 49 47 91 47 124c0 47 -30 74 -83 74c-208 0 -723 -367 -723 -735c0 -20 2 -38 7 -54zM227 66
c22 -64 82 -93 158 -93c228 0 605 254 605 586c0 36 -5 65 -16 89c-105 -152 -319 -346 -516 -469c16 -6 32 -9 51 -9c59 0 135 32 193 92c2 2 4 3 5 3c3 0 4 -3 4 -7c-61 -62 -140 -97 -204 -97c-22 0 -41 4 -58 12c-81 -50 -157 -88 -222 -107zM449 184
c206 130 422 327 521 473c-24 46 -70 65 -132 65c-176 0 -427 -298 -427 -465c0 -35 15 -59 38 -73zM932 964c14 0 20 -9 20 -17c0 -17 -27 -38 -49 -38c-13 0 -21 5 -21 16c0 20 28 39 50 39zM1099 964c14 0 20 -9 20 -17c0 -17 -27 -38 -49 -38c-13 0 -21 5 -21 16
c0 20 28 39 50 39z" />
    <glyph glyph-name="Udieresis" unicode="&#xdc;" horiz-adv-x="794" 
d="M592 822c5 -17 7 -36 7 -58c0 -204 -200 -389 -341 -389c-65 0 -96 41 -96 105c0 198 246 347 411 349c-13 44 -44 73 -109 73c-157 0 -406 -206 -406 -445c0 -52 14 -95 38 -128c1 -1 2 -2 2 -4s-3 -4 -5 -4s-3 1 -4 2c-28 38 -39 84 -39 134c0 247 252 453 415 453
c68 0 108 -30 125 -81c79 -4 142 -41 142 -153c0 -80 -49 -160 -117 -234c-157 -169 -404 -347 -404 -421c0 -16 10 -25 25 -25c138 0 651 587 716 647c93 86 152 125 214 125c11 0 16 -5 16 -10s-6 -11 -20 -11c-68 0 -137 -40 -230 -171c-221 -310 -341 -507 -341 -566
c0 -7 4 -13 12 -13c41 0 121 73 189 153l7 -7c-70 -82 -151 -156 -197 -156c-22 0 -33 10 -33 32c0 153 259 454 383 603c2 2 2 3 2 4c0 2 -1 2 -6 2c-37 -28 -560 -642 -712 -642c-24 0 -39 14 -39 42c0 110 233 299 387 459c76 79 127 156 127 221c0 72 -50 109 -119 114z
M576 822c-156 -1 -404 -140 -404 -342c0 -58 33 -95 87 -95c131 0 322 243 322 382c0 19 -1 36 -5 55zM897 876c14 0 20 -9 20 -17c0 -17 -27 -38 -49 -38c-13 0 -21 5 -21 16c0 20 28 39 50 39zM1064 876c14 0 20 -9 20 -17c0 -17 -27 -38 -49 -38c-13 0 -21 5 -21 16
c0 20 28 39 50 39z" />
    <glyph glyph-name="aacute" unicode="&#xe1;" horiz-adv-x="348" 
d="M250 198c-74 -84 -197 -211 -236 -211c-15 0 -23 10 -23 32c0 53 30 132 100 203c2 1 -1 3 -2 2c-22 -17 -62 -55 -85 -82l-7 7c30 35 114 115 229 161c45 18 91 27 132 27c13 0 26 -1 39 -2c-86 -108 -239 -291 -239 -323c0 -8 3 -12 11 -12c33 0 144 110 177 150l7 -7
c-24 -28 -145 -156 -192 -156c-13 0 -20 10 -20 22c0 33 24 75 111 187zM349 328c-103 0 -191 -81 -246 -148c-53 -64 -96 -132 -96 -168c0 -8 3 -12 10 -12c53 0 287 273 332 328zM520 549c-53 -46 -130 -87 -186 -103l-1 9c52 17 126 65 171 111c13 13 16 20 29 20
c4 0 8 -2 8 -6c0 -8 -7 -19 -21 -31z" />
    <glyph glyph-name="agrave" unicode="&#xe0;" horiz-adv-x="348" 
d="M250 198c-74 -84 -197 -211 -236 -211c-15 0 -23 10 -23 32c0 53 30 132 100 203c1 0 1 2 -2 2c-22 -17 -62 -55 -85 -82l-7 7c30 35 114 115 229 161c45 18 91 27 132 27c13 0 26 -1 39 -2c-86 -108 -239 -291 -239 -323c0 -8 3 -12 11 -12c33 0 144 110 177 150l7 -7
c-24 -28 -145 -156 -192 -156c-13 0 -20 10 -20 22c0 33 24 75 111 187zM349 328c-103 0 -191 -81 -246 -148c-53 -64 -96 -132 -96 -168c0 -8 3 -12 10 -12c53 0 287 273 332 328zM332 573c0 16 7 26 14 26c6 0 12 -7 12 -25c0 -49 15 -116 39 -153l-7 -4
c-28 39 -58 102 -58 156z" />
    <glyph glyph-name="acircumflex" unicode="&#xe2;" horiz-adv-x="348" 
d="M250 198c-74 -84 -197 -211 -236 -211c-15 0 -23 10 -23 32c0 53 30 132 100 203c2 1 -1 3 -2 2c-22 -17 -62 -55 -85 -82l-7 7c30 35 114 115 229 161c45 18 91 27 132 27c13 0 26 -1 39 -2c-86 -108 -239 -291 -239 -323c0 -8 3 -12 11 -12c33 0 144 110 177 150l7 -7
c-24 -28 -145 -156 -192 -156c-13 0 -20 10 -20 22c0 33 24 75 111 187zM349 328c-103 0 -191 -81 -246 -148c-53 -64 -96 -132 -96 -168c0 -8 3 -12 10 -12c53 0 287 273 332 328zM451 549c-47 -46 -133 -96 -176 -103l-1 8c47 12 128 66 173 112c13 13 14 20 27 20
c4 0 8 -2 8 -6c0 -2 0 -4 -4 -11c-16 -35 -29 -72 -29 -102c0 -8 1 -15 2 -17l-7 -4c-4 7 -7 20 -7 36c0 19 4 43 14 67z" />
    <glyph glyph-name="adieresis" unicode="&#xe4;" horiz-adv-x="348" 
d="M250 198c-74 -84 -197 -211 -236 -211c-15 0 -23 10 -23 32c0 53 30 132 100 203c2 1 -1 3 -2 2c-22 -17 -62 -55 -85 -82l-7 7c30 35 114 115 229 161c45 18 91 27 132 27c13 0 26 -1 39 -2c-86 -108 -239 -291 -239 -323c0 -8 3 -12 11 -12c33 0 144 110 177 150l7 -7
c-24 -28 -145 -156 -192 -156c-13 0 -20 10 -20 22c0 33 24 75 111 187zM349 328c-103 0 -191 -81 -246 -148c-53 -64 -96 -132 -96 -168c0 -8 3 -12 10 -12c53 0 287 273 332 328zM352 535c10 0 14 -10 14 -19c0 -19 -19 -41 -35 -41c-9 0 -15 5 -15 17c0 22 20 43 36 43z
M471 535c10 0 14 -10 14 -19c0 -19 -19 -41 -35 -41c-9 0 -15 5 -15 17c0 22 20 43 36 43z" />
    <glyph glyph-name="atilde" unicode="&#xe3;" horiz-adv-x="348" 
d="M250 198c-74 -84 -197 -211 -236 -211c-15 0 -23 10 -23 32c0 53 30 132 100 203c2 1 -1 3 -2 2c-22 -17 -62 -55 -85 -82l-7 7c30 35 114 115 229 161c45 18 91 27 132 27c13 0 26 -1 39 -2c-86 -108 -239 -291 -239 -323c0 -8 3 -12 11 -12c33 0 144 110 177 150l7 -7
c-24 -28 -145 -156 -192 -156c-13 0 -20 10 -20 22c0 33 24 75 111 187zM349 328c-103 0 -191 -81 -246 -148c-53 -64 -96 -132 -96 -168c0 -8 3 -12 10 -12c53 0 287 273 332 328zM298 486c27 36 49 48 68 48c37 0 63 -48 97 -48c15 0 32 9 52 37l3 -4
c-26 -41 -48 -55 -67 -55c-38 0 -66 50 -101 50c-14 0 -30 -8 -48 -32z" />
    <glyph glyph-name="aring" unicode="&#xe5;" horiz-adv-x="348" 
d="M250 198c-74 -84 -197 -211 -236 -211c-15 0 -23 10 -23 32c0 53 30 132 100 203c2 1 -1 3 -2 2c-22 -17 -62 -55 -85 -82l-7 7c30 35 114 115 229 161c45 18 91 27 132 27c13 0 26 -1 39 -2c-86 -108 -239 -291 -239 -323c0 -8 3 -12 11 -12c33 0 144 110 177 150l7 -7
c-24 -28 -145 -156 -192 -156c-13 0 -20 10 -20 22c0 33 24 75 111 187zM349 328c-103 0 -191 -81 -246 -148c-53 -64 -96 -132 -96 -168c0 -8 3 -12 10 -12c53 0 287 273 332 328zM462 585c16 0 25 -9 25 -24c0 -14 -7 -32 -21 -52c-29 -42 -79 -76 -110 -76
c-16 0 -25 9 -25 24c0 14 7 32 21 52c29 42 79 76 110 76zM459 570c-24 0 -66 -29 -95 -70c-11 -15 -17 -29 -17 -39c0 -8 4 -13 14 -13c18 0 64 27 93 70c7 10 18 29 18 41c0 6 -3 11 -13 11z" />
    <glyph glyph-name="ccedilla" unicode="&#xe7;" 
d="M9 -12c-20 2 -27 17 -27 30c0 53 38 123 106 202c0 0 0 1 -2 1c-27 -20 -67 -59 -82 -78l-7 7c26 32 154 145 232 185c18 9 33 14 43 14c16 0 24 -11 24 -30c0 -44 -28 -78 -56 -78c-13 0 -19 8 -19 18c0 18 20 44 55 44c6 6 9 13 9 20c0 9 -5 17 -16 17
c-8 0 -19 -5 -35 -16c-40 -29 -87 -92 -129 -143c-46 -57 -106 -143 -106 -167c0 -11 4 -17 15 -17c57 0 172 93 224 154l7 -7c-61 -71 -174 -153 -225 -157l-46 -34c4 1 9 1 12 1c24 0 40 -18 40 -48c0 -43 -49 -105 -129 -105c-20 0 -35 7 -44 15l5 11c5 -6 15 -16 39 -16
c59 0 110 49 110 97c0 21 -9 36 -32 36c-13 0 -21 -6 -25 -12s-7 -11 -14 -11c-2 0 -4 3 -4 7c0 3 1 6 4 8z" />
    <glyph glyph-name="eacute" unicode="&#xe9;" 
d="M449 549c-53 -46 -130 -87 -186 -103l-1 9c52 17 126 65 171 111c13 13 16 20 29 20c4 0 8 -2 8 -6c0 -8 -7 -19 -21 -31zM265 339c-40 0 -104 -90 -160 -158c-14 -18 -29 -37 -44 -57c147 82 214 174 214 204c0 7 -4 11 -10 11zM87 222c-28 -22 -58 -50 -83 -79l-7 7
c36 41 221 199 269 199c12 0 20 -8 20 -21c0 -39 -62 -128 -236 -219c-28 -40 -51 -80 -51 -95c0 -11 4 -17 15 -17c54 0 170 91 224 154l7 -7c-63 -73 -180 -157 -229 -157c-25 0 -34 17 -34 31c0 53 37 121 106 202c2 1 0 3 -1 2z" />
    <glyph glyph-name="egrave" unicode="&#xe8;" 
d="M247 573c0 16 7 26 14 26c6 0 12 -7 12 -25c0 -49 15 -116 39 -153l-7 -4c-28 39 -58 102 -58 156zM265 339c-40 0 -104 -90 -160 -158c-14 -18 -29 -37 -44 -57c147 82 214 174 214 204c0 7 -4 11 -10 11zM87 222c-28 -22 -58 -50 -83 -79l-7 7c36 41 221 199 269 199
c12 0 20 -8 20 -21c0 -39 -62 -128 -236 -219c-28 -40 -51 -80 -51 -95c0 -11 4 -17 15 -17c54 0 170 91 224 154l7 -7c-63 -73 -180 -157 -229 -157c-25 0 -34 17 -34 31c0 53 37 121 106 202c2 1 0 3 -1 2z" />
    <glyph glyph-name="ecircumflex" unicode="&#xea;" 
d="M265 339c-40 0 -104 -90 -160 -158c-14 -18 -29 -37 -44 -57c147 82 214 174 214 204c0 7 -4 11 -10 11zM87 222c-28 -22 -58 -50 -83 -79l-7 7c36 41 221 199 269 199c12 0 20 -8 20 -21c0 -39 -62 -128 -236 -219c-28 -40 -51 -80 -51 -95c0 -11 4 -17 15 -17
c54 0 170 91 224 154l7 -7c-63 -73 -180 -157 -229 -157c-25 0 -34 17 -34 31c0 53 37 121 106 202c2 1 0 3 -1 2zM373 549c-47 -46 -133 -96 -176 -103l-1 8c47 12 128 66 173 112c13 13 14 20 27 20c4 0 8 -2 8 -6c0 -2 0 -4 -4 -11c-16 -35 -29 -72 -29 -102
c0 -8 1 -15 2 -17l-7 -4c-4 7 -7 20 -7 36c0 19 4 43 14 67z" />
    <glyph glyph-name="edieresis" unicode="&#xeb;" 
d="M265 339c-40 0 -104 -90 -160 -158c-14 -18 -29 -37 -44 -57c147 82 214 174 214 204c0 7 -4 11 -10 11zM87 222c-28 -22 -58 -50 -83 -79l-7 7c36 41 221 199 269 199c12 0 20 -8 20 -21c0 -39 -62 -128 -236 -219c-28 -40 -51 -80 -51 -95c0 -11 4 -17 15 -17
c54 0 170 91 224 154l7 -7c-63 -73 -180 -157 -229 -157c-25 0 -34 17 -34 31c0 53 37 121 106 202c2 1 0 3 -1 2zM274 535c10 0 14 -10 14 -19c0 -19 -19 -41 -35 -41c-9 0 -15 5 -15 17c0 22 20 43 36 43zM393 535c10 0 14 -10 14 -19c0 -19 -19 -41 -35 -41
c-9 0 -15 5 -15 17c0 22 20 43 36 43z" />
    <glyph glyph-name="iacute" unicode="&#xed;" horiz-adv-x="179" 
d="M142 273c4 4 -1 9 -4 3c-22 -26 -78 -74 -134 -134l-7 7c51 54 155 150 187 186h52c-84 -106 -239 -290 -239 -327c0 -6 2 -9 8 -9c23 0 96 63 171 151l7 -7c-65 -78 -147 -156 -184 -156c-13 0 -20 10 -20 22c0 62 85 162 163 264zM414 549c-53 -46 -130 -87 -186 -103
l-1 9c52 17 126 65 171 111c13 13 16 20 29 20c4 0 8 -2 8 -6c0 -8 -7 -19 -21 -31z" />
    <glyph glyph-name="igrave" unicode="&#xec;" horiz-adv-x="179" 
d="M142 273c4 4 -1 9 -4 3c-22 -26 -78 -74 -134 -134l-7 7c51 54 155 150 187 186h52c-84 -106 -239 -290 -239 -327c0 -6 2 -9 8 -9c23 0 96 63 171 151l7 -7c-65 -78 -147 -156 -184 -156c-13 0 -20 10 -20 22c0 62 85 162 163 264zM214 573c0 16 7 26 14 26
c6 0 12 -7 12 -25c0 -49 15 -116 39 -153l-7 -4c-28 39 -58 102 -58 156z" />
    <glyph glyph-name="icircumflex" unicode="&#xee;" horiz-adv-x="179" 
d="M142 273c4 4 -1 9 -4 3c-22 -26 -78 -74 -134 -134l-7 7c51 54 155 150 187 186h52c-84 -106 -239 -290 -239 -327c0 -6 2 -9 8 -9c23 0 96 63 171 151l7 -7c-65 -78 -147 -156 -184 -156c-13 0 -20 10 -20 22c0 62 85 162 163 264zM355 549c-47 -46 -133 -96 -176 -103
l-1 8c47 12 128 66 173 112c13 13 14 20 27 20c4 0 8 -2 8 -6c0 -2 0 -4 -4 -11c-16 -35 -29 -72 -29 -102c0 -8 1 -15 2 -17l-7 -4c-4 7 -7 20 -7 36c0 19 4 43 14 67z" />
    <glyph glyph-name="idieresis" unicode="&#xef;" horiz-adv-x="179" 
d="M142 273c4 4 -1 9 -4 3c-22 -26 -78 -74 -134 -134l-7 7c51 54 155 150 187 186h52c-84 -106 -239 -290 -239 -327c0 -6 2 -9 8 -9c23 0 96 63 171 151l7 -7c-65 -78 -147 -156 -184 -156c-13 0 -20 10 -20 22c0 62 85 162 163 264zM256 535c10 0 14 -10 14 -19
c0 -19 -19 -41 -35 -41c-9 0 -15 5 -15 17c0 22 20 43 36 43zM375 535c10 0 14 -10 14 -19c0 -19 -19 -41 -35 -41c-9 0 -15 5 -15 17c0 22 20 43 36 43z" />
    <glyph glyph-name="ntilde" unicode="&#xf1;" horiz-adv-x="389" 
d="M43 0h-51c86 108 238 291 238 328c0 6 -2 9 -8 9c-28 0 -131 -94 -218 -195l-7 7c63 71 184 200 231 200c13 0 20 -10 20 -22c0 -33 -28 -71 -105 -191l2 -2c114 127 201 215 238 215c12 0 21 -10 21 -31c0 -101 -208 -258 -208 -305c0 -9 5 -13 13 -13
c40 0 135 100 178 150l7 -7c-43 -49 -143 -153 -185 -153c-14 0 -28 8 -28 33c0 92 207 248 207 304c0 9 -3 11 -9 11c-41 0 -224 -202 -336 -338zM298 486c27 36 49 48 68 48c37 0 63 -48 97 -48c15 0 32 9 52 37l3 -4c-26 -41 -48 -55 -67 -55c-38 0 -66 50 -101 50
c-14 0 -30 -8 -48 -32z" />
    <glyph glyph-name="oacute" unicode="&#xf3;" horiz-adv-x="276" 
d="M474 549c-53 -46 -130 -87 -186 -103l-1 9c52 17 126 65 171 111c13 13 16 20 29 20c4 0 8 -2 8 -6c0 -8 -7 -19 -21 -31zM221 149c-71 -86 -154 -162 -197 -162c-25 0 -37 17 -37 44c0 40 32 113 99 182c0 0 1 2 -2 2c-23 -17 -51 -40 -80 -73l-7 7
c33 37 223 200 286 200c19 0 29 -12 29 -30c0 -33 -27 -93 -79 -156c-3 -4 -5 -9 -5 -19c0 -9 5 -16 14 -16c8 0 19 6 32 22l7 -7c-16 -18 -29 -25 -39 -25c-12 0 -22 9 -22 23c0 4 0 6 1 8zM27 -1c21 0 73 20 195 167c3 39 25 75 40 75c3 0 6 -2 8 -5c19 32 30 63 30 80
c0 14 -6 21 -17 21c-47 0 -124 -89 -180 -157c-53 -64 -92 -134 -92 -165c0 -11 5 -16 16 -16z" />
    <glyph glyph-name="ograve" unicode="&#xf2;" horiz-adv-x="276" 
d="M280 573c0 16 7 26 14 26c6 0 12 -7 12 -25c0 -49 15 -116 39 -153l-7 -4c-28 39 -58 102 -58 156zM221 149c-71 -86 -154 -162 -197 -162c-25 0 -37 17 -37 44c0 40 32 113 99 182c0 0 1 2 -2 2c-23 -17 -51 -40 -80 -73l-7 7c33 37 223 200 286 200c19 0 29 -12 29 -30
c0 -33 -27 -93 -79 -156c-3 -4 -5 -9 -5 -19c0 -9 5 -16 14 -16c8 0 19 6 32 22l7 -7c-16 -18 -29 -25 -39 -25c-12 0 -22 9 -22 23c0 4 0 6 1 8zM27 -1c21 0 73 20 195 167c3 39 25 75 40 75c3 0 6 -2 8 -5c19 32 30 63 30 80c0 14 -6 21 -17 21c-47 0 -124 -89 -180 -157
c-53 -64 -92 -134 -92 -165c0 -11 5 -16 16 -16z" />
    <glyph glyph-name="ocircumflex" unicode="&#xf4;" horiz-adv-x="276" 
d="M395 549c-47 -46 -133 -96 -176 -103l-1 8c47 12 128 66 173 112c13 13 14 20 27 20c4 0 8 -2 8 -6c0 -2 0 -4 -4 -11c-16 -35 -29 -72 -29 -102c0 -8 1 -15 2 -17l-7 -4c-4 7 -7 20 -7 36c0 19 4 43 14 67zM221 149c-71 -86 -154 -162 -197 -162c-25 0 -37 17 -37 44
c0 40 32 113 99 182c0 0 1 2 -2 2c-23 -17 -51 -40 -80 -73l-7 7c33 37 223 200 286 200c19 0 29 -12 29 -30c0 -33 -27 -93 -79 -156c-3 -4 -5 -9 -5 -19c0 -9 5 -16 14 -16c8 0 19 6 32 22l7 -7c-16 -18 -29 -25 -39 -25c-12 0 -22 9 -22 23c0 4 0 6 1 8zM27 -1
c21 0 73 20 195 167c3 39 25 75 40 75c3 0 6 -2 8 -5c19 32 30 63 30 80c0 14 -6 21 -17 21c-47 0 -124 -89 -180 -157c-53 -64 -92 -134 -92 -165c0 -11 5 -16 16 -16z" />
    <glyph glyph-name="odieresis" unicode="&#xf6;" horiz-adv-x="276" 
d="M312 535c10 0 14 -10 14 -19c0 -19 -19 -41 -35 -41c-9 0 -15 5 -15 17c0 22 20 43 36 43zM431 535c10 0 14 -10 14 -19c0 -19 -19 -41 -35 -41c-9 0 -15 5 -15 17c0 22 20 43 36 43zM221 149c-71 -86 -154 -162 -197 -162c-25 0 -37 17 -37 44c0 40 32 113 99 182
c0 0 1 2 -2 2c-23 -17 -51 -40 -80 -73l-7 7c33 37 223 200 286 200c19 0 29 -12 29 -30c0 -33 -27 -93 -79 -156c-3 -4 -5 -9 -5 -19c0 -9 5 -16 14 -16c8 0 19 6 32 22l7 -7c-16 -18 -29 -25 -39 -25c-12 0 -22 9 -22 23c0 4 0 6 1 8zM27 -1c21 0 73 20 195 167
c3 39 25 75 40 75c3 0 6 -2 8 -5c19 32 30 63 30 80c0 14 -6 21 -17 21c-47 0 -124 -89 -180 -157c-53 -64 -92 -134 -92 -165c0 -11 5 -16 16 -16z" />
    <glyph glyph-name="otilde" unicode="&#xf5;" horiz-adv-x="276" 
d="M246 486c27 36 49 48 68 48c37 0 63 -48 97 -48c15 0 32 9 52 37l3 -4c-26 -41 -48 -55 -67 -55c-38 0 -66 50 -101 50c-14 0 -30 -8 -48 -32zM221 149c-71 -86 -154 -162 -197 -162c-25 0 -37 17 -37 44c0 40 32 113 99 182c0 0 1 2 -2 2c-23 -17 -51 -40 -80 -73l-7 7
c33 37 223 200 286 200c19 0 29 -12 29 -30c0 -33 -27 -93 -79 -156c-3 -4 -5 -9 -5 -19c0 -9 5 -16 14 -16c8 0 19 6 32 22l7 -7c-16 -18 -29 -25 -39 -25c-12 0 -22 9 -22 23c0 4 0 6 1 8zM27 -1c21 0 73 20 195 167c3 39 25 75 40 75c3 0 6 -2 8 -5c19 32 30 63 30 80
c0 14 -6 21 -17 21c-47 0 -124 -89 -180 -157c-53 -64 -92 -134 -92 -165c0 -11 5 -16 16 -16z" />
    <glyph glyph-name="uacute" unicode="&#xfa;" horiz-adv-x="327" 
d="M139 276c-37 -39 -74 -72 -135 -134l-7 7c65 63 162 158 187 186h52c-77 -92 -245 -286 -245 -328c0 -7 3 -9 8 -9c41 0 221 203 333 337h51c-86 -106 -238 -290 -238 -327c0 -6 2 -9 8 -9c23 0 96 63 171 151l7 -7c-65 -78 -147 -156 -184 -156c-13 0 -20 10 -20 22
c0 33 28 72 105 192l-2 2c-114 -127 -197 -216 -234 -216c-12 0 -21 10 -21 28c0 61 107 183 168 258c4 4 -1 9 -4 3zM480 549c-53 -46 -130 -87 -186 -103l-1 9c52 17 126 65 171 111c13 13 16 20 29 20c4 0 8 -2 8 -6c0 -8 -7 -19 -21 -31z" />
    <glyph glyph-name="ugrave" unicode="&#xf9;" horiz-adv-x="327" 
d="M139 276c-37 -39 -74 -72 -135 -134l-7 7c65 63 162 158 187 186h52c-77 -92 -245 -286 -245 -328c0 -7 3 -9 8 -9c41 0 221 203 333 337h51c-86 -106 -238 -290 -238 -327c0 -6 2 -9 8 -9c23 0 96 63 171 151l7 -7c-65 -78 -147 -156 -184 -156c-13 0 -20 10 -20 22
c0 33 28 72 105 192l-2 2c-114 -127 -197 -216 -234 -216c-12 0 -21 10 -21 28c0 61 107 183 168 258c4 4 -1 9 -4 3zM300 573c0 16 7 26 14 26c6 0 12 -7 12 -25c0 -49 15 -116 39 -153l-7 -4c-28 39 -58 102 -58 156z" />
    <glyph glyph-name="ucircumflex" unicode="&#xfb;" horiz-adv-x="327" 
d="M139 276c-37 -39 -74 -72 -135 -134l-7 7c65 63 162 158 187 186h52c-77 -92 -245 -286 -245 -328c0 -7 3 -9 8 -9c41 0 221 203 333 337h51c-86 -106 -238 -290 -238 -327c0 -6 2 -9 8 -9c23 0 96 63 171 151l7 -7c-65 -78 -147 -156 -184 -156c-13 0 -20 10 -20 22
c0 33 28 72 105 192l-2 2c-114 -127 -197 -216 -234 -216c-12 0 -21 10 -21 28c0 61 107 183 168 258c4 4 -1 9 -4 3zM432 549c-47 -46 -133 -96 -176 -103l-1 8c47 12 128 66 173 112c13 13 14 20 27 20c4 0 8 -2 8 -6c0 -2 0 -4 -4 -11c-16 -35 -29 -72 -29 -102
c0 -8 1 -15 2 -17l-7 -4c-4 7 -7 20 -7 36c0 19 4 43 14 67z" />
    <glyph glyph-name="udieresis" unicode="&#xfc;" horiz-adv-x="327" 
d="M139 276c-37 -39 -74 -72 -135 -134l-7 7c65 63 162 158 187 186h52c-77 -92 -245 -286 -245 -328c0 -7 3 -9 8 -9c41 0 221 203 333 337h51c-86 -106 -238 -290 -238 -327c0 -6 2 -9 8 -9c23 0 96 63 171 151l7 -7c-65 -78 -147 -156 -184 -156c-13 0 -20 10 -20 22
c0 33 28 72 105 192l-2 2c-114 -127 -197 -216 -234 -216c-12 0 -21 10 -21 28c0 61 107 183 168 258c4 4 -1 9 -4 3zM339 535c10 0 14 -10 14 -19c0 -19 -19 -41 -35 -41c-9 0 -15 5 -15 17c0 22 20 43 36 43zM458 535c10 0 14 -10 14 -19c0 -19 -19 -41 -35 -41
c-9 0 -15 5 -15 17c0 22 20 43 36 43z" />
    <glyph glyph-name="dagger" unicode="&#x2020;" horiz-adv-x="405" 
d="M440 483c-62 0 -123 -11 -131 -11c-21 0 -22 12 -14 23c10 12 28 23 49 23c8 0 56 -10 116 -10c82 107 91 134 109 158c17 22 38 32 50 32c13 0 17 -10 0 -32c-20 -26 -51 -51 -133 -158c61 0 123 10 131 10c21 0 23 -11 13 -23c-8 -11 -27 -23 -48 -23
c-8 0 -53 11 -116 11c-153 -199 -339 -433 -440 -560h-8c96 127 268 360 422 560z" />
    <glyph glyph-name="degree" unicode="&#xb0;" horiz-adv-x="437" 
d="M550 710c35 0 47 -13 47 -42c0 -97 -183 -274 -279 -274c-28 0 -46 16 -46 45c0 123 175 271 278 271zM550 700c-67 0 -266 -171 -266 -261c0 -25 15 -35 34 -35c91 0 269 178 269 264c0 21 -8 32 -37 32z" />
    <glyph glyph-name="cent" unicode="&#xa2;" horiz-adv-x="314" 
d="M352 425c8 -6 12 -16 12 -29c0 -32 -22 -76 -56 -76c-13 0 -19 8 -19 18c0 18 20 44 55 44c5 4 7 11 7 18c0 9 -4 18 -12 18c-47 0 -110 -90 -166 -158c-46 -57 -106 -143 -106 -167c0 -11 4 -17 15 -17c57 0 172 93 224 154l7 -7c-63 -73 -180 -157 -229 -157
c-7 0 -14 1 -18 4l-163 -201h-12l167 207c-6 6 -8 14 -8 21c0 93 103 206 141 242c49 48 117 89 150 89h3l140 173h12z" />
    <glyph glyph-name="sterling" unicode="&#xa3;" horiz-adv-x="822" 
d="M529 456c133 35 272 113 366 216c50 55 70 99 70 128c0 32 -22 48 -53 48c-103 0 -243 -105 -383 -392zM399 205c-46 -76 -93 -130 -148 -168c88 -27 177 -59 280 -59c137 0 204 73 296 172l7 -7c-64 -71 -182 -198 -331 -198c-102 0 -190 43 -276 78
c-56 -32 -121 -48 -200 -48c-53 0 -90 16 -90 49c0 19 14 52 110 52c54 0 104 -11 156 -26c55 42 103 105 152 184c-21 14 -43 26 -73 26c-46 0 -73 -17 -115 -45l-5 8c75 50 95 55 132 55c30 0 53 -10 74 -23c25 40 50 84 78 132c8 15 17 29 26 45c-31 -5 -62 -8 -91 -8
c-141 0 -250 64 -252 216c0 3 1 5 3 5s4 -2 4 -5c4 -145 109 -205 244 -205c32 0 66 3 101 10c194 321 328 413 431 413c36 0 63 -20 63 -58c0 -32 -20 -78 -72 -135c-98 -108 -243 -188 -380 -222c-37 -78 -78 -161 -111 -218c21 -14 44 -25 76 -25c49 0 76 20 117 47l5 -9
c-73 -48 -98 -55 -131 -55c-34 0 -59 10 -80 22zM186 39c-45 16 -92 28 -139 28c-86 0 -100 -27 -100 -43c0 -22 24 -36 78 -36c51 0 107 18 161 51z" />
    <glyph glyph-name="section" unicode="&#xa7;" horiz-adv-x="470" 
d="M357 378v30c0 52 5 103 36 147c37 52 76 77 135 77c49 0 86 -30 86 -81c0 -69 -25 -94 -52 -94c-13 0 -21 6 -21 23c0 16 20 44 57 44c4 5 6 16 6 27c0 47 -32 71 -76 71c-43 0 -84 -27 -103 -62c-24 -43 -31 -86 -31 -129c0 -50 9 -99 9 -148c0 -38 -6 -76 -25 -114
c-36 -71 -115 -111 -195 -111c-19 0 -35 4 -49 11c2 -30 5 -58 5 -86c0 -45 -6 -88 -32 -125c-37 -53 -81 -78 -140 -78c-51 0 -83 37 -83 84c0 66 26 92 53 92c14 0 21 -6 21 -22c0 -17 -21 -46 -58 -46c-4 -4 -6 -14 -6 -25c0 -40 26 -73 73 -73c43 0 90 17 117 64
c16 28 21 59 21 92c0 63 -19 133 -19 201c0 37 6 73 23 107c41 83 113 132 206 132c16 0 30 -3 42 -8zM358 366c-13 7 -30 10 -48 10c-75 0 -124 -54 -154 -123c-19 -43 -24 -87 -24 -129c0 -15 1 -30 1 -44c15 -9 34 -13 54 -13c62 0 116 37 151 121c17 41 21 84 21 126
c0 18 -1 35 -1 52z" />
    <glyph glyph-name="bullet" unicode="&#x2022;" horiz-adv-x="409" 
d="M204 417c107 0 185 -82 185 -183c0 -107 -70 -175 -185 -175s-184 70 -184 175c0 48 18 93 49 125c33 36 81 58 135 58z" />
    <glyph glyph-name="paragraph" unicode="&#xb6;" horiz-adv-x="543" 
d="M147 0c-89 0 -129 45 -129 107c0 133 187 344 467 344h237l-7 -13h-110l-324 -425h102l-8 -13h-228zM245 13l323 425h-89l-324 -425h90z" />
    <glyph glyph-name="germandbls" unicode="&#xdf;" horiz-adv-x="314" 
d="M405 470c168 168 262 294 262 341c0 8 -3 12 -8 12c-33 0 -213 -233 -353 -423c-84 -114 -504 -652 -588 -761h-51c104 131 447 558 550 680c-78 -61 -172 -131 -213 -177l-7 7c41 47 134 112 242 200c48 60 354 485 421 485c13 0 18 -7 18 -20c0 -53 -90 -186 -267 -353
c-65 -62 -88 -99 -99 -153c-13 -63 -5 -90 -24 -148c-35 -108 -136 -173 -180 -173c-27 0 -37 18 -37 39c0 31 22 69 52 69c15 0 21 -8 21 -19c0 -14 -10 -26 -26 -26c-17 0 -32 -14 -32 -31c0 -11 7 -21 22 -21c44 0 118 79 153 199c14 47 26 83 36 111
c22 64 36 90 108 162z" />
    <glyph glyph-name="registered" unicode="&#xae;" horiz-adv-x="437" 
d="M217 568c97 0 175 -78 175 -175c0 -96 -78 -174 -175 -174s-175 78 -175 174c0 51 21 96 56 128c31 29 73 47 119 47zM217 558c-92 0 -165 -73 -165 -165c0 -91 73 -164 165 -164s165 73 165 164c0 92 -73 165 -165 165zM188 392v-87h36v-9h-102v9h36v183h-36v9h99
c66 0 84 -26 84 -51c0 -27 -21 -48 -69 -49v-1c36 -3 55 -20 55 -47c0 -14 -1 -27 -1 -40c0 -8 4 -11 10 -11c8 0 12 7 12 21v13h9v-13c0 -19 -10 -32 -28 -32s-33 14 -33 33c0 9 1 18 1 28c0 31 -8 44 -51 44h-22zM188 488v-87h31c41 0 54 16 54 45c0 28 -13 42 -54 42h-31
z" />
    <glyph glyph-name="copyright" unicode="&#xa9;" horiz-adv-x="652" 
d="M326 568c161 0 291 -130 291 -291s-130 -291 -291 -291s-291 130 -291 291c0 83 34 157 89 210c53 50 124 81 202 81zM326 558c-156 0 -281 -125 -281 -281s125 -281 281 -281s281 125 281 281s-125 281 -281 281zM333 452c-84 0 -110 -54 -110 -169s26 -169 110 -169
c71 0 111 43 115 120l10 -1c-4 -86 -48 -129 -125 -129c-97 0 -170 78 -170 179s73 179 170 179c90 0 125 -48 125 -92c0 -32 -18 -46 -42 -46c-20 0 -36 14 -36 34c0 32 29 36 29 53c0 22 -23 41 -76 41z" />
    <glyph glyph-name="trademark" unicode="&#x2122;" horiz-adv-x="787" 
d="M28 553h298v-79h-12v26l-47 41h-72v-308h36v-12h-108v12h36v308h-72l-47 -41v-26h-12v79zM422 545v-285l32 -27h15v-12h-106v12h14l33 27v259l-22 22h-25v12h93l111 -286l100 286h78v-12h-36v-308h36v-12h-108v12h36v297l-109 -309h-17z" />
    <glyph glyph-name="acute" unicode="&#xb4;" horiz-adv-x="232" 
d="M435 549c-53 -46 -130 -87 -186 -103l-1 9c52 17 126 65 171 111c13 13 16 20 29 20c4 0 8 -2 8 -6c0 -8 -7 -19 -21 -31z" />
    <glyph glyph-name="dieresis" unicode="&#xa8;" horiz-adv-x="493" 
d="M352 535c10 0 14 -10 14 -19c0 -19 -19 -41 -35 -41c-9 0 -15 5 -15 17c0 22 20 43 36 43zM471 535c10 0 14 -10 14 -19c0 -19 -19 -41 -35 -41c-9 0 -15 5 -15 17c0 22 20 43 36 43z" />
    <glyph glyph-name="notequal" unicode="&#x2260;" horiz-adv-x="478" 
d="M207 123l-113 -101h-18l113 101h-134l7 18h147l75 67h-199l7 18h212l101 90h18l-101 -90h105l-7 -18h-118l-75 -67h170l-7 -18h-183z" />
    <glyph glyph-name="AE" unicode="&#xc6;" horiz-adv-x="1303" 
d="M652 357c32 42 52 87 52 128c0 54 -29 99 -122 110c-26 -35 -40 -72 -40 -109c0 -47 23 -75 48 -96c18 -15 39 -26 62 -33zM1118 401c-5 10 -9 20 -11 31c-58 -31 -120 -56 -187 -73c-190 -222 -377 -406 -703 -406c-154 0 -219 82 -219 187c0 242 303 464 537 464
c15 0 29 -1 41 -2c72 94 235 160 438 160c87 0 164 -12 231 -33c61 55 133 91 158 91c24 0 38 -13 38 -35c0 -33 -20 -76 -54 -123c56 -36 96 -80 119 -126c0 -5 -1 -7 -3 -7c-1 0 -3 1 -4 5c-24 48 -65 89 -116 123c-55 -72 -146 -152 -257 -214c0 -14 2 -28 6 -39
c23 5 45 8 66 8c43 0 63 -19 63 -37c0 -17 -17 -33 -54 -33c-35 0 -64 19 -82 47c-77 -28 -150 -97 -201 -184c-26 -44 -41 -98 -41 -135c0 -54 23 -93 98 -93c117 0 224 73 320 173l7 -7c-96 -102 -208 -176 -326 -176c-103 0 -149 53 -149 132c0 156 153 267 285 302z
M1380 667c35 47 53 89 53 118c0 17 -5 25 -25 25c-22 0 -73 -37 -127 -93c36 -14 69 -31 99 -50zM1137 393c13 -27 38 -42 70 -42c29 0 43 11 43 24s-18 28 -52 28c-20 0 -41 -4 -61 -10zM1126 451c20 11 39 23 59 37c87 59 150 119 191 173c-28 18 -72 39 -102 49
c-19 -20 -38 -42 -57 -66c-70 -89 -89 -151 -91 -193zM1106 439c-1 8 -2 15 -2 22c0 68 25 129 62 181c-85 -90 -162 -184 -238 -274c60 16 119 39 178 71zM1237 723c-75 22 -153 30 -223 30c-129 0 -244 -27 -332 -76c-40 -22 -72 -48 -95 -76c94 -12 126 -57 126 -121
c0 -40 -17 -84 -46 -128c24 -6 49 -9 71 -9c45 0 92 4 138 13c118 118 233 246 361 367zM866 346c-45 -9 -88 -13 -130 -13c-24 0 -49 3 -74 10c-79 -113 -238 -219 -391 -219c-52 0 -78 32 -78 75c0 61 52 146 154 198l5 -8c-99 -49 -150 -131 -150 -189
c0 -38 23 -66 69 -66c113 0 284 101 375 215c-63 23 -114 70 -114 137c0 39 13 76 39 110c-11 0 -22 1 -35 1c-224 0 -527 -222 -527 -451c0 -94 60 -164 192 -164c259 0 464 164 665 364z" />
    <glyph glyph-name="Oslash" unicode="&#xd8;" horiz-adv-x="987" 
d="M1018 781c-3 -34 -22 -76 -54 -124c13 -25 20 -58 20 -98c0 -338 -382 -599 -625 -599c-75 0 -137 25 -170 80l-146 -130l-12 6l152 135c-14 26 -21 59 -21 99c0 406 519 725 749 725c64 0 106 -24 108 -78l133 119l11 -6zM929 701c12 -9 22 -21 31 -35
c26 40 43 76 48 106zM919 708l90 80c0 52 -33 75 -85 75c-207 0 -723 -367 -723 -734c0 -20 3 -39 7 -55l177 158c-6 16 -9 35 -9 59c0 222 265 440 446 440c38 0 71 -7 97 -23zM922 695l-130 -116c35 -8 57 -33 57 -82c0 -145 -230 -327 -369 -327c-40 0 -72 16 -90 50
l-177 -159c24 -60 81 -88 156 -88c228 0 605 254 605 586c0 35 -5 65 -15 89c-14 -20 -33 -46 -56 -73l-7 6c21 27 41 52 58 76c-8 16 -19 28 -32 38zM912 702c-24 14 -54 20 -90 20c-176 0 -427 -285 -427 -452c0 -10 1 -19 2 -28l372 332h-4c-47 0 -92 -24 -128 -60
c-2 -2 -4 -3 -6 -3s-3 1 -3 3s1 4 3 6c38 36 86 62 133 62c4 0 8 0 12 -1zM785 572l-384 -342c11 -35 40 -50 78 -50c130 0 363 176 363 317c0 44 -21 69 -57 75z" />
    <glyph glyph-name="infinity" unicode="&#x221e;" horiz-adv-x="478" 
d="M325 307c55 59 131 102 184 102c62 0 67 -56 10 -130s-148 -130 -210 -130c-52 0 -64 41 -30 99c-51 -53 -116 -89 -163 -89c-56 0 -59 51 -6 120s135 120 191 120c48 0 56 -38 24 -92zM307 279c-49 -64 -35 -87 35 -87c71 0 118 23 167 87s38 87 -33 87
c-70 0 -120 -23 -169 -87zM120 279c-46 -60 -36 -78 28 -78c63 0 104 18 150 78s33 78 -30 78c-64 0 -102 -18 -148 -78z" />
    <glyph glyph-name="plusminus" unicode="&#xb1;" horiz-adv-x="478" 
d="M346 211l-131 -170h-28l131 170h-170l21 28h170l131 170h28l-131 -170h170l-21 -28h-170zM7 28h368l-22 -28h-368z" />
    <glyph glyph-name="lessequal" unicode="&#x2264;" horiz-adv-x="478" 
d="M27 28h368l-22 -28h-368zM267 219c59 -27 118 -80 118 -120l-11 -3c-6 24 -80 83 -166 100c-8 2 -11 9 -11 14c0 8 16 25 55 30c88 10 269 71 319 115l4 -3c-54 -55 -207 -115 -308 -133z" />
    <glyph glyph-name="greaterequal" unicode="&#x2265;" horiz-adv-x="478" 
d="M345 28l-22 -28h-368l22 28h368zM392 218c-59 27 -117 80 -117 120l11 3c5 -24 79 -83 166 -100c8 -2 11 -9 11 -14c0 -8 -17 -25 -56 -30c-87 -10 -268 -71 -318 -115l-4 3c54 55 206 115 307 133z" />
    <glyph glyph-name="yen" unicode="&#xa5;" horiz-adv-x="433" 
d="M294 271l-56 -78h95l-10 -13h-95l-122 -170h40l-7 -10h-120l7 10h40l122 170h-94l9 13h95l56 78h-94l8 12h99l69 260h-38l6 10h121l-7 -10h-46l-73 -254l238 206l15 48h-32l7 10h131l-6 -10h-22l-75 -48l-244 -212h86l-8 -12h-95z" />
    <glyph glyph-name="ct" horiz-adv-x="431" 
d="M236 149c46 48 224 208 272 275c-11 2 -23 3 -33 3c-27 0 -55 -10 -83 -44c-1 -2 -3 -2 -5 -2c-4 0 -7 2 -7 5c0 1 1 2 2 3c41 49 76 62 109 62c12 0 24 -2 35 -4l126 159h42l-133 -168c9 -2 18 -3 27 -3c19 0 36 6 53 28c2 2 4 3 5 3c4 0 5 -4 5 -11
c-27 -34 -52 -43 -78 -43c-10 0 -21 1 -30 4l-63 -81c-85 -109 -239 -294 -239 -326c0 -8 3 -12 11 -12c33 0 144 113 177 153l7 -7c-24 -28 -145 -159 -192 -159c-13 0 -20 10 -20 22c0 53 66 140 206 318l-2 2c-65 -65 -138 -135 -185 -184c-65 -67 -178 -155 -227 -155
c-25 0 -34 17 -34 31c0 53 38 123 106 202c0 0 0 1 -2 1c-27 -20 -67 -59 -82 -78l-7 7c26 32 154 145 232 185c18 9 33 14 43 14c16 0 24 -11 24 -30c0 -7 -1 -14 -3 -23c-6 -28 -26 -55 -53 -55c-13 0 -19 8 -19 18c0 18 20 44 55 44c6 6 9 13 9 20c0 9 -5 17 -16 17
c-8 0 -19 -5 -35 -16c-40 -29 -87 -92 -129 -143c-46 -57 -106 -143 -106 -167c0 -11 4 -17 15 -17c57 0 168 96 222 152z" />
    <glyph glyph-name="st" horiz-adv-x="392" 
d="M182 327c-61 -66 -135 -140 -178 -185l-7 7c39 40 58 59 117 119c40 41 67 70 87 92c26 28 43 52 54 52c5 0 8 -3 8 -8c0 -3 -1 -6 -5 -9c-29 -22 -55 -52 -69 -87c-15 -37 -1 -82 -24 -148c-38 -107 -136 -173 -180 -173c-27 0 -37 18 -37 39c0 31 22 69 52 69
c15 0 21 -8 21 -19c0 -14 -10 -26 -26 -26c-17 0 -32 -14 -32 -31c0 -11 7 -21 22 -21c44 0 118 79 153 199c18 60 30 98 48 127c0 5 -3 4 -4 3zM504 416l-63 -81c-85 -109 -239 -294 -239 -326c0 -8 3 -12 11 -12c33 0 144 113 177 153l7 -7c-24 -28 -145 -159 -192 -159
c-13 0 -20 10 -20 22c0 53 66 140 206 318l-2 2c-66 -66 -154 -150 -185 -184l-7 7c36 41 223 207 272 275c-11 2 -23 3 -33 3c-27 0 -55 -10 -83 -44c-1 -2 -3 -2 -5 -2c-4 0 -7 2 -7 5c0 1 1 2 2 3c41 49 76 62 109 62c12 0 24 -2 35 -4l126 159h42l-133 -168
c9 -2 18 -3 27 -3c19 0 36 6 53 28c2 2 4 3 5 3c4 0 5 -4 5 -11c-27 -34 -52 -43 -78 -43c-10 0 -21 1 -30 4z" />
    <glyph glyph-name="ordfeminine" unicode="&#xaa;" horiz-adv-x="427" 
d="M425 478c-52 -59 -138 -148 -165 -148c-11 0 -16 7 -16 22c0 37 21 93 70 142c1 1 -1 3 -2 2c-15 -12 -43 -39 -59 -58l-5 5c21 25 80 81 160 113c32 13 64 19 93 19c9 0 18 -1 27 -2c-60 -75 -167 -203 -167 -226c0 -5 2 -8 7 -8c23 0 101 77 124 105l5 -5
c-17 -20 -101 -109 -134 -109c-9 0 -14 7 -14 15c0 23 17 53 77 131zM494 569c-72 0 -133 -57 -172 -104c-37 -45 -67 -92 -67 -118c0 -5 2 -8 7 -8c37 0 201 191 232 230z" />
    <glyph glyph-name="ordmasculine" unicode="&#xba;" horiz-adv-x="427" 
d="M434 436c-50 -60 -108 -113 -138 -113c-18 0 -26 12 -26 31c0 28 22 79 69 127c0 0 1 1 -1 1c-16 -11 -36 -28 -56 -51l-5 5c23 26 156 140 200 140c13 0 20 -8 20 -21c0 -23 -18 -65 -55 -109c-2 -3 -3 -6 -3 -13s3 -11 9 -11s14 4 23 15l5 -5c-11 -12 -21 -17 -28 -17
c-8 0 -15 6 -15 16c0 3 0 4 1 5zM298 331c15 0 51 14 136 117c3 28 18 53 28 53c3 0 5 -2 6 -4c13 23 21 44 21 56c0 10 -4 15 -12 15c-33 0 -87 -62 -126 -110c-37 -45 -64 -94 -64 -116c0 -7 3 -11 11 -11z" />
    <glyph glyph-name="oslash" unicode="&#xf8;" horiz-adv-x="276" 
d="M-9 7l-187 -167l-7 11l191 170c-1 3 -1 7 -1 10c0 40 32 113 96 179c1 0 1 2 -2 2c-20 -14 -51 -38 -77 -70l-7 7c27 31 72 68 132 112c34 25 104 88 154 88c20 0 29 -11 29 -30c0 -3 0 -7 -1 -10l151 135l7 -10l-163 -146c-10 -34 -35 -78 -73 -125c-3 -4 -5 -9 -5 -19
c0 -9 5 -16 14 -16c8 0 19 6 32 22l7 -7c-16 -18 -29 -25 -39 -25c-12 0 -22 9 -22 23c0 4 0 6 1 8c-71 -86 -154 -162 -197 -162c-17 0 -28 8 -33 20zM20 50l277 247c1 7 2 12 2 17c0 14 -7 21 -18 21c-51 0 -122 -87 -178 -155c-38 -46 -69 -95 -83 -130zM13 27
c-1 -4 -1 -8 -1 -11c0 -11 4 -16 15 -16c41 0 119 76 181 149c41 49 68 93 81 124z" />
    <glyph glyph-name="questiondown" unicode="&#xbf;" horiz-adv-x="380" 
d="M592 630c-16 0 -29 13 -29 29s13 29 29 29s29 -13 29 -29s-13 -29 -29 -29zM179 186c46 45 101 78 135 78c22 0 36 -13 36 -44c0 -114 -145 -230 -257 -230c-46 0 -67 28 -67 71c0 38 16 88 63 139c46 50 143 106 281 180c125 67 162 117 162 145c0 11 -6 18 -15 18
s-17 -3 -22 -6c-31 -23 -25 -51 -47 -51c-8 0 -11 6 -11 13c0 25 38 54 77 54c16 0 28 -10 28 -28c0 -32 -38 -87 -164 -156c-224 -123 -331 -257 -331 -326c0 -25 12 -43 46 -43c107 0 247 111 247 220c0 21 -8 35 -27 35c-33 0 -92 -41 -129 -78z" />
    <glyph glyph-name="exclamdown" unicode="&#xa1;" horiz-adv-x="307" 
d="M490 574c4 7 17 -1 13 -6c-127 -164 -327 -425 -425 -566c-14 0 -29 -3 -44 -12c2 13 -2 30 -9 36c120 131 336 380 465 548zM558 650c-16 0 -29 13 -29 29s13 29 29 29s29 -13 29 -29s-13 -29 -29 -29z" />
    <glyph glyph-name="guillemotleft" unicode="&#xab;" horiz-adv-x="636" 
d="M332 169c60 -27 118 -80 118 -120l-11 -3c-5 24 -80 83 -166 100c-8 2 -11 9 -11 14c0 8 16 25 56 30c87 10 268 71 318 115l4 -3c-54 -55 -206 -115 -308 -133zM149 169c59 -27 117 -80 117 -120l-11 -3c-5 24 -79 83 -166 100c-8 2 -10 9 -10 14c0 8 16 25 55 30
c88 10 269 71 319 115l4 -3c-54 -55 -207 -115 -308 -133z" />
    <glyph glyph-name="guillemotright" unicode="&#xbb;" horiz-adv-x="636" 
d="M354 182c-59 27 -117 80 -117 120l11 3c5 -24 79 -83 166 -100c8 -2 11 -9 11 -14c0 -8 -17 -25 -56 -30c-87 -10 -268 -71 -318 -115l-4 3c54 55 206 115 307 133zM538 182c-59 27 -117 80 -117 120l10 3c6 -24 80 -83 166 -100c9 -2 11 -9 11 -14c0 -8 -16 -25 -55 -30
c-88 -10 -269 -71 -319 -115l-4 3c54 55 207 115 308 133z" />
    <glyph glyph-name="ellipsis" unicode="&#x2026;" horiz-adv-x="544" 
d="M54 48c16 0 29 -13 29 -29s-13 -29 -29 -29s-29 13 -29 29s13 29 29 29zM236 48c16 0 29 -13 29 -29s-13 -29 -29 -29s-29 13 -29 29s13 29 29 29zM418 48c16 0 29 -13 29 -29s-13 -29 -29 -29s-29 13 -29 29s13 29 29 29z" />
    <glyph glyph-name="nbspace" horiz-adv-x="208" 
 />
    <glyph glyph-name="Agrave" unicode="&#xc0;" horiz-adv-x="1010" 
d="M988 326c-110 -199 -213 -383 -374 -475c-4 0 -5 1 -5 2s1 3 3 5c149 111 244 277 355 469c-32 2 -66 10 -102 20c-187 -216 -374 -393 -683 -393c-167 0 -232 83 -232 188c0 238 292 463 549 463c122 0 167 -48 167 -123c0 -18 -4 -39 -10 -58c64 -15 126 -36 188 -53
c144 146 290 313 455 448c3 2 5 3 8 3c4 0 7 -2 7 -6c0 -3 -2 -6 -7 -10c-127 -139 -220 -303 -308 -461c68 1 115 15 157 49c1 1 3 2 4 2c2 0 4 -2 4 -4s-1 -3 -3 -4c-48 -44 -117 -61 -173 -62zM978 346c77 132 162 276 282 422c2 2 2 3 2 4s0 1 -1 1s-2 0 -4 -2
c-146 -128 -262 -274 -379 -409c33 -8 66 -14 100 -16zM831 358c-55 18 -115 40 -180 56c-51 -136 -245 -290 -409 -290c-71 0 -97 32 -97 75c0 94 122 243 359 243c48 0 95 -6 140 -16c8 20 12 40 12 59c0 62 -39 110 -157 110c-254 0 -538 -222 -538 -447
c0 -94 60 -164 213 -164c240 0 449 166 657 374zM640 417c-43 9 -88 16 -135 16c-232 0 -351 -144 -351 -233c0 -38 23 -66 88 -66c117 0 336 146 398 283zM1250 1002c0 16 9 26 18 26c8 0 16 -7 16 -25c0 -49 38 -116 70 -153l-9 -4c-38 39 -95 102 -95 156z" />
    <glyph glyph-name="Atilde" unicode="&#xc3;" horiz-adv-x="1010" 
d="M988 326c-110 -199 -213 -383 -374 -475c-4 0 -5 1 -5 2s1 3 3 5c149 111 244 277 355 469c-32 2 -66 10 -102 20c-187 -216 -374 -394 -696 -394c-154 0 -219 82 -219 187c0 238 292 465 549 465c122 0 167 -48 167 -123c0 -18 -4 -39 -10 -58c64 -15 126 -36 188 -53
c144 146 290 313 455 448c3 2 5 3 8 3c4 0 7 -2 7 -6c0 -3 -2 -6 -7 -10c-127 -139 -220 -303 -308 -461c68 1 115 15 157 49c1 1 3 2 4 2c2 0 4 -2 4 -4s-1 -3 -3 -4c-48 -44 -117 -61 -173 -62zM978 346c77 132 162 276 282 422c2 2 2 3 2 4s0 1 -1 1s-2 0 -4 -2
c-146 -128 -262 -274 -379 -409c33 -8 66 -14 100 -16zM831 358c-55 18 -115 40 -180 56c-51 -136 -245 -290 -409 -290c-71 0 -97 32 -97 75c0 94 122 243 359 243c48 0 95 -6 140 -16c8 20 12 40 12 59c0 62 -39 110 -157 110c-254 0 -538 -224 -538 -449
c0 -94 60 -164 192 -164c261 0 470 168 678 376zM640 417c-43 9 -88 16 -135 16c-232 0 -351 -144 -351 -233c0 -38 23 -66 88 -66c117 0 336 146 398 283zM1194 829c35 36 63 48 88 48c48 0 81 -48 125 -48c19 0 41 9 67 37l4 -4c-34 -41 -59 -55 -84 -55
c-48 0 -84 50 -129 50c-19 0 -42 -8 -65 -32z" />
    <glyph glyph-name="Otilde" unicode="&#xd5;" horiz-adv-x="932" 
d="M196 58c-22 -5 -42 -7 -60 -7c-66 0 -123 21 -146 79c0 8 2 12 4 12c1 0 2 -1 3 -4c19 -53 69 -78 138 -78c18 0 37 2 57 7c-9 23 -14 51 -14 83c0 172 94 328 219 451c170 167 399 273 531 273c67 0 104 -31 104 -84c0 -35 -16 -80 -52 -133c13 -25 20 -58 20 -98
c0 -338 -382 -599 -625 -599c-84 0 -149 30 -179 98zM224 75c66 20 141 58 215 103c-29 19 -47 51 -47 100c0 222 265 453 446 453c63 0 111 -20 138 -65c32 49 47 91 47 124c0 47 -30 74 -83 74c-208 0 -723 -367 -723 -735c0 -20 2 -38 7 -54zM227 66
c22 -64 82 -93 158 -93c228 0 605 254 605 586c0 36 -5 65 -16 89c-105 -152 -319 -346 -516 -469c16 -6 32 -9 51 -9c59 0 135 32 193 92c2 2 4 3 5 3c3 0 4 -3 4 -7c-61 -62 -140 -97 -204 -97c-22 0 -41 4 -58 12c-81 -50 -157 -88 -222 -107zM449 184
c206 130 422 327 521 473c-24 46 -70 65 -132 65c-176 0 -427 -298 -427 -465c0 -35 15 -59 38 -73zM856 929c35 36 63 48 88 48c48 0 81 -48 125 -48c19 0 41 9 67 37l4 -4c-34 -41 -59 -55 -84 -55c-48 0 -84 50 -129 50c-19 0 -42 -8 -65 -32z" />
    <glyph glyph-name="OE" unicode="&#x152;" horiz-adv-x="1073" 
d="M911 393c10 -19 25 -32 44 -38c11 20 17 34 21 48h-4c-20 0 -41 -3 -61 -10zM878 469c3 81 42 152 91 210c-26 30 -64 41 -115 41c-155 0 -370 -219 -419 -386c142 4 304 60 443 135zM905 484c35 20 69 41 99 62v13c0 34 -5 62 -14 84c-53 -68 -76 -119 -85 -159z
M903 472c-3 -12 -3 -21 -3 -29c0 -14 2 -28 6 -39c23 5 45 8 66 8h7c17 52 23 93 25 125c-34 -24 -71 -47 -101 -65zM878 459c-135 -73 -294 -130 -445 -134c-5 -19 -8 -38 -8 -55c0 -55 33 -78 82 -78c40 0 90 15 140 41c40 63 107 113 177 144c5 2 9 3 13 5
c18 8 37 14 55 19c-9 18 -14 38 -14 58zM899 389c-77 -28 -150 -97 -201 -184c-26 -44 -41 -98 -41 -135c0 -6 0 -12 1 -18c129 72 250 188 293 295c-21 7 -39 23 -52 42zM965 352c5 -1 10 -1 16 -1c29 0 43 11 43 24c0 11 -12 24 -38 27c-5 -16 -11 -32 -21 -50zM1154 667
c-33 -38 -87 -83 -141 -123c-1 -33 -5 -73 -24 -133c32 -4 46 -20 46 -36c0 -17 -17 -33 -54 -33c-7 0 -14 1 -20 2c-48 -112 -169 -228 -301 -303c8 -38 34 -64 95 -64c117 0 224 73 320 173l7 -7c-96 -102 -208 -176 -326 -176c-65 0 -108 21 -130 57
c-79 -41 -164 -64 -237 -64c-114 0 -197 57 -197 190c0 78 20 155 56 227c-22 20 -35 47 -35 81c0 135 182 257 427 292c105 54 210 86 289 86c70 0 117 -26 120 -83c56 43 110 67 133 67s34 -10 34 -35c0 -33 -23 -73 -62 -118zM1148 670c38 42 59 82 59 115
c0 17 -5 25 -25 25c-22 0 -79 -42 -134 -100c-17 -18 -34 -38 -51 -59c11 -24 17 -55 17 -92v-7c53 37 101 81 134 118zM621 33c-10 19 -14 41 -14 66c0 44 12 85 33 121c-47 -22 -93 -36 -133 -36c-59 0 -101 31 -101 107c0 11 1 23 2 34c-41 1 -83 9 -118 24
c-38 -70 -59 -145 -59 -220c0 -108 70 -156 168 -156c67 0 145 22 222 60zM253 385c75 150 218 273 365 353c-227 -40 -395 -158 -395 -280c0 -29 11 -54 30 -73zM1039 746c-2 53 -39 77 -96 77s-133 -23 -212 -63c18 0 37 1 57 1c26 0 55 -1 79 -3l-1 -8c-27 2 -53 3 -78 3
s-51 -1 -76 -3c-158 -82 -329 -226 -418 -392c31 -15 70 -23 115 -24c31 206 275 395 445 395c52 0 93 -12 121 -43c16 20 45 44 64 60z" />
    <glyph glyph-name="oe" unicode="&#x153;" horiz-adv-x="417" 
d="M293 254c52 44 117 95 150 95c12 0 20 -8 20 -21c0 -39 -62 -128 -236 -219c-28 -40 -51 -80 -51 -95c0 -11 4 -17 15 -17c54 0 170 91 224 154l7 -7c-63 -73 -180 -157 -229 -157c-25 0 -34 17 -34 31c0 24 10 58 25 88c-61 -67 -124 -119 -160 -119
c-25 0 -37 17 -37 44c0 40 32 113 99 182c1 0 1 2 -2 2c-23 -17 -51 -40 -80 -73l-7 7c33 37 223 200 286 200c19 0 29 -12 29 -30c0 -16 -6 -39 -19 -65zM441 339c-40 0 -103 -90 -159 -158c-14 -18 -29 -37 -44 -57c147 82 213 174 213 204c0 7 -4 11 -10 11zM27 -1
c41 0 119 77 181 150c64 76 92 138 92 167c0 14 -6 21 -17 21c-47 0 -124 -89 -180 -157c-53 -64 -92 -134 -92 -165c0 -11 5 -16 16 -16z" />
    <glyph glyph-name="endash" unicode="&#x2013;" horiz-adv-x="453" 
d="M72 183h335l-7 -18h-335z" />
    <glyph glyph-name="quotedblleft" unicode="&#x201c;" horiz-adv-x="342" 
d="M426 620c5 3 10 4 15 4c16 0 28 -11 28 -29c0 -16 -13 -29 -29 -29c-25 0 -29 23 -29 38c0 63 63 110 123 110v-9c-56 0 -103 -47 -108 -85zM322 620c5 3 10 4 15 4c16 0 28 -11 28 -29c0 -16 -13 -29 -29 -29c-25 0 -29 23 -29 38c0 63 63 110 123 110v-9
c-56 0 -103 -47 -108 -85z" />
    <glyph glyph-name="quotedblright" unicode="&#x201d;" horiz-adv-x="342" 
d="M468 664c-5 -3 -10 -4 -15 -4c-16 0 -28 11 -28 29c0 16 13 29 29 29c25 0 29 -23 29 -38c0 -63 -63 -110 -123 -110v9c56 0 103 47 108 85zM572 664c-5 -3 -10 -4 -15 -4c-16 0 -28 11 -28 29c0 16 13 29 29 29c25 0 29 -23 29 -38c0 -63 -63 -110 -123 -110v9
c56 0 103 47 108 85z" />
    <glyph glyph-name="quoteleft" unicode="&#x2018;" horiz-adv-x="342" 
d="M387 620c5 3 10 4 15 4c16 0 28 -11 28 -29c0 -16 -13 -29 -29 -29c-25 0 -29 23 -29 38c0 63 63 110 123 110v-9c-56 0 -103 -47 -108 -85z" />
    <glyph glyph-name="quoteright" unicode="&#x2019;" horiz-adv-x="342" 
d="M468 664c-5 -3 -10 -4 -15 -4c-16 0 -28 11 -28 29c0 16 13 29 29 29c25 0 29 -23 29 -38c0 -63 -63 -110 -123 -110v9c56 0 103 47 108 85z" />
    <glyph glyph-name="divide" unicode="&#xf7;" horiz-adv-x="468" 
d="M74 193h368l-22 -28h-368zM362 328c22 0 26 -17 9 -39s-47 -39 -69 -39s-26 17 -9 39s47 39 69 39zM192 108c22 0 26 -17 9 -39s-47 -39 -69 -39s-26 17 -9 39s47 39 69 39z" />
    <glyph glyph-name="ae" unicode="&#xe6;" horiz-adv-x="410" 
d="M396 335c16 9 30 14 40 14c12 0 20 -8 20 -21c0 -39 -62 -128 -236 -219c-28 -40 -51 -80 -51 -95c0 -11 4 -17 15 -17c54 0 170 91 224 154l7 -7c-63 -73 -180 -157 -229 -157c-25 0 -34 17 -34 31c0 28 37 103 100 178l-2 2c-74 -84 -197 -211 -236 -211
c-15 0 -23 10 -23 32c0 53 30 132 100 203c2 1 -1 3 -2 2c-22 -17 -62 -55 -85 -82l-7 7c30 35 114 115 229 161c45 18 91 27 132 27c13 0 26 -1 38 -2zM349 328c-103 0 -191 -81 -246 -148c-53 -64 -96 -132 -96 -168c0 -8 3 -12 10 -12c53 0 287 273 332 328zM434 339
c-40 0 -103 -90 -159 -158c-14 -18 -29 -37 -44 -57c147 82 213 174 213 204c0 7 -4 11 -10 11z" />
    <glyph glyph-name="ydieresis" unicode="&#xff;" horiz-adv-x="347" 
d="M345 150l7 -7c-109 -110 -235 -182 -252 -204c-48 -60 -316 -426 -383 -426c-13 0 -18 7 -18 20c0 71 163 257 386 413c76 104 169 223 186 253l-2 2c-114 -127 -197 -214 -234 -214c-12 0 -21 10 -21 31c0 101 208 261 208 308c0 9 -3 13 -9 13
c-38 0 -135 -117 -209 -197l-7 7c69 76 174 200 217 200c12 0 23 -8 23 -29c0 -96 -207 -255 -207 -311c0 -9 3 -11 9 -11c41 0 220 201 332 337h51c-82 -103 -229 -283 -283 -351c-2 -3 0 -4 2 -2c59 42 123 88 204 168zM52 -89c-235 -176 -341 -320 -341 -373
c0 -8 3 -12 10 -12c41 0 189 197 333 383c1 1 0 3 -2 2zM352 535c10 0 14 -10 14 -19c0 -19 -19 -41 -35 -41c-9 0 -15 5 -15 17c0 22 20 43 36 43zM471 535c10 0 14 -10 14 -19c0 -19 -19 -41 -35 -41c-9 0 -15 5 -15 17c0 22 20 43 36 43z" />
    <glyph glyph-name="Ydieresis" unicode="&#x178;" horiz-adv-x="1044" 
d="M972 269c14 -36 21 -72 21 -109c0 -70 -25 -146 -81 -222c-1 -4 -4 -5 -6 -5c-3 0 -5 3 -5 8c55 75 80 149 80 218c0 35 -6 67 -18 97c-175 -271 -412 -550 -837 -550c-225 0 -326 116 -326 261c0 169 139 377 382 480c87 37 187 61 301 65c119 174 307 326 460 326
c45 0 68 -21 68 -63c0 -94 -108 -217 -219 -324c33 -16 62 -36 87 -58c146 117 293 256 320 281c93 86 152 125 214 125c11 0 16 -5 16 -10s-6 -11 -20 -11c-158 0 -270 -249 -437 -509zM949 311c85 120 166 239 250 342c2 2 2 3 2 4c0 2 -1 2 -6 2
c-59 -57 -183 -174 -307 -274c24 -23 45 -48 61 -74zM942 301c-16 28 -37 55 -62 78c-118 -95 -235 -174 -299 -174c-14 0 -28 8 -28 33c0 39 83 131 173 229c-64 23 -136 35 -214 35h-26c-69 -101 -116 -213 -116 -311c0 -103 48 -183 145 -222c3 0 5 -2 5 -4
c0 -3 -3 -5 -9 -5c-106 42 -150 128 -150 230c0 94 45 207 115 311c-108 -4 -204 -27 -288 -62c-240 -101 -375 -306 -375 -471c0 -137 94 -247 299 -247c386 0 618 285 830 580zM871 386c-26 22 -55 41 -87 56c-103 -99 -216 -190 -216 -214c0 -9 5 -13 13 -13
c56 0 171 77 290 171zM734 475c120 128 253 264 253 312c0 23 -11 40 -43 40c-142 0 -328 -142 -451 -315h19c83 0 158 -13 222 -37zM1145 876c14 0 20 -9 20 -17c0 -17 -27 -38 -49 -38c-13 0 -21 5 -21 16c0 20 28 39 50 39zM1312 876c14 0 20 -9 20 -17
c0 -17 -27 -38 -49 -38c-13 0 -21 5 -21 16c0 20 28 39 50 39z" />
    <glyph glyph-name="currency" unicode="&#xa4;" horiz-adv-x="401" 
d="M74 -13c-29 0 -38 13 -40 35l-67 -64l-14 10l80 76c2 117 109 274 225 373l8 94l20 18l-7 -94c60 47 121 77 170 77c25 0 38 -13 40 -35l51 48l12 -12l-63 -60c-9 -118 -123 -275 -237 -373l-7 -106l-26 -22l9 108c-57 -45 -113 -73 -154 -73zM74 -3
c126 0 406 303 406 475c0 20 -10 30 -26 30c-74 0 -197 -137 -278 -235c-77 -93 -127 -200 -127 -242c0 -19 9 -28 25 -28z" />
    <glyph glyph-name="guilsinglleft" unicode="&#x2039;" horiz-adv-x="493" 
d="M188 168c59 -27 118 -80 118 -120l-11 -3c-6 24 -80 83 -166 100c-8 2 -11 9 -11 14c0 8 16 25 55 30c88 10 269 71 319 115l4 -3c-54 -55 -207 -115 -308 -133z" />
    <glyph glyph-name="guilsinglright" unicode="&#x203a;" horiz-adv-x="493" 
d="M379 182c-59 27 -117 80 -117 120l11 3c5 -24 79 -83 166 -100c8 -2 11 -9 11 -14c0 -8 -17 -25 -56 -30c-87 -10 -268 -71 -318 -115l-4 3c54 55 206 115 307 133z" />
    <glyph glyph-name="daggerdbl" unicode="&#x2021;" horiz-adv-x="405" 
d="M281 289c61 0 124 11 132 11c21 0 23 -11 13 -23c-8 -11 -27 -23 -48 -23c-8 0 -52 12 -115 12c-104 -133 -205 -260 -271 -343h-8c62 82 156 209 257 343c-62 0 -124 -12 -132 -12c-21 0 -22 12 -14 23c10 12 28 23 49 23c8 0 55 -11 115 -11c49 65 99 131 147 194
c-62 0 -123 -11 -131 -11c-21 0 -22 12 -14 23c10 12 28 23 49 23c8 0 56 -10 116 -10c82 107 91 134 109 158c17 22 38 32 50 32c13 0 17 -10 0 -32c-20 -26 -51 -51 -133 -158c61 0 123 10 131 10c21 0 23 -11 13 -23c-8 -11 -27 -23 -48 -23c-8 0 -53 11 -116 11
c-48 -62 -99 -128 -151 -194z" />
    <glyph glyph-name="periodcentered" unicode="&#xb7;" horiz-adv-x="179" 
d="M387 609c11 0 15 -10 15 -20c0 -20 -20 -44 -37 -44c-10 0 -16 6 -16 18c0 24 21 46 38 46z" />
    <glyph glyph-name="quotesinglbase" unicode="&#x201a;" horiz-adv-x="182" 
d="M68 -6c-5 -3 -10 -4 -15 -4c-16 0 -28 11 -28 29c0 16 13 29 29 29c25 0 29 -23 29 -38c0 -63 -63 -110 -123 -110v9c56 0 103 47 108 85z" />
    <glyph glyph-name="quotedblbase" unicode="&#x201e;" horiz-adv-x="307" 
d="M68 -6c-5 -3 -10 -4 -15 -4c-16 0 -28 11 -28 29c0 16 13 29 29 29c25 0 29 -23 29 -38c0 -63 -63 -110 -123 -110v9c56 0 103 47 108 85zM172 -6c-5 -3 -10 -4 -15 -4c-16 0 -28 11 -28 29c0 16 13 29 29 29c25 0 29 -23 29 -38c0 -63 -63 -110 -123 -110v9
c56 0 103 47 108 85z" />
    <glyph glyph-name="perthousand" unicode="&#x2030;" horiz-adv-x="912" 
d="M705 655c-71 -41 -127 -55 -166 -55c-17 0 -31 2 -41 6c-47 -96 -182 -212 -260 -212c-28 0 -46 16 -46 45c0 123 175 271 278 271c35 0 47 -13 47 -42c0 -16 -5 -35 -15 -54c9 -2 21 -4 37 -4c56 0 123 26 204 79l167 149h35l-1120 -1000h-36zM504 686
c-5 9 -15 14 -34 14c-67 0 -266 -171 -266 -261c0 -25 15 -35 34 -35c73 0 202 115 250 205c-14 7 -22 18 -22 34c0 19 13 36 38 43zM532 312c35 0 47 -13 47 -42c0 -97 -183 -274 -279 -274c-28 0 -46 16 -46 45c0 123 175 271 278 271zM532 302c-67 0 -266 -171 -266 -261
c0 -25 15 -35 34 -35c91 0 269 178 269 264c0 21 -8 32 -37 32zM844 312c35 0 47 -13 47 -42c0 -97 -183 -274 -279 -274c-28 0 -46 16 -46 45c0 123 175 271 278 271zM844 302c-67 0 -266 -171 -266 -261c0 -25 15 -35 34 -35c91 0 269 178 269 264c0 21 -8 32 -37 32z" />
    <glyph glyph-name="Acircumflex" unicode="&#xc2;" horiz-adv-x="1010" 
d="M988 326c-110 -199 -213 -383 -374 -475c-4 0 -5 1 -5 2s1 3 3 5c149 111 244 277 355 469c-32 2 -66 10 -102 20c-187 -216 -374 -394 -696 -394c-154 0 -219 82 -219 187c0 238 292 465 549 465c122 0 167 -48 167 -123c0 -18 -4 -39 -10 -58c64 -15 126 -36 188 -53
c144 146 290 313 455 448c3 2 5 3 8 3c4 0 7 -2 7 -6c0 -3 -2 -6 -7 -10c-127 -139 -220 -303 -308 -461c68 1 115 15 157 49c1 1 3 2 4 2c2 0 4 -2 4 -4s-1 -3 -3 -4c-48 -44 -117 -61 -173 -62zM978 346c77 132 162 276 282 422c2 2 2 3 2 4s0 1 -1 1s-2 0 -4 -2
c-146 -128 -262 -274 -379 -409c33 -8 66 -14 100 -16zM831 358c-55 18 -115 40 -180 56c-51 -136 -245 -290 -409 -290c-71 0 -97 32 -97 75c0 94 122 243 359 243c48 0 95 -6 140 -16c8 20 12 40 12 59c0 62 -39 110 -157 110c-254 0 -538 -224 -538 -449
c0 -94 60 -164 192 -164c261 0 470 168 678 376zM640 417c-43 9 -88 16 -135 16c-232 0 -351 -144 -351 -233c0 -38 23 -66 88 -66c117 0 336 146 398 283zM1397 948c-47 -46 -133 -96 -176 -103l-1 9c47 12 128 65 173 111c13 13 14 20 27 20c4 0 8 -2 8 -6
c0 -2 0 -4 -4 -11c-4 -8 -15 -33 -22 -61c-5 -20 -7 -34 -7 -44c0 -5 1 -9 2 -11l-7 -7c-4 7 -7 20 -7 36c0 19 4 43 14 67z" />
    <glyph glyph-name="Ecircumflex" unicode="&#xca;" horiz-adv-x="671" 
d="M861 948c-47 -46 -133 -96 -176 -103l-1 9c47 12 128 65 173 111c13 13 14 20 27 20c4 0 8 -2 8 -6c0 -2 0 -4 -4 -11c-4 -8 -15 -33 -22 -61c-5 -20 -7 -34 -7 -44c0 -5 1 -9 2 -11l-7 -7c-4 7 -7 20 -7 36c0 19 4 43 14 67zM493 389c-105 -39 -242 -187 -242 -319
c0 -54 23 -93 98 -93c117 0 224 73 320 173l7 -7c-96 -102 -208 -176 -326 -176c-103 0 -149 53 -149 132c0 167 181 280 286 301c-5 10 -9 21 -12 33c-111 -60 -240 -100 -371 -100c-97 0 -204 56 -204 153c0 152 204 276 482 276c87 0 164 -12 231 -33
c65 58 134 91 158 91s38 -13 38 -35c0 -33 -19 -76 -54 -122c56 -37 96 -81 119 -127c0 -5 -1 -7 -3 -7c-1 0 -3 1 -4 5c-24 48 -66 89 -117 122c-56 -72 -147 -152 -256 -213c0 -14 2 -26 6 -39c34 7 51 8 66 8c43 0 63 -19 63 -37c0 -17 -17 -33 -54 -33
c-35 0 -64 19 -82 47zM505 393c13 -27 38 -42 70 -42c29 0 43 11 43 24s-18 28 -52 28c-20 0 -41 -3 -61 -10zM474 439c-1 7 -2 14 -2 22c0 111 68 204 133 262c-75 22 -153 30 -223 30c-277 0 -472 -127 -472 -267c0 -81 83 -143 196 -143c123 0 248 31 368 96zM494 451
c95 56 192 133 250 210c-22 14 -47 26 -71 37c-10 5 -21 9 -31 12c-49 -53 -144 -169 -148 -259zM749 667c35 48 52 90 52 118c0 17 -5 25 -25 25c-22 0 -73 -37 -127 -93c37 -15 70 -32 100 -50z" />
    <glyph glyph-name="Aacute" unicode="&#xc1;" horiz-adv-x="1010" 
d="M1465 939c-53 -46 -130 -87 -186 -103l-1 9c52 17 126 65 171 111c13 13 16 20 29 20c4 0 8 -2 8 -6c0 -8 -7 -19 -21 -31zM988 326c-110 -199 -213 -383 -374 -475c-4 0 -5 1 -5 2s1 3 3 5c149 111 244 277 355 469c-32 2 -66 10 -102 20c-187 -216 -374 -394 -696 -394
c-154 0 -219 82 -219 187c0 238 292 465 549 465c122 0 167 -48 167 -123c0 -18 -4 -39 -10 -58c64 -15 126 -36 188 -53c144 146 290 313 455 448c3 2 5 3 8 3c4 0 7 -2 7 -6c0 -3 -2 -6 -7 -10c-127 -139 -220 -303 -308 -461c68 1 115 15 157 49c1 1 3 2 4 2
c2 0 4 -2 4 -4s-1 -3 -3 -4c-48 -44 -117 -61 -173 -62zM978 346c77 132 162 276 282 422c2 2 2 3 2 4s0 1 -1 1s-2 0 -4 -2c-146 -128 -262 -274 -379 -409c33 -8 66 -14 100 -16zM831 358c-55 18 -115 40 -180 56c-51 -136 -245 -290 -409 -290c-71 0 -97 32 -97 75
c0 94 122 243 359 243c48 0 95 -6 140 -16c8 20 12 40 12 59c0 62 -39 110 -157 110c-254 0 -538 -224 -538 -449c0 -94 60 -164 192 -164c261 0 470 168 678 376zM640 417c-43 9 -88 16 -135 16c-232 0 -351 -144 -351 -233c0 -38 23 -66 88 -66c117 0 336 146 398 283z
" />
    <glyph glyph-name="Edieresis" unicode="&#xcb;" horiz-adv-x="671" 
d="M493 389c-105 -39 -242 -187 -242 -319c0 -54 23 -93 98 -93c117 0 224 73 320 173l7 -7c-96 -102 -208 -176 -326 -176c-103 0 -149 53 -149 132c0 167 181 280 286 301c-5 10 -9 21 -12 33c-111 -60 -240 -100 -371 -100c-97 0 -204 56 -204 153c0 152 204 276 482 276
c87 0 164 -12 231 -33c65 58 134 91 158 91s38 -13 38 -35c0 -33 -19 -76 -54 -122c56 -37 96 -81 119 -127c0 -5 -1 -7 -3 -7c-1 0 -3 1 -4 5c-24 48 -66 89 -117 122c-56 -72 -147 -152 -256 -213c0 -14 2 -26 6 -39c34 7 51 8 66 8c43 0 63 -19 63 -37
c0 -17 -17 -33 -54 -33c-35 0 -64 19 -82 47zM505 393c13 -27 38 -42 70 -42c29 0 43 11 43 24s-18 28 -52 28c-20 0 -41 -3 -61 -10zM474 439c-1 7 -2 14 -2 22c0 111 68 204 133 262c-75 22 -153 30 -223 30c-277 0 -472 -127 -472 -267c0 -81 83 -143 196 -143
c123 0 248 31 368 96zM494 451c95 56 192 133 250 210c-22 14 -47 26 -71 37c-10 5 -21 9 -31 12c-49 -53 -144 -169 -148 -259zM749 667c35 48 52 90 52 118c0 17 -5 25 -25 25c-22 0 -73 -37 -127 -93c37 -15 70 -32 100 -50zM779 964c14 0 20 -9 20 -17
c0 -17 -27 -38 -49 -38c-13 0 -21 5 -21 16c0 20 28 39 50 39zM946 964c14 0 20 -9 20 -17c0 -17 -27 -38 -49 -38c-13 0 -21 5 -21 16c0 20 28 39 50 39z" />
    <glyph glyph-name="Egrave" unicode="&#xc8;" horiz-adv-x="671" 
d="M493 389c-105 -39 -242 -187 -242 -319c0 -54 23 -93 98 -93c117 0 224 73 320 173l7 -7c-96 -102 -208 -176 -326 -176c-103 0 -149 53 -149 132c0 167 181 280 286 301c-5 10 -9 21 -12 33c-111 -60 -240 -100 -371 -100c-97 0 -204 56 -204 153c0 152 204 276 482 276
c87 0 164 -12 231 -33c65 58 134 91 158 91s38 -13 38 -35c0 -33 -19 -76 -54 -122c56 -37 96 -81 119 -127c0 -5 -1 -7 -3 -7c-1 0 -3 1 -4 5c-24 48 -66 89 -117 122c-56 -72 -147 -152 -256 -213c0 -14 2 -26 6 -39c34 7 51 8 66 8c43 0 63 -19 63 -37
c0 -17 -17 -33 -54 -33c-35 0 -64 19 -82 47zM505 393c13 -27 38 -42 70 -42c29 0 43 11 43 24s-18 28 -52 28c-20 0 -41 -3 -61 -10zM474 439c-1 7 -2 14 -2 22c0 111 68 204 133 262c-75 22 -153 30 -223 30c-277 0 -472 -127 -472 -267c0 -81 83 -143 196 -143
c123 0 248 31 368 96zM494 451c95 56 192 133 250 210c-22 14 -47 26 -71 37c-10 5 -21 9 -31 12c-49 -53 -144 -169 -148 -259zM749 667c35 48 52 90 52 118c0 17 -5 25 -25 25c-22 0 -73 -37 -127 -93c37 -15 70 -32 100 -50zM719 1002c0 16 9 26 18 26c8 0 16 -7 16 -25
c0 -49 38 -116 70 -153l-9 -4c-38 39 -95 102 -95 156z" />
    <glyph glyph-name="Iacute" unicode="&#xcd;" horiz-adv-x="842" 
d="M1157 987c-53 -46 -130 -87 -186 -103l-1 9c52 17 126 65 171 111c13 13 16 20 29 20c4 0 8 -2 8 -6c0 -8 -7 -19 -21 -31zM661 207c0 39 3 79 9 120c-115 83 -245 119 -372 119c-227 0 -353 -132 -353 -252c0 -101 88 -194 280 -194c163 0 297 71 436 207zM670 216
c19 20 38 41 59 63c-17 15 -33 29 -51 42c-5 -34 -8 -69 -8 -105zM672 135c4 -49 11 -93 23 -137c0 -5 -2 -8 -5 -8c-1 0 -2 1 -3 2c-12 44 -20 89 -23 136c-110 -92 -247 -156 -409 -156c-222 0 -324 106 -324 218c0 128 132 266 367 266c128 0 257 -34 373 -116
c27 189 112 359 221 458c44 40 110 79 153 79c26 0 44 -14 44 -50c0 -27 -11 -68 -36 -126c-57 -129 -145 -298 -276 -457c26 -28 51 -60 75 -96c0 -5 -1 -8 -4 -8c-1 0 -2 1 -3 2c-23 34 -47 66 -74 94c-30 -35 -63 -70 -99 -101zM736 287c142 160 239 306 298 423
c28 57 40 95 40 119c0 26 -13 36 -32 36c-38 0 -100 -38 -143 -77c-105 -97 -192 -264 -220 -455c18 -14 37 -29 57 -46z" />
    <glyph glyph-name="Icircumflex" unicode="&#xce;" horiz-adv-x="842" 
d="M661 207c0 39 3 79 9 120c-115 83 -245 119 -372 119c-227 0 -353 -132 -353 -252c0 -101 88 -194 280 -194c163 0 297 71 436 207zM670 216c19 20 38 41 59 63c-17 15 -33 29 -51 42c-5 -34 -8 -69 -8 -105zM672 135c4 -49 11 -93 23 -137c0 -5 -2 -8 -5 -8
c-1 0 -2 1 -3 2c-12 44 -20 89 -23 136c-110 -92 -247 -156 -409 -156c-222 0 -324 106 -324 218c0 128 132 266 367 266c128 0 257 -34 373 -116c27 189 112 359 221 458c44 40 110 79 153 79c26 0 44 -14 44 -50c0 -27 -11 -68 -36 -126c-57 -129 -145 -298 -276 -457
c26 -28 51 -60 75 -96c0 -5 -1 -8 -4 -8c-1 0 -2 1 -3 2c-23 34 -47 66 -74 94c-30 -35 -63 -70 -99 -101zM736 287c142 160 239 306 298 423c28 57 40 95 40 119c0 26 -13 36 -32 36c-38 0 -100 -38 -143 -77c-105 -97 -192 -264 -220 -455c18 -14 37 -29 57 -46zM1119 999
c-47 -46 -133 -96 -176 -103l-1 9c47 12 128 65 173 111c13 13 14 20 27 20c4 0 8 -2 8 -6c0 -2 0 -4 -4 -11c-4 -8 -15 -33 -22 -61c-5 -20 -7 -34 -7 -44c0 -5 1 -9 2 -11l-7 -7c-4 7 -7 20 -7 36c0 19 4 43 14 67z" />
    <glyph glyph-name="Idieresis" unicode="&#xcf;" horiz-adv-x="842" 
d="M661 207c0 39 3 79 9 120c-115 83 -245 119 -372 119c-227 0 -353 -132 -353 -252c0 -101 88 -194 280 -194c163 0 297 71 436 207zM670 216c19 20 38 41 59 63c-17 15 -33 29 -51 42c-5 -34 -8 -69 -8 -105zM672 135c4 -49 11 -93 23 -137c0 -5 -2 -8 -5 -8
c-1 0 -2 1 -3 2c-12 44 -20 89 -23 136c-110 -92 -247 -156 -409 -156c-222 0 -324 106 -324 218c0 128 132 266 367 266c128 0 257 -34 373 -116c27 189 112 359 221 458c44 40 110 79 153 79c26 0 44 -14 44 -50c0 -27 -11 -68 -36 -126c-57 -129 -145 -298 -276 -457
c26 -28 51 -60 75 -96c0 -5 -1 -8 -4 -8c-1 0 -2 1 -3 2c-23 34 -47 66 -74 94c-30 -35 -63 -70 -99 -101zM736 287c142 160 239 306 298 423c28 57 40 95 40 119c0 26 -13 36 -32 36c-38 0 -100 -38 -143 -77c-105 -97 -192 -264 -220 -455c18 -14 37 -29 57 -46zM983 964
c14 0 20 -9 20 -17c0 -17 -27 -38 -49 -38c-13 0 -21 5 -21 16c0 20 28 39 50 39zM1150 964c14 0 20 -9 20 -17c0 -17 -27 -38 -49 -38c-13 0 -21 5 -21 16c0 20 28 39 50 39z" />
    <glyph glyph-name="Igrave" unicode="&#xcc;" horiz-adv-x="835" 
d="M1061 859c-95 0 -233 -126 -293 -300c-19 -55 -29 -112 -29 -171c0 -29 2 -59 8 -89c217 253 334 462 334 534c0 17 -6 26 -20 26zM683 230c20 19 37 39 56 60c-7 34 -11 67 -11 100c0 256 205 482 333 482c25 0 36 -15 36 -41c0 -103 -169 -377 -305 -567
c-8 -11 -17 -23 -26 -34c15 -40 35 -79 63 -118c0 -5 -2 -8 -5 -8c-1 0 -2 1 -3 2c-25 38 -46 77 -62 115c-12 -14 -25 -27 -38 -41c25 -37 45 -76 65 -120c0 -4 -1 -5 -4 -5c-1 0 -3 1 -4 3c-18 40 -38 79 -64 115c-125 -126 -297 -201 -457 -201c-238 0 -357 112 -357 224
c0 109 115 218 345 218c190 0 335 -67 438 -184zM676 223c-28 33 -61 63 -100 89c-81 56 -191 92 -331 92c-218 0 -335 -104 -335 -201c0 -126 138 -203 315 -203c168 0 318 89 451 223zM1057 1038c0 16 7 26 14 26c6 0 12 -7 12 -25c0 -49 15 -116 39 -153l-7 -4
c-28 39 -58 102 -58 156z" />
    <glyph glyph-name="Oacute" unicode="&#xd3;" horiz-adv-x="932" 
d="M1139 1008c-53 -46 -130 -87 -186 -103l-1 9c52 17 126 65 171 111c13 13 16 20 29 20c4 0 8 -2 8 -6c0 -8 -7 -19 -21 -31zM196 58c-22 -5 -42 -7 -60 -7c-66 0 -123 21 -146 79c0 8 2 12 4 12c1 0 2 -1 3 -4c19 -53 69 -78 138 -78c18 0 37 2 57 7c-9 23 -14 51 -14 83
c0 172 94 328 219 451c170 167 399 273 531 273c67 0 104 -31 104 -84c0 -35 -16 -80 -52 -133c13 -25 20 -58 20 -98c0 -338 -382 -599 -625 -599c-84 0 -149 30 -179 98zM224 75c66 20 141 58 215 103c-29 19 -47 51 -47 100c0 222 265 453 446 453c63 0 111 -20 138 -65
c32 49 47 91 47 124c0 47 -30 74 -83 74c-208 0 -723 -367 -723 -735c0 -20 2 -38 7 -54zM227 66c22 -64 82 -93 158 -93c228 0 605 254 605 586c0 36 -5 65 -16 89c-105 -152 -319 -346 -516 -469c16 -6 32 -9 51 -9c59 0 135 32 193 92c2 2 4 3 5 3c3 0 4 -3 4 -7
c-61 -62 -140 -97 -204 -97c-22 0 -41 4 -58 12c-81 -50 -157 -88 -222 -107zM449 184c206 130 422 327 521 473c-24 46 -70 65 -132 65c-176 0 -427 -298 -427 -465c0 -35 15 -59 38 -73z" />
    <glyph glyph-name="Ocircumflex" unicode="&#xd4;" horiz-adv-x="932" 
d="M196 58c-22 -5 -42 -7 -60 -7c-66 0 -123 21 -146 79c0 8 2 12 4 12c1 0 2 -1 3 -4c19 -53 69 -78 138 -78c18 0 37 2 57 7c-9 23 -14 51 -14 83c0 172 94 328 219 451c170 167 399 273 531 273c67 0 104 -31 104 -84c0 -35 -16 -80 -52 -133c13 -25 20 -58 20 -98
c0 -338 -382 -599 -625 -599c-84 0 -149 30 -179 98zM224 75c66 20 141 58 215 103c-29 19 -47 51 -47 100c0 222 265 453 446 453c63 0 111 -20 138 -65c32 49 47 91 47 124c0 47 -30 74 -83 74c-208 0 -723 -367 -723 -735c0 -20 2 -38 7 -54zM227 66
c22 -64 82 -93 158 -93c228 0 605 254 605 586c0 36 -5 65 -16 89c-105 -152 -319 -346 -516 -469c16 -6 32 -9 51 -9c59 0 135 32 193 92c2 2 4 3 5 3c3 0 4 -3 4 -7c-61 -62 -140 -97 -204 -97c-22 0 -41 4 -58 12c-81 -50 -157 -88 -222 -107zM449 184
c206 130 422 327 521 473c-24 46 -70 65 -132 65c-176 0 -427 -298 -427 -465c0 -35 15 -59 38 -73zM1038 999c-47 -46 -133 -96 -176 -103l-1 9c47 12 128 65 173 111c13 13 14 20 27 20c4 0 8 -2 8 -6c0 -2 0 -4 -4 -11c-4 -8 -15 -33 -22 -61c-5 -20 -7 -34 -7 -44
c0 -5 1 -9 2 -11l-7 -7c-4 7 -7 20 -7 36c0 19 4 43 14 67z" />
    <glyph glyph-name="Ograve" unicode="&#xd2;" horiz-adv-x="932" 
d="M196 58c-22 -5 -42 -7 -60 -7c-66 0 -123 21 -146 79c0 8 2 12 4 12c1 0 2 -1 3 -4c19 -53 69 -78 138 -78c18 0 37 2 57 7c-9 23 -14 51 -14 83c0 172 94 328 219 451c170 167 399 273 531 273c67 0 104 -31 104 -84c0 -35 -16 -80 -52 -133c13 -25 20 -58 20 -98
c0 -338 -382 -599 -625 -599c-84 0 -149 30 -179 98zM224 75c66 20 141 58 215 103c-29 19 -47 51 -47 100c0 222 265 453 446 453c63 0 111 -20 138 -65c32 49 47 91 47 124c0 47 -30 74 -83 74c-208 0 -723 -367 -723 -735c0 -20 2 -38 7 -54zM227 66
c22 -64 82 -93 158 -93c228 0 605 254 605 586c0 36 -5 65 -16 89c-105 -152 -319 -346 -516 -469c16 -6 32 -9 51 -9c59 0 135 32 193 92c2 2 4 3 5 3c3 0 4 -3 4 -7c-61 -62 -140 -97 -204 -97c-22 0 -41 4 -58 12c-81 -50 -157 -88 -222 -107zM449 184
c206 130 422 327 521 473c-24 46 -70 65 -132 65c-176 0 -427 -298 -427 -465c0 -35 15 -59 38 -73zM941 1023c0 16 9 26 18 26c8 0 16 -7 16 -25c0 -49 38 -116 70 -153l-9 -4c-38 39 -95 102 -95 156z" />
    <glyph glyph-name="Uacute" unicode="&#xda;" horiz-adv-x="794" 
d="M592 822c5 -17 7 -36 7 -58c0 -204 -200 -389 -341 -389c-65 0 -96 41 -96 105c0 198 246 347 411 349c-13 44 -44 73 -109 73c-157 0 -406 -206 -406 -445c0 -52 14 -95 38 -128c1 -1 2 -2 2 -4s-3 -4 -5 -4s-3 1 -4 2c-28 38 -39 84 -39 134c0 247 252 453 415 453
c68 0 108 -30 125 -81c79 -4 142 -41 142 -153c0 -80 -49 -160 -117 -234c-157 -169 -404 -347 -404 -421c0 -16 10 -25 25 -25c138 0 651 587 716 647c93 86 152 125 214 125c11 0 16 -5 16 -10s-6 -11 -20 -11c-68 0 -137 -40 -230 -171c-221 -310 -341 -507 -341 -566
c0 -7 4 -13 12 -13c41 0 121 73 189 153l7 -7c-70 -82 -151 -156 -197 -156c-22 0 -33 10 -33 32c0 153 259 454 383 603c2 2 2 3 2 4c0 2 -1 2 -6 2c-37 -28 -560 -642 -712 -642c-24 0 -39 14 -39 42c0 110 233 299 387 459c76 79 127 156 127 221c0 72 -50 109 -119 114z
M576 822c-156 -1 -404 -140 -404 -342c0 -58 33 -95 87 -95c131 0 322 243 322 382c0 19 -1 36 -5 55zM1076 954c-53 -46 -130 -87 -186 -103l-1 9c52 17 126 65 171 111c13 13 16 20 29 20c4 0 8 -2 8 -6c0 -8 -7 -19 -21 -31z" />
    <glyph glyph-name="Ucircumflex" unicode="&#xdb;" horiz-adv-x="794" 
d="M592 822c5 -17 7 -36 7 -58c0 -204 -200 -389 -341 -389c-65 0 -96 41 -96 105c0 198 246 347 411 349c-13 44 -44 73 -109 73c-157 0 -406 -206 -406 -445c0 -52 14 -95 38 -128c1 -1 2 -2 2 -4s-3 -4 -5 -4s-3 1 -4 2c-28 38 -39 84 -39 134c0 247 252 453 415 453
c68 0 108 -30 125 -81c79 -4 142 -41 142 -153c0 -80 -49 -160 -117 -234c-157 -169 -404 -347 -404 -421c0 -16 10 -25 25 -25c138 0 651 587 716 647c93 86 152 125 214 125c11 0 16 -5 16 -10s-6 -11 -20 -11c-68 0 -137 -40 -230 -171c-221 -310 -341 -507 -341 -566
c0 -7 4 -13 12 -13c41 0 121 73 189 153l7 -7c-70 -82 -151 -156 -197 -156c-22 0 -33 10 -33 32c0 153 259 454 383 603c2 2 2 3 2 4c0 2 -1 2 -6 2c-37 -28 -560 -642 -712 -642c-24 0 -39 14 -39 42c0 110 233 299 387 459c76 79 127 156 127 221c0 72 -50 109 -119 114z
M576 822c-156 -1 -404 -140 -404 -342c0 -58 33 -95 87 -95c131 0 322 243 322 382c0 19 -1 36 -5 55zM1017 957c-47 -46 -133 -96 -176 -103l-1 9c47 12 128 65 173 111c13 13 14 20 27 20c4 0 8 -2 8 -6c0 -2 0 -4 -4 -11c-4 -8 -15 -33 -22 -61c-5 -20 -7 -34 -7 -44
c0 -5 1 -9 2 -11l-7 -7c-4 7 -7 20 -7 36c0 19 4 43 14 67z" />
    <glyph glyph-name="Ugrave" unicode="&#xd9;" horiz-adv-x="794" 
d="M592 822c5 -17 7 -36 7 -58c0 -204 -200 -389 -341 -389c-65 0 -96 41 -96 105c0 198 246 347 411 349c-13 44 -44 73 -109 73c-157 0 -406 -206 -406 -445c0 -52 14 -95 38 -128c1 -1 2 -2 2 -4s-3 -4 -5 -4s-3 1 -4 2c-28 38 -39 84 -39 134c0 247 252 453 415 453
c68 0 108 -30 125 -81c79 -4 142 -41 142 -153c0 -80 -49 -160 -117 -234c-157 -169 -404 -347 -404 -421c0 -16 10 -25 25 -25c138 0 651 587 716 647c93 86 152 125 214 125c11 0 16 -5 16 -10s-6 -11 -20 -11c-68 0 -137 -40 -230 -171c-221 -310 -341 -507 -341 -566
c0 -7 4 -13 12 -13c41 0 121 73 189 153l7 -7c-70 -82 -151 -156 -197 -156c-22 0 -33 10 -33 32c0 153 259 454 383 603c2 2 2 3 2 4c0 2 -1 2 -6 2c-37 -28 -560 -642 -712 -642c-24 0 -39 14 -39 42c0 110 233 299 387 459c76 79 127 156 127 221c0 72 -50 109 -119 114z
M576 822c-156 -1 -404 -140 -404 -342c0 -58 33 -95 87 -95c131 0 322 243 322 382c0 19 -1 36 -5 55zM910 987c0 16 7 26 14 26c6 0 12 -7 12 -25c0 -49 15 -116 39 -153l-7 -4c-28 39 -58 102 -58 156z" />
    <glyph glyph-name="dotlessi" unicode="&#x131;" horiz-adv-x="179" 
d="M142 273c4 4 -1 9 -4 3c-22 -26 -78 -74 -134 -134l-7 7c51 54 155 150 187 186h52c-84 -106 -239 -290 -239 -327c0 -6 2 -9 8 -9c23 0 96 63 171 151l7 -7c-65 -78 -147 -156 -184 -156c-13 0 -20 10 -20 22c0 62 85 162 163 264z" />
    <glyph glyph-name="circumflex" unicode="&#x2c6;" horiz-adv-x="340" 
d="M313 549c-47 -46 -133 -96 -176 -103l-1 8c47 12 128 66 173 112c13 13 14 20 27 20c4 0 8 -2 8 -6c0 -2 0 -4 -4 -11c-16 -35 -29 -72 -29 -102c0 -8 1 -15 2 -17l-7 -4c-4 7 -7 20 -7 36c0 19 4 43 14 67z" />
    <glyph glyph-name="tilde" unicode="&#x2dc;" horiz-adv-x="340" 
d="M298 486c27 36 49 48 68 48c37 0 63 -48 97 -48c15 0 32 9 52 37l3 -4c-26 -41 -48 -55 -67 -55c-38 0 -66 50 -101 50c-14 0 -30 -8 -48 -32z" />
    <glyph glyph-name="macron" unicode="&#xaf;" horiz-adv-x="340" 
d="M321 511h179l-11 -22h-179z" />
    <glyph glyph-name="breve" unicode="&#x2d8;" horiz-adv-x="437" 
d="M443 522h8c-2 -4 -5 -9 -8 -13c-29 -42 -79 -76 -110 -76c-16 0 -25 9 -25 24c0 14 7 32 21 52c3 4 6 9 10 13h7c-10 -15 -18 -36 -18 -48c0 -9 5 -13 18 -13c27 0 76 28 97 61z" />
    <glyph glyph-name="dotaccent" unicode="&#x2d9;" horiz-adv-x="232" 
d="M444 551c19 0 35 -12 35 -26s-16 -26 -35 -26s-35 12 -35 26s16 26 35 26z" />
    <glyph glyph-name="ring" unicode="&#x2da;" horiz-adv-x="437" 
d="M439 585c16 0 25 -9 25 -24c0 -14 -7 -32 -21 -52c-29 -42 -79 -76 -110 -76c-16 0 -25 9 -25 24c0 14 7 32 21 52c29 42 79 76 110 76zM436 570c-24 0 -66 -29 -95 -70c-11 -15 -17 -29 -17 -39c0 -8 4 -13 14 -13c18 0 64 27 93 70c7 10 18 29 18 41c0 6 -3 11 -13 11z
" />
    <glyph glyph-name="cedilla" unicode="&#xb8;" horiz-adv-x="340" 
d="M52 -208l7 11c9 -6 24 -16 62 -16c46 0 111 27 111 89c0 33 -24 48 -51 48c-38 0 -34 -23 -57 -23c-3 0 -5 3 -5 7c0 3 1 6 5 8l101 56h19l-69 -39c7 1 14 1 20 1c44 0 71 -21 71 -55c0 -72 -80 -102 -145 -102c-32 0 -55 7 -69 15z" />
    <glyph glyph-name="hungarumlaut" unicode="&#x2dd;" horiz-adv-x="340" 
d="M494 546c11 18 31 30 51 30c12 0 18 -4 18 -10c0 -5 -3 -12 -8 -19c-20 -33 -166 -104 -195 -112c-3 0 -5 2 -5 3c0 2 1 4 3 5c61 25 108 59 136 103zM621 546c11 18 31 30 51 30c12 0 18 -4 18 -10c0 -5 -3 -12 -8 -19c-20 -33 -166 -104 -195 -112c-3 0 -5 2 -5 3
c0 2 1 4 3 5c60 25 108 59 136 103z" />
    <glyph glyph-name="ogonek" unicode="&#x2db;" horiz-adv-x="340" 
d="M182 7h42c-69 0 -204 -42 -204 -129c0 -39 33 -62 79 -62c47 0 63 28 70 28c4 0 7 0 7 -5c0 -4 -2 -8 -7 -10c-27 -16 -54 -23 -77 -23c-57 0 -99 38 -99 79c0 79 110 122 189 122z" />
    <glyph glyph-name="caron" unicode="&#x2c7;" horiz-adv-x="340" 
d="M338 483c47 46 133 96 176 103l1 -8c-47 -12 -128 -66 -173 -112c-13 -13 -14 -20 -27 -20c-4 0 -8 2 -8 6c0 2 0 4 4 11c16 35 29 72 29 102c0 8 -1 15 -2 17l7 4c4 -7 7 -20 7 -36c0 -19 -4 -43 -14 -67z" />
    <glyph glyph-name="Amacron" unicode="&#x100;" horiz-adv-x="1010" 
d="M988 326c-110 -199 -213 -383 -374 -475c-4 0 -5 1 -5 2s1 3 3 5c149 111 244 277 355 469c-32 2 -66 10 -102 20c-187 -216 -374 -393 -683 -393c-167 0 -232 83 -232 188c0 238 292 463 549 463c122 0 167 -48 167 -123c0 -18 -4 -39 -10 -58c64 -15 126 -36 188 -53
c144 146 290 313 455 448c3 2 5 3 8 3c4 0 7 -2 7 -6c0 -3 -2 -6 -7 -10c-127 -139 -220 -303 -308 -461c68 1 115 15 157 49c1 1 3 2 4 2c2 0 4 -2 4 -4s-1 -3 -3 -4c-48 -44 -117 -61 -173 -62zM978 346c77 132 162 276 282 422c2 2 2 3 2 4s0 1 -1 1s-2 0 -4 -2
c-146 -128 -262 -274 -379 -409c33 -8 66 -14 100 -16zM831 358c-55 18 -115 40 -180 56c-51 -136 -245 -290 -409 -290c-71 0 -97 32 -97 75c0 94 122 243 359 243c48 0 95 -6 140 -16c8 20 12 40 12 59c0 62 -39 110 -157 110c-254 0 -538 -222 -538 -447
c0 -94 60 -164 213 -164c240 0 449 166 657 374zM640 417c-43 9 -88 16 -135 16c-232 0 -351 -144 -351 -233c0 -38 23 -66 88 -66c117 0 336 146 398 283zM1227 871h179l-11 -22h-179z" />
    <glyph glyph-name="amacron" unicode="&#x101;" horiz-adv-x="348" 
d="M250 198c-74 -84 -197 -211 -236 -211c-15 0 -23 10 -23 32c0 53 30 132 100 203c2 1 -1 3 -2 2c-22 -17 -62 -55 -85 -82l-7 7c30 35 114 115 229 161c45 18 91 27 132 27c13 0 26 -1 39 -2c-86 -108 -239 -291 -239 -323c0 -8 3 -12 11 -12c33 0 144 110 177 150l7 -7
c-24 -28 -145 -156 -192 -156c-13 0 -20 10 -20 22c0 33 24 75 111 187zM349 328c-103 0 -191 -81 -246 -148c-53 -64 -96 -132 -96 -168c0 -8 3 -12 10 -12c53 0 287 273 332 328zM314 485h179l-11 -22h-179z" />
    <glyph glyph-name="Aogonek" unicode="&#x104;" horiz-adv-x="1010" 
d="M978 346c77 132 162 276 282 422c2 2 2 3 2 4s0 1 -1 1s-2 0 -4 -2c-146 -128 -262 -274 -379 -409c33 -8 66 -14 100 -16zM831 358c-55 18 -115 40 -180 56c-51 -136 -245 -290 -409 -290c-71 0 -97 32 -97 75c0 94 122 243 359 243c48 0 95 -6 140 -16
c8 20 12 40 12 59c0 62 -39 110 -157 110c-254 0 -538 -222 -538 -447c0 -94 60 -164 213 -164c240 0 449 166 657 374zM640 417c-43 9 -88 16 -135 16c-232 0 -351 -144 -351 -233c0 -38 23 -66 88 -66c117 0 336 146 398 283zM198 -46c-71 -11 -166 -53 -166 -125
c0 -39 33 -62 79 -62c47 0 63 28 70 28c4 0 7 0 7 -5c0 -4 -2 -8 -7 -10c-27 -16 -54 -23 -77 -23c-57 0 -99 38 -99 79c0 67 80 108 152 119c-149 8 -207 87 -207 187c0 238 292 463 549 463c122 0 167 -48 167 -123c0 -18 -4 -39 -10 -58c64 -15 126 -36 188 -53
c144 146 290 313 455 448c3 2 5 3 8 3c4 0 7 -2 7 -6c0 -3 -2 -6 -7 -10c-127 -139 -220 -303 -308 -461c68 1 115 15 157 49c1 1 3 2 4 2c2 0 4 -2 4 -4s-1 -3 -3 -4c-48 -44 -117 -61 -173 -62c-110 -199 -213 -383 -374 -475c-4 0 -5 1 -5 2s1 3 3 5
c149 111 244 277 355 469c-32 2 -66 10 -102 20c-184 -212 -368 -387 -667 -393z" />
    <glyph glyph-name="aogonek" unicode="&#x105;" horiz-adv-x="348" 
d="M349 328c-103 0 -191 -81 -246 -148c-53 -64 -96 -132 -96 -168c0 -8 3 -12 10 -12c53 0 287 273 332 328zM169 -12c-55 -42 -110 -110 -83 -170c16 -36 55 -43 97 -25c43 19 47 52 53 54c4 2 6 3 8 -1s2 -8 -2 -12c-18 -26 -40 -43 -61 -53c-52 -23 -106 -5 -122 32
c-29 64 32 136 96 175c-9 2 -14 11 -14 21c0 33 24 75 111 187l-2 2c-74 -84 -197 -211 -236 -211c-15 0 -23 10 -23 32c0 53 30 132 100 203c2 1 -1 3 -2 2c-22 -17 -62 -55 -85 -82l-7 7c30 35 114 115 229 161c45 18 91 27 132 27c13 0 26 -1 39 -2
c-86 -108 -239 -291 -239 -323c0 -8 3 -12 11 -12c33 0 144 110 177 150l7 -7c-23 -26 -132 -142 -184 -155z" />
    <glyph glyph-name="Ccaron" unicode="&#x10c;" horiz-adv-x="773" 
d="M485 322c6 -40 36 -57 72 -57c66 0 191 87 278 203c-23 27 -51 52 -84 73c-55 -72 -149 -156 -266 -219zM484 329c23 13 46 27 69 43c86 59 150 119 191 173c-26 18 -69 38 -106 52c-21 -21 -41 -44 -60 -69c-40 -53 -94 -134 -94 -199zM242 240c30 151 127 281 243 391
c-33 4 -72 6 -103 6c-129 0 -244 -27 -332 -76c-93 -52 -140 -122 -140 -191c0 -47 23 -75 48 -96c40 -33 100 -47 148 -47c43 0 92 5 136 13zM240 231c-32 -8 -85 -14 -136 -14c-97 0 -204 56 -204 153c0 152 204 276 482 276c32 0 72 -2 112 -7c140 125 290 202 362 202
c58 0 95 -26 95 -103c0 -93 -45 -189 -107 -272c10 -11 21 -28 30 -46c4 -5 -5 -12 -7 -2c-7 15 -17 29 -27 44c-88 -118 -213 -205 -283 -205c-40 0 -71 20 -81 60c-52 -29 -110 -54 -179 -72c-18 -48 -29 -95 -29 -137c0 -113 109 -130 153 -130c111 0 220 55 349 172
l7 -7c-112 -101 -228 -175 -356 -175c-134 0 -186 76 -186 197c0 22 2 44 5 66zM300 253c58 16 116 39 175 70c-2 8 -3 16 -3 26c0 104 63 194 133 258c-22 6 -45 12 -67 16c-78 -84 -188 -239 -238 -370zM838 473c73 96 105 189 105 265c0 67 -31 93 -87 93
c-74 0 -194 -75 -311 -201c22 -5 45 -10 67 -17c66 57 137 91 164 91c24 0 33 -13 33 -35c0 -32 -19 -74 -54 -122c32 -20 60 -44 83 -74zM749 551c35 48 52 89 52 118c0 17 -5 25 -25 25c-22 0 -77 -36 -133 -92c40 -14 75 -31 106 -51zM925 906c47 46 133 96 176 103l1 -9
c-47 -12 -128 -65 -173 -111c-13 -13 -14 -20 -27 -20c-4 0 -8 2 -8 6c0 2 0 4 4 11c9 19 29 68 29 105c0 5 -1 9 -2 11l7 7c4 -7 7 -20 7 -36c0 -19 -4 -43 -14 -67z" />
    <glyph glyph-name="ccaron" unicode="&#x10d;" 
d="M240 241c-13 0 -19 8 -19 18c0 18 20 44 55 44c6 6 9 13 9 20c0 9 -5 17 -16 17c-8 0 -19 -5 -35 -16c-40 -29 -87 -92 -129 -143c-46 -57 -106 -143 -106 -167c0 -11 4 -17 15 -17c57 0 172 93 224 154l7 -7c-63 -73 -180 -157 -229 -157c-25 0 -34 17 -34 31
c0 53 38 123 106 202c0 0 0 1 -2 1c-27 -20 -67 -59 -82 -78l-7 7c26 32 154 145 232 185c18 9 33 14 43 14c16 0 24 -11 24 -30c0 -44 -28 -78 -56 -78zM336 483c47 46 133 96 176 103l1 -8c-47 -12 -128 -66 -173 -112c-13 -13 -14 -20 -27 -20c-4 0 -8 2 -8 6
c0 2 0 4 4 11c16 35 29 72 29 102c0 8 -1 15 -2 17l7 4c4 -7 7 -20 7 -36c0 -19 -4 -43 -14 -67z" />
    <glyph glyph-name="Cacute" unicode="&#x106;" horiz-adv-x="773" 
d="M485 322c6 -40 36 -57 72 -57c66 0 191 87 278 203c-23 27 -51 52 -84 73c-55 -72 -149 -156 -266 -219zM484 329c23 13 46 27 69 43c86 59 150 119 191 173c-26 18 -69 38 -106 52c-21 -21 -41 -44 -60 -69c-40 -53 -94 -134 -94 -199zM242 240c30 151 127 281 243 391
c-33 4 -72 6 -103 6c-129 0 -244 -27 -332 -76c-93 -52 -140 -122 -140 -191c0 -47 23 -75 48 -96c40 -33 100 -47 148 -47c43 0 92 5 136 13zM240 231c-32 -8 -85 -14 -136 -14c-97 0 -204 56 -204 153c0 152 204 276 482 276c32 0 72 -2 112 -7c140 125 290 202 362 202
c58 0 95 -26 95 -103c0 -93 -45 -189 -107 -272c10 -11 21 -28 30 -46c4 -5 -5 -12 -7 -2c-7 15 -17 29 -27 44c-88 -118 -213 -205 -283 -205c-40 0 -71 20 -81 60c-52 -29 -110 -54 -179 -72c-18 -48 -29 -95 -29 -137c0 -113 109 -130 153 -130c111 0 220 55 349 172
l7 -7c-112 -101 -228 -175 -356 -175c-134 0 -186 76 -186 197c0 22 2 44 5 66zM300 253c58 16 116 39 175 70c-2 8 -3 16 -3 26c0 104 63 194 133 258c-22 6 -45 12 -67 16c-78 -84 -188 -239 -238 -370zM838 473c73 96 105 189 105 265c0 67 -31 93 -87 93
c-74 0 -194 -75 -311 -201c22 -5 45 -10 67 -17c66 57 137 91 164 91c24 0 33 -13 33 -35c0 -32 -19 -74 -54 -122c32 -20 60 -44 83 -74zM749 551c35 48 52 89 52 118c0 17 -5 25 -25 25c-22 0 -77 -36 -133 -92c40 -14 75 -31 106 -51zM965 931c-54 -32 -133 -60 -191 -71
l-1 6c54 12 130 45 176 77c13 9 16 14 30 14c4 0 8 -1 8 -4c0 -6 -7 -13 -22 -22z" />
    <glyph glyph-name="cacute" unicode="&#x107;" 
d="M240 241c-13 0 -19 8 -19 18c0 18 20 44 55 44c6 6 9 13 9 20c0 9 -5 17 -16 17c-8 0 -19 -5 -35 -16c-40 -29 -87 -92 -129 -143c-46 -57 -106 -143 -106 -167c0 -11 4 -17 15 -17c57 0 172 93 224 154l7 -7c-63 -73 -180 -157 -229 -157c-25 0 -34 17 -34 31
c0 53 38 123 106 202c0 0 0 1 -2 1c-27 -20 -67 -59 -82 -78l-7 7c26 32 154 145 232 185c18 9 33 14 43 14c16 0 24 -11 24 -30c0 -44 -28 -78 -56 -78zM454 549c-53 -46 -130 -87 -186 -103l-1 9c52 17 126 65 171 111c13 13 16 20 29 20c4 0 8 -2 8 -6
c0 -8 -7 -19 -21 -31z" />
    <glyph glyph-name="Zacute" unicode="&#x179;" horiz-adv-x="683" 
d="M393 827c-206 -31 -408 -233 -408 -433c0 -61 30 -90 77 -90c139 0 364 218 364 407c0 46 -6 87 -33 116zM385 836c-25 23 -63 36 -113 36c-149 0 -283 -90 -363 -270c-2 -3 -4 -4 -6 -4s-3 2 -3 8c69 156 195 276 372 276c56 0 98 -17 125 -45c18 3 40 5 65 5
c129 0 203 -48 203 -134c0 -148 -198 -252 -198 -291c0 -9 5 -13 13 -13c118 0 331 168 383 219c100 97 86 135 106 135c7 0 11 -4 11 -15c0 -47 -72 -113 -170 -195c-200 -168 -487 -337 -606 -446c-3 -3 -5 -6 -5 -8c0 -1 1 -2 2 -2c2 0 5 2 8 6c29 26 329 251 404 251
c25 0 36 -12 36 -36c0 -109 -183 -257 -183 -303c0 -7 4 -13 12 -13c41 0 132 73 203 153l7 -7c-73 -82 -165 -156 -211 -156c-22 0 -36 10 -36 48c0 85 184 225 184 286c0 13 -5 17 -16 17c-72 0 -382 -227 -472 -317c-73 -73 -110 -148 -141 -148c-6 0 -10 4 -10 13
c0 12 3 18 41 59c119 128 238 226 348 307c172 126 322 209 421 294c0 5 0 5 -4 5c-45 -36 -206 -157 -312 -157c-14 0 -28 8 -28 33c0 109 177 181 177 297c0 64 -44 108 -167 108c-18 0 -38 -1 -57 -4c25 -31 36 -71 36 -134c0 -200 -218 -402 -373 -402
c-56 0 -93 33 -93 102c0 205 204 406 410 442zM928 847c-54 -32 -133 -61 -191 -72l-1 7c54 11 130 45 176 77c13 9 16 14 30 14c4 0 8 -2 8 -5c0 -5 -7 -13 -22 -21z" />
    <glyph glyph-name="zacute" unicode="&#x17a;" horiz-adv-x="316" 
d="M168 153c3 2 9 4 15 4c19 0 30 -10 30 -28c0 -42 -88 -98 -88 -123c0 -5 2 -7 6 -7c39 0 136 97 182 151l7 -7c-46 -53 -148 -153 -192 -153c-9 0 -23 3 -23 26c0 47 86 98 86 125c0 6 -4 10 -10 10c-7 0 -15 -3 -24 -8c-59 -56 -112 -102 -139 -128
c-19 -17 -31 -25 -37 -25c-2 0 -3 1 -3 4c0 13 35 55 103 96c23 14 90 76 111 96c-3 -2 -9 -4 -15 -4c-19 0 -30 10 -30 28c0 42 86 96 86 120c0 6 -2 8 -6 8c-29 0 -180 -146 -223 -196l-7 7c49 55 195 198 233 198c9 0 23 -3 23 -26c0 -47 -84 -96 -84 -123
c0 -6 4 -10 10 -10c7 0 15 3 22 7c65 59 113 101 142 129c18 17 30 25 36 25c2 0 4 -1 4 -4c0 -13 -35 -54 -104 -96c-27 -16 -77 -61 -111 -96zM479 549c-53 -46 -130 -87 -186 -103l-1 9c52 17 126 65 171 111c13 13 16 20 29 20c4 0 8 -2 8 -6c0 -8 -7 -19 -21 -31z" />
    <glyph glyph-name="Dcaron" unicode="&#x10e;" horiz-adv-x="1023" 
d="M857 798c47 46 133 96 176 103l1 -9c-47 -12 -128 -65 -173 -111c-13 -13 -14 -20 -27 -20c-4 0 -8 2 -8 6c0 2 0 4 4 11c9 19 29 68 29 105c0 5 -1 9 -2 11l7 7c4 -7 7 -20 7 -36c0 -19 -4 -43 -14 -67zM660 763c-10 1 -21 1 -32 1c-259 0 -422 -203 -422 -330
c0 -49 22 -69 70 -69c135 0 343 238 384 398zM670 762c-48 -200 -246 -406 -394 -406c-53 0 -78 24 -78 78c0 146 180 340 430 340c11 0 23 0 35 -1c5 20 6 41 6 62c0 72 -37 111 -124 111c-248 0 -505 -307 -505 -541c0 -88 44 -152 129 -175c2 -1 3 -2 3 -4
c0 -3 -2 -5 -6 -5c-97 27 -135 99 -135 184c0 245 263 551 514 551c99 0 133 -50 133 -121c0 -21 -1 -41 -6 -63c85 -7 149 -33 199 -78c53 44 109 80 173 106c5 0 7 -3 7 -5c0 -1 -1 -3 -4 -3c-61 -27 -112 -61 -163 -109c76 -75 108 -174 108 -283
c0 -190 -123 -433 -451 -433c-102 0 -180 26 -252 53c-53 -28 -120 -45 -199 -45c-53 0 -90 16 -90 49c0 19 14 52 89 52c63 0 118 -15 172 -34c202 124 374 443 588 634c-47 50 -110 77 -179 86zM861 663c-193 -193 -314 -511 -555 -637c68 -24 140 -48 235 -48
c282 0 403 223 403 418c0 119 -31 207 -83 267zM246 35c-51 17 -100 32 -157 32c-65 0 -79 -27 -79 -43c0 -22 24 -36 78 -36c51 0 101 15 158 47z" />
    <glyph glyph-name="dcaron" unicode="&#x10f;" horiz-adv-x="348" 
d="M397 335c-86 -108 -239 -291 -239 -323c0 -8 3 -12 11 -12c31 0 124 89 177 150l7 -7c-24 -28 -145 -156 -192 -156c-13 0 -20 10 -20 22c0 33 24 75 111 187l-2 2c-74 -84 -197 -211 -236 -211c-15 0 -23 10 -23 32c0 53 23 124 100 203c0 0 0 2 -2 2
c-22 -17 -62 -55 -85 -82l-7 7c30 35 114 115 229 161c45 18 91 27 132 27l250 317h42zM349 328c-103 0 -191 -81 -246 -148c-53 -64 -96 -132 -96 -168c0 -8 3 -12 10 -12c53 0 287 273 332 328zM661 549c-28 -46 -83 -87 -130 -103l-6 9c43 17 91 65 110 111
c6 13 6 20 19 20c8 0 14 -6 14 -16c0 -5 -2 -13 -7 -21z" />
    <glyph glyph-name="Emacron" unicode="&#x112;" horiz-adv-x="671" 
d="M493 389c-105 -39 -242 -187 -242 -319c0 -54 23 -93 98 -93c117 0 224 73 320 173l7 -7c-96 -102 -208 -176 -326 -176c-103 0 -149 53 -149 132c0 167 181 280 286 301c-5 10 -9 21 -12 33c-111 -60 -240 -100 -371 -100c-97 0 -204 56 -204 153c0 152 204 276 482 276
c87 0 164 -12 231 -33c65 58 134 91 158 91s38 -13 38 -35c0 -33 -19 -76 -54 -122c56 -37 96 -81 119 -127c0 -5 -1 -7 -3 -7c-1 0 -3 1 -4 5c-24 48 -66 89 -117 122c-56 -72 -147 -152 -256 -213c0 -14 2 -26 6 -39c34 7 51 8 66 8c43 0 63 -19 63 -37
c0 -17 -17 -33 -54 -33c-35 0 -64 19 -82 47zM505 393c13 -27 38 -42 70 -42c29 0 43 11 43 24s-18 28 -52 28c-20 0 -41 -3 -61 -10zM474 439c-1 7 -2 14 -2 22c0 111 68 204 133 262c-75 22 -153 30 -223 30c-277 0 -472 -127 -472 -267c0 -81 83 -143 196 -143
c123 0 248 31 368 96zM494 451c95 56 192 133 250 210c-22 14 -47 26 -71 37c-10 5 -21 9 -31 12c-49 -53 -144 -169 -148 -259zM749 667c35 48 52 90 52 118c0 17 -5 25 -25 25c-22 0 -73 -37 -127 -93c37 -15 70 -32 100 -50zM725 872h179l-11 -22h-179z" />
    <glyph glyph-name="emacron" unicode="&#x113;" 
d="M265 339c-40 0 -104 -90 -160 -158c-14 -18 -29 -37 -44 -57c147 82 214 174 214 204c0 7 -4 11 -10 11zM87 222c-28 -22 -58 -50 -83 -79l-7 7c36 41 221 199 269 199c12 0 20 -8 20 -21c0 -39 -62 -128 -236 -219c-28 -40 -51 -80 -51 -95c0 -11 4 -17 15 -17
c54 0 170 91 224 154l7 -7c-63 -73 -180 -157 -229 -157c-25 0 -34 17 -34 31c0 53 37 121 106 202c2 1 0 3 -1 2zM254 492h179l-11 -22h-179z" />
    <glyph glyph-name="Edotaccent" unicode="&#x116;" horiz-adv-x="671" 
d="M493 389c-105 -39 -242 -187 -242 -319c0 -54 23 -93 98 -93c117 0 224 73 320 173l7 -7c-96 -102 -208 -176 -326 -176c-103 0 -149 53 -149 132c0 167 181 280 286 301c-5 10 -9 21 -12 33c-111 -60 -240 -100 -371 -100c-97 0 -204 56 -204 153c0 152 204 276 482 276
c87 0 164 -12 231 -33c65 58 134 91 158 91s38 -13 38 -35c0 -33 -19 -76 -54 -122c56 -37 96 -81 119 -127c0 -5 -1 -7 -3 -7c-1 0 -3 1 -4 5c-24 48 -66 89 -117 122c-56 -72 -147 -152 -256 -213c0 -14 2 -26 6 -39c34 7 51 8 66 8c43 0 63 -19 63 -37
c0 -17 -17 -33 -54 -33c-35 0 -64 19 -82 47zM505 393c13 -27 38 -42 70 -42c29 0 43 11 43 24s-18 28 -52 28c-20 0 -41 -3 -61 -10zM474 439c-1 7 -2 14 -2 22c0 111 68 204 133 262c-75 22 -153 30 -223 30c-277 0 -472 -127 -472 -267c0 -81 83 -143 196 -143
c123 0 248 31 368 96zM494 451c95 56 192 133 250 210c-22 14 -47 26 -71 37c-10 5 -21 9 -31 12c-49 -53 -144 -169 -148 -259zM749 667c35 48 52 90 52 118c0 17 -5 25 -25 25c-22 0 -73 -37 -127 -93c37 -15 70 -32 100 -50zM819 897c17 0 31 -11 31 -23s-14 -22 -31 -22
c-16 0 -30 10 -30 22s14 23 30 23z" />
    <glyph glyph-name="edotaccent" unicode="&#x117;" 
d="M265 339c-40 0 -104 -90 -160 -158c-14 -18 -29 -37 -44 -57c147 82 214 174 214 204c0 7 -4 11 -10 11zM87 222c-28 -22 -58 -50 -83 -79l-7 7c36 41 221 199 269 199c12 0 20 -8 20 -21c0 -39 -62 -128 -236 -219c-28 -40 -51 -80 -51 -95c0 -11 4 -17 15 -17
c54 0 170 91 224 154l7 -7c-63 -73 -180 -157 -229 -157c-25 0 -34 17 -34 31c0 53 37 121 106 202c2 1 0 3 -1 2zM383 551c19 0 35 -12 35 -26s-16 -26 -35 -26s-35 12 -35 26s16 26 35 26z" />
    <glyph glyph-name="Ecaron" unicode="&#x11a;" horiz-adv-x="671" 
d="M838 882c47 46 133 96 176 103l1 -9c-47 -12 -128 -65 -173 -111c-13 -13 -14 -20 -27 -20c-4 0 -8 2 -8 6c0 2 0 4 4 11c9 19 29 68 29 105c0 5 -1 9 -2 11l7 7c4 -7 7 -20 7 -36c0 -19 -4 -43 -14 -67zM493 389c-105 -39 -242 -187 -242 -319c0 -54 23 -93 98 -93
c117 0 224 73 320 173l7 -7c-96 -102 -208 -176 -326 -176c-103 0 -149 53 -149 132c0 167 181 280 286 301c-5 10 -9 21 -12 33c-111 -60 -240 -100 -371 -100c-97 0 -204 56 -204 153c0 152 204 276 482 276c87 0 164 -12 231 -33c65 58 134 91 158 91s38 -13 38 -35
c0 -33 -19 -76 -54 -122c56 -37 96 -81 119 -127c0 -5 -1 -7 -3 -7c-1 0 -3 1 -4 5c-24 48 -66 89 -117 122c-56 -72 -147 -152 -256 -213c0 -14 2 -26 6 -39c34 7 51 8 66 8c43 0 63 -19 63 -37c0 -17 -17 -33 -54 -33c-35 0 -64 19 -82 47zM505 393c13 -27 38 -42 70 -42
c29 0 43 11 43 24s-18 28 -52 28c-20 0 -41 -3 -61 -10zM474 439c-1 7 -2 14 -2 22c0 111 68 204 133 262c-75 22 -153 30 -223 30c-277 0 -472 -127 -472 -267c0 -81 83 -143 196 -143c123 0 248 31 368 96zM494 451c95 56 192 133 250 210c-22 14 -47 26 -71 37
c-10 5 -21 9 -31 12c-49 -53 -144 -169 -148 -259zM749 667c35 48 52 90 52 118c0 17 -5 25 -25 25c-22 0 -73 -37 -127 -93c37 -15 70 -32 100 -50z" />
    <glyph glyph-name="ecaron" unicode="&#x11b;" 
d="M265 339c-40 0 -104 -90 -160 -158c-14 -18 -29 -37 -44 -57c147 82 214 174 214 204c0 7 -4 11 -10 11zM87 222c-28 -22 -58 -50 -83 -79l-7 7c36 41 221 199 269 199c12 0 20 -8 20 -21c0 -39 -62 -128 -236 -219c-28 -40 -51 -80 -51 -95c0 -11 4 -17 15 -17
c54 0 170 91 224 154l7 -7c-63 -73 -180 -157 -229 -157c-25 0 -34 17 -34 31c0 53 37 121 106 202c2 1 0 3 -1 2zM338 483c47 46 133 96 176 103l1 -8c-47 -12 -128 -66 -173 -112c-13 -13 -14 -20 -27 -20c-4 0 -8 2 -8 6c0 2 0 4 4 11c16 35 29 72 29 102
c0 8 -1 15 -2 17l7 4c4 -7 7 -20 7 -36c0 -19 -4 -43 -14 -67z" />
    <glyph glyph-name="Eogonek" unicode="&#x118;" horiz-adv-x="671" 
d="M505 393c13 -27 38 -42 70 -42c29 0 43 11 43 24s-18 28 -52 28c-20 0 -41 -3 -61 -10zM474 439c-1 7 -2 14 -2 22c0 111 68 204 133 262c-75 22 -153 30 -223 30c-277 0 -472 -127 -472 -267c0 -81 83 -143 196 -143c123 0 248 31 368 96zM494 451
c95 56 192 133 250 210c-22 14 -47 26 -71 37c-10 5 -21 9 -31 12c-49 -53 -144 -169 -148 -259zM749 667c35 48 52 90 52 118c0 17 -5 25 -25 25c-22 0 -73 -37 -127 -93c37 -15 70 -32 100 -50zM354 -33c-69 -14 -153 -55 -153 -123c0 -39 33 -62 79 -62c47 0 63 28 70 28
c4 0 7 0 7 -5c0 -4 -2 -8 -7 -10c-27 -16 -54 -23 -77 -23c-57 0 -99 38 -99 79c0 65 75 105 145 118c-81 10 -118 59 -118 130c0 167 181 280 286 301c-5 10 -9 21 -12 33c-111 -60 -240 -100 -371 -100c-97 0 -204 56 -204 153c0 152 204 276 482 276
c87 0 164 -12 231 -33c65 58 134 91 158 91s38 -13 38 -35c0 -33 -19 -76 -54 -122c56 -37 96 -81 119 -127c0 -5 -1 -7 -3 -7c-1 0 -3 1 -4 5c-24 48 -66 89 -117 122c-56 -72 -147 -152 -256 -213c0 -14 2 -26 6 -39c34 7 51 8 66 8c43 0 63 -19 63 -37
c0 -17 -17 -33 -54 -33c-35 0 -64 19 -82 47c-105 -39 -242 -187 -242 -319c0 -54 23 -93 98 -93c117 0 224 73 320 173l7 -7c-95 -101 -206 -174 -322 -176z" />
    <glyph glyph-name="eogonek" unicode="&#x119;" 
d="M265 339c-40 0 -104 -90 -160 -158c-14 -18 -29 -37 -44 -57c147 82 214 174 214 204c0 7 -4 11 -10 11zM39 -9c-56 -41 -113 -111 -86 -172c16 -36 55 -43 97 -24c43 19 47 51 53 54c4 1 6 2 8 -2s2 -8 -2 -12c-18 -26 -40 -43 -61 -52c-52 -24 -106 -6 -122 31
c-28 63 30 134 93 173h-3c-25 -1 -34 17 -34 31c0 53 37 121 106 202c2 1 0 3 -1 2c-28 -22 -58 -50 -83 -79l-7 7c36 41 221 199 269 199c12 0 20 -8 20 -21c0 -39 -62 -128 -236 -219c-28 -40 -51 -80 -51 -95c0 -11 4 -17 15 -17c54 0 170 91 224 154l7 -7
c-55 -63 -150 -135 -206 -153z" />
    <glyph glyph-name="gcommaaccent" unicode="&#x123;" horiz-adv-x="308" 
d="M226 310c45 18 91 27 132 27c13 0 26 -1 39 -2c-34 -42 -141 -179 -272 -335c-1 -1 2 -3 3 -2c54 40 134 108 177 152l7 -7c-78 -80 -214 -175 -236 -202c-59 -74 -92 -117 -150 -189c-109 -135 -195 -240 -231 -240c-16 0 -24 9 -24 26c0 33 37 95 105 169
c76 84 182 162 284 239c76 103 161 211 192 250l-2 2c-74 -84 -197 -211 -236 -211c-15 0 -23 10 -23 32c0 53 33 135 100 203c2 1 -1 3 -2 2c-22 -17 -62 -55 -85 -82l-7 7c30 35 114 115 229 161zM33 -87c1 2 -1 2 -2 1c-85 -61 -172 -135 -248 -216
c-64 -69 -99 -128 -99 -155c0 -10 4 -16 11 -16c33 0 114 105 213 231c42 53 85 107 125 155zM349 328c-103 0 -191 -81 -246 -148c-53 -64 -96 -132 -96 -168c0 -8 3 -12 10 -12c53 0 287 273 332 328zM401 502c5 3 9 4 14 4c14 0 25 -10 25 -26c0 -15 -12 -26 -26 -26
c-22 0 -26 20 -26 34c0 57 57 99 111 99v-8c-51 0 -93 -43 -98 -77z" />
    <glyph glyph-name="Iogonek" unicode="&#x12e;" horiz-adv-x="842" 
d="M661 207c0 39 3 79 9 120c-115 83 -245 119 -372 119c-227 0 -353 -132 -353 -252c0 -101 88 -194 280 -194c163 0 297 71 436 207zM670 216c19 20 38 41 59 63c-17 15 -33 29 -51 42c-5 -34 -8 -69 -8 -105zM736 287c142 160 239 306 298 423c28 57 40 95 40 119
c0 26 -13 36 -32 36c-38 0 -100 -38 -143 -77c-105 -97 -192 -264 -220 -455c18 -14 37 -29 57 -46zM262 -28c-69 -15 -148 -55 -148 -122c0 -39 33 -62 79 -62c47 0 63 28 70 28c4 0 7 0 7 -5c0 -4 -2 -8 -7 -10c-27 -16 -54 -23 -77 -23c-57 0 -99 38 -99 79
c0 62 67 101 134 116c-198 10 -290 111 -290 217c0 128 132 266 367 266c128 0 257 -34 373 -116c27 189 112 359 221 458c44 40 110 79 153 79c26 0 44 -14 44 -50c0 -27 -11 -68 -36 -126c-57 -129 -145 -298 -276 -457c26 -28 51 -60 75 -96c0 -5 -1 -8 -4 -8
c-1 0 -2 1 -3 2c-23 34 -47 66 -74 94c-30 -35 -63 -70 -99 -101c4 -49 11 -93 23 -137c0 -5 -2 -8 -5 -8c-1 0 -2 1 -3 2c-12 44 -20 89 -23 136c-109 -91 -243 -154 -402 -156z" />
    <glyph glyph-name="iogonek" unicode="&#x12f;" horiz-adv-x="179" 
d="M387 609c11 0 15 -10 15 -20c0 -20 -20 -44 -37 -44c-10 0 -16 6 -16 18c0 24 21 46 38 46zM10 -11h1c-56 -42 -110 -110 -83 -170c15 -36 55 -43 97 -24c43 19 46 51 53 54c3 1 6 2 8 -2s1 -8 -2 -12c-19 -26 -40 -43 -61 -52c-52 -24 -106 -6 -123 31
c-28 63 31 135 94 173c-10 3 -15 12 -15 22c0 62 85 162 163 264c4 4 -1 9 -4 3c-22 -26 -78 -74 -134 -134l-7 7c51 54 155 150 187 186h52c-84 -106 -239 -290 -239 -327c0 -6 2 -9 8 -9c23 0 96 63 171 151l7 -7c-59 -71 -132 -141 -173 -154z" />
    <glyph glyph-name="Imacron" unicode="&#x12a;" horiz-adv-x="842" 
d="M661 207c0 39 3 79 9 120c-115 83 -245 119 -372 119c-227 0 -353 -132 -353 -252c0 -101 88 -194 280 -194c163 0 297 71 436 207zM670 216c19 20 38 41 59 63c-17 15 -33 29 -51 42c-5 -34 -8 -69 -8 -105zM672 135c4 -49 11 -93 23 -137c0 -5 -2 -8 -5 -8
c-1 0 -2 1 -3 2c-12 44 -20 89 -23 136c-110 -92 -247 -156 -409 -156c-222 0 -324 106 -324 218c0 128 132 266 367 266c128 0 257 -34 373 -116c27 189 112 359 221 458c44 40 110 79 153 79c26 0 44 -14 44 -50c0 -27 -11 -68 -36 -126c-57 -129 -145 -298 -276 -457
c26 -28 51 -60 75 -96c0 -5 -1 -8 -4 -8c-1 0 -2 1 -3 2c-23 34 -47 66 -74 94c-30 -35 -63 -70 -99 -101zM736 287c142 160 239 306 298 423c28 57 40 95 40 119c0 26 -13 36 -32 36c-38 0 -100 -38 -143 -77c-105 -97 -192 -264 -220 -455c18 -14 37 -29 57 -46zM988 935
h179l-11 -22h-179z" />
    <glyph glyph-name="imacron" unicode="&#x12b;" horiz-adv-x="179" 
d="M142 273c4 4 -1 9 -4 3c-22 -26 -78 -74 -134 -134l-7 7c51 54 155 150 187 186h52c-84 -106 -239 -290 -239 -327c0 -6 2 -9 8 -9c23 0 96 63 171 151l7 -7c-65 -78 -147 -156 -184 -156c-13 0 -20 10 -20 22c0 62 85 162 163 264zM218 477h179l-11 -22h-179z" />
    <glyph glyph-name="Kcommaaccent" unicode="&#x136;" horiz-adv-x="1048" 
d="M931 422c5 -14 7 -30 7 -49c0 -120 -99 -322 -99 -363c0 -7 4 -13 12 -13c41 0 116 73 195 153l7 -7c-81 -82 -157 -156 -203 -156c-22 0 -36 10 -36 48c0 100 101 276 101 365c0 7 -1 13 -2 18c-12 -2 -26 -3 -40 -3c-35 0 -52 13 -52 26c0 12 15 23 41 23
c32 0 53 -12 64 -33c98 24 193 113 288 199c104 93 207 182 316 182c57 0 76 -20 76 -34c0 -7 -5 -12 -12 -12c-27 0 -31 25 -81 25c-91 0 -182 -87 -281 -177c-91 -83 -189 -168 -301 -192zM910 428c-7 18 -23 28 -51 28c-16 0 -26 -7 -26 -15s12 -17 40 -17
c11 0 24 1 37 4zM663 342c141 161 271 353 404 461l-4 5c-170 -113 -310 -253 -456 -386c24 -22 43 -49 56 -80zM680 281c1 -11 2 -22 2 -32c0 -91 -51 -174 -124 -208c-4 0 -6 3 -6 6c0 1 1 2 2 3c74 34 117 114 117 197c0 7 0 15 -1 22c-127 -151 -282 -276 -494 -276
c-174 0 -270 78 -270 197c0 144 179 311 446 311c123 0 196 -28 248 -72c24 22 49 45 76 70c133 124 179 164 235 210s123 91 146 107c39 28 57 42 75 42c10 0 14 -4 14 -14c0 -12 -26 -11 -73 -49c-122 -100 -237 -326 -393 -514zM208 139c123 62 221 136 384 283
c-48 40 -118 69 -240 69c-241 0 -434 -149 -434 -301c0 -95 68 -168 234 -168c191 0 354 141 503 312c-12 29 -31 57 -56 81c-117 -106 -239 -208 -386 -284zM512 -85c-5 -2 -9 -3 -14 -3c-14 0 -25 10 -25 26c0 14 12 26 26 26c23 0 26 -21 26 -34c0 -57 -56 -99 -110 -99
v8c50 0 92 42 97 76z" />
    <glyph glyph-name="Lcommaaccent" unicode="&#x13b;" horiz-adv-x="822" 
d="M940 667c35 47 52 89 52 118c0 17 -5 25 -25 25c-42 0 -87 -34 -135 -90c40 -14 76 -33 108 -53zM942 657c-68 -89 -190 -190 -340 -257c-99 -139 -215 -281 -358 -363c88 -27 177 -59 280 -59c137 0 204 73 296 172l7 -7c-64 -71 -182 -198 -331 -198
c-102 0 -191 43 -277 78c-59 -30 -125 -48 -199 -48c-53 0 -90 16 -90 49c0 19 14 52 110 52c54 0 106 -11 158 -26c104 66 205 178 318 318c-60 -22 -138 -35 -221 -35c-116 0 -204 43 -204 151c0 148 204 278 482 278c87 0 167 -13 236 -35c55 57 107 93 153 93
c24 0 38 -13 38 -35c0 -33 -19 -75 -54 -122c52 -33 95 -78 119 -127c0 -5 -1 -7 -3 -7c-1 0 -3 1 -4 5c-24 48 -65 89 -116 123zM935 661c-22 14 -46 26 -71 37c-12 5 -25 10 -38 15c-64 -73 -134 -185 -216 -301c45 20 90 46 134 76c87 60 150 119 191 173zM802 720
c-71 23 -154 33 -229 33c-129 0 -244 -27 -332 -76c-93 -52 -140 -124 -140 -193c0 -100 80 -142 194 -142c75 0 152 12 229 37c99 124 193 254 278 341zM177 39c-45 16 -90 28 -137 28c-86 0 -100 -27 -100 -43c0 -22 24 -36 78 -36c51 0 105 18 159 51zM302 -118
c-5 -3 -9 -4 -14 -4c-14 0 -25 10 -25 26c0 15 12 26 26 26c23 0 26 -20 26 -34c0 -57 -57 -99 -111 -99v8c51 0 93 43 98 77z" />
    <glyph glyph-name="lcommaaccent" unicode="&#x13c;" horiz-adv-x="210" 
d="M215 143c-70 -82 -151 -156 -197 -156c-22 0 -33 10 -33 32c0 48 55 113 214 310c3 3 1 6 -2 3c-63 -55 -146 -138 -193 -190l-7 7c43 51 149 156 234 225c48 60 351 460 410 460c13 0 18 -7 18 -20c0 -62 -148 -262 -372 -414c-83 -104 -149 -195 -168 -220
c-46 -60 -112 -144 -112 -170c0 -7 4 -13 12 -13c41 0 121 73 189 153zM306 427c-2 -3 0 -4 3 -2c226 168 338 338 338 384c0 8 -3 12 -10 12c-31 0 -203 -226 -331 -394zM-44 -107c-4 -3 -9 -4 -13 -4c-15 0 -26 10 -26 26c0 15 12 26 26 26c23 0 27 -20 27 -34
c0 -56 -57 -99 -111 -99v8c50 0 93 43 97 77z" />
    <glyph glyph-name="Lcaron" unicode="&#x13d;" horiz-adv-x="822" 
d="M940 667c35 47 52 89 52 118c0 17 -5 25 -25 25c-42 0 -87 -34 -135 -90c40 -14 76 -33 108 -53zM942 657c-68 -89 -190 -190 -340 -257c-99 -139 -215 -281 -358 -363c88 -27 177 -59 280 -59c137 0 209 73 296 172l7 -7c-61 -71 -182 -198 -331 -198
c-102 0 -191 43 -277 78c-59 -30 -125 -48 -199 -48c-53 0 -90 16 -90 49c0 19 14 52 110 52c54 0 106 -11 158 -26c104 66 205 178 318 318c-60 -22 -138 -35 -221 -35c-116 0 -204 43 -204 151c0 148 204 278 482 278c87 0 167 -13 236 -35c55 57 107 93 153 93
c24 0 38 -13 38 -35c0 -33 -19 -75 -54 -122c52 -33 95 -78 119 -127c0 -5 -1 -7 -3 -7c-1 0 -3 1 -4 5c-24 48 -65 89 -116 123zM935 661c-22 14 -46 26 -71 37c-12 5 -25 10 -38 15c-64 -73 -134 -185 -216 -301c45 20 90 46 134 76c87 60 150 119 191 173zM802 720
c-71 23 -154 33 -229 33c-129 0 -244 -27 -332 -76c-93 -52 -140 -124 -140 -193c0 -100 80 -142 194 -142c75 0 152 12 229 37c99 124 193 254 278 341zM177 39c-45 16 -90 28 -137 28c-86 0 -100 -27 -100 -43c0 -22 24 -36 78 -36c51 0 105 18 159 51zM897 882
c47 46 133 96 176 103l1 -9c-47 -12 -128 -65 -173 -111c-13 -13 -14 -20 -27 -20c-4 0 -8 2 -8 6c0 2 0 4 4 11c4 8 15 33 22 61c5 20 7 34 7 44c0 5 -1 9 -2 11l7 7c4 -7 7 -20 7 -36c0 -19 -4 -43 -14 -67z" />
    <glyph glyph-name="lcaron" unicode="&#x13e;" horiz-adv-x="210" 
d="M215 143c-70 -82 -151 -156 -197 -156c-22 0 -33 10 -33 32c0 48 55 113 214 310c3 3 1 6 -2 3c-63 -55 -146 -138 -193 -190l-7 7c43 51 149 156 234 225c48 60 351 460 410 460c13 0 18 -7 18 -20c0 -62 -148 -262 -372 -414c-83 -104 -149 -195 -168 -220
c-46 -60 -112 -144 -112 -170c0 -7 4 -13 12 -13c41 0 121 73 189 153zM306 427c-2 -3 0 -4 3 -2c226 168 338 338 338 384c0 8 -3 12 -10 12c-31 0 -203 -226 -331 -394zM637 629c-28 -46 -83 -87 -130 -103l-6 9c43 17 91 65 110 111c6 13 6 20 19 20c8 0 14 -6 14 -16
c0 -5 -2 -13 -7 -21z" />
    <glyph glyph-name="Lacute" unicode="&#x139;" horiz-adv-x="822" 
d="M940 667c35 47 52 89 52 118c0 17 -5 25 -25 25c-42 0 -87 -34 -135 -90c40 -14 76 -33 108 -53zM942 657c-68 -89 -190 -190 -340 -257c-99 -139 -215 -281 -358 -363c88 -27 177 -59 280 -59c137 0 209 73 296 172l7 -7c-61 -71 -182 -198 -331 -198
c-102 0 -191 43 -277 78c-59 -30 -125 -48 -199 -48c-53 0 -90 16 -90 49c0 19 14 52 110 52c54 0 106 -11 158 -26c104 66 205 178 318 318c-60 -22 -138 -35 -221 -35c-116 0 -204 43 -204 151c0 148 204 278 482 278c87 0 167 -13 236 -35c55 57 107 93 153 93
c24 0 38 -13 38 -35c0 -33 -19 -75 -54 -122c52 -33 95 -78 119 -127c0 -5 -1 -7 -3 -7c-1 0 -3 1 -4 5c-24 48 -65 89 -116 123zM935 661c-22 14 -46 26 -71 37c-12 5 -25 10 -38 15c-64 -73 -134 -185 -216 -301c45 20 90 46 134 76c87 60 150 119 191 173zM802 720
c-71 23 -154 33 -229 33c-129 0 -244 -27 -332 -76c-93 -52 -140 -124 -140 -193c0 -100 80 -142 194 -142c75 0 152 12 229 37c99 124 193 254 278 341zM177 39c-45 16 -90 28 -137 28c-86 0 -100 -27 -100 -43c0 -22 24 -36 78 -36c51 0 105 18 159 51zM1058 936
c-53 -46 -130 -87 -186 -103l-1 9c52 17 126 65 171 111c13 13 16 20 29 20c4 0 8 -2 8 -6c0 -8 -7 -19 -21 -31z" />
    <glyph glyph-name="lacute" unicode="&#x13a;" horiz-adv-x="210" 
d="M215 143c-70 -82 -151 -156 -197 -156c-22 0 -33 10 -33 32c0 48 55 113 214 310c3 3 1 6 -2 3c-63 -55 -146 -138 -193 -190l-7 7c43 51 149 156 234 225c48 60 351 460 410 460c13 0 18 -7 18 -20c0 -62 -148 -262 -372 -414c-83 -104 -149 -195 -168 -220
c-46 -60 -112 -144 -112 -170c0 -7 4 -13 12 -13c41 0 121 73 189 153zM306 427c-2 -3 0 -4 3 -2c226 168 338 338 338 384c0 8 -3 12 -10 12c-31 0 -203 -226 -331 -394zM833 987c-53 -46 -130 -87 -186 -103l-1 9c52 17 126 65 171 111c13 13 16 20 29 20c4 0 8 -2 8 -6
c0 -8 -7 -19 -21 -31z" />
    <glyph glyph-name="Ncommaaccent" unicode="&#x145;" horiz-adv-x="987" 
d="M743 385c-98 52 -223 87 -365 87c-357 0 -468 -171 -468 -289c0 -100 82 -201 259 -201c248 0 424 189 574 403zM940 219c-51 -83 -113 -178 -193 -279c-2 -2 -4 -3 -6 -3c-5 0 -9 3 -9 8c0 3 1 5 3 7c76 116 106 225 134 345c-25 22 -54 44 -85 64
c-121 -211 -281 -408 -593 -408c-118 0 -292 64 -292 230c0 125 110 299 479 299c140 0 267 -35 370 -89c106 151 198 315 297 426c2 2 4 3 7 3c4 0 8 -3 8 -8c0 -3 -1 -5 -3 -8c-78 -136 -109 -253 -146 -402c-9 -36 -18 -73 -27 -108c21 -19 39 -39 55 -60
c131 224 207 410 374 410c57 0 76 -20 76 -34c0 -7 -5 -12 -12 -12c-27 0 -31 25 -81 25c-137 0 -208 -161 -351 -397c19 -25 34 -52 46 -80c1 -1 2 -3 2 -4c0 -4 -3 -6 -6 -6c-2 0 -3 2 -3 5c-11 25 -25 51 -44 76zM933 228c-15 20 -32 39 -52 57
c-25 -99 -51 -190 -95 -267c2 0 3 -5 4 -4c55 71 101 143 143 214zM872 307c31 130 60 274 151 461c-2 0 -3 5 -4 3c-81 -100 -146 -253 -230 -402c30 -19 58 -39 83 -62zM552 -109c-5 -2 -9 -3 -14 -3c-14 0 -25 10 -25 26c0 14 12 26 26 26c23 0 26 -21 26 -34
c0 -57 -57 -99 -111 -99v8c51 0 93 42 98 76z" />
    <glyph glyph-name="ncommaaccent" unicode="&#x146;" horiz-adv-x="389" 
d="M43 0h-51c86 108 238 291 238 328c0 6 -2 9 -8 9c-28 0 -131 -94 -218 -195l-7 7c63 71 184 200 231 200c13 0 20 -10 20 -22c0 -33 -28 -71 -105 -191l2 -2c114 127 201 215 238 215c12 0 21 -10 21 -31c0 -101 -208 -258 -208 -305c0 -9 5 -13 13 -13
c40 0 135 100 178 150l7 -7c-43 -49 -143 -153 -185 -153c-14 0 -28 8 -28 33c0 92 207 248 207 304c0 9 -3 11 -9 11c-41 0 -224 -202 -336 -338zM69 -104c-5 -3 -9 -4 -14 -4c-14 0 -25 10 -25 27c0 14 12 26 26 26c23 0 26 -21 26 -35c0 -56 -56 -99 -110 -99v9
c50 0 92 42 97 76z" />
    <glyph glyph-name="Nacute" unicode="&#x143;" horiz-adv-x="987" 
d="M743 385c-98 52 -223 87 -365 87c-357 0 -468 -171 -468 -289c0 -100 82 -201 259 -201c248 0 424 189 574 403zM940 219c-51 -83 -113 -178 -193 -279c-2 -2 -4 -3 -6 -3c-5 0 -9 3 -9 8c0 3 1 5 3 7c76 116 106 225 134 345c-25 22 -54 44 -85 64
c-121 -211 -281 -408 -593 -408c-118 0 -292 64 -292 230c0 125 110 299 479 299c140 0 267 -35 370 -89c106 151 198 315 297 426c2 2 4 3 7 3c4 0 8 -3 8 -8c0 -3 -1 -5 -3 -8c-78 -136 -109 -253 -146 -402c-9 -36 -18 -73 -27 -108c21 -19 39 -39 55 -60
c131 224 207 410 374 410c57 0 76 -20 76 -34c0 -7 -5 -12 -12 -12c-27 0 -31 25 -81 25c-137 0 -208 -161 -351 -397c19 -25 34 -52 46 -80c1 -1 2 -3 2 -4c0 -4 -3 -6 -6 -6c-2 0 -3 2 -3 5c-11 25 -25 51 -44 76zM933 228c-15 20 -32 39 -52 57
c-25 -99 -51 -190 -95 -267c2 0 3 -5 4 -4c55 71 101 143 143 214zM872 307c31 130 60 274 151 461c-2 0 -3 5 -4 3c-81 -100 -146 -253 -230 -402c30 -19 58 -39 83 -62zM1281 790c-54 -32 -133 -61 -191 -72l-1 6c54 12 129 45 176 77c13 10 16 14 29 14c5 0 9 -1 9 -4
c0 -5 -8 -13 -22 -21z" />
    <glyph glyph-name="nacute" unicode="&#x144;" horiz-adv-x="389" 
d="M43 0h-51c86 108 238 291 238 328c0 6 -2 9 -8 9c-28 0 -131 -94 -218 -195l-7 7c63 71 184 200 231 200c13 0 20 -10 20 -22c0 -33 -28 -71 -105 -191l2 -2c114 127 201 215 238 215c12 0 21 -10 21 -31c0 -101 -208 -258 -208 -305c0 -9 5 -13 13 -13
c40 0 135 100 178 150l7 -7c-43 -49 -143 -153 -185 -153c-14 0 -28 8 -28 33c0 92 207 248 207 304c0 9 -3 11 -9 11c-41 0 -224 -202 -336 -338zM513 549c-53 -46 -130 -87 -186 -103l-1 9c52 17 126 65 171 111c13 13 16 20 29 20c4 0 8 -2 8 -6c0 -8 -7 -19 -21 -31z
" />
    <glyph glyph-name="Ncaron" unicode="&#x147;" horiz-adv-x="986" 
d="M1138 720c47 46 133 96 176 103l1 -9c-47 -12 -128 -65 -173 -111c-13 -13 -14 -20 -27 -20c-4 0 -8 2 -8 6c0 2 0 4 4 11c9 19 29 68 29 105c0 5 -1 9 -2 11l7 7c4 -7 7 -20 7 -36c0 -19 -4 -43 -14 -67zM743 385c-98 52 -223 87 -365 87c-357 0 -468 -171 -468 -289
c0 -100 82 -201 259 -201c248 0 424 189 574 403zM940 219c-51 -83 -113 -178 -193 -279c-2 -2 -4 -3 -6 -3c-5 0 -9 3 -9 8c0 3 1 5 3 7c76 116 106 225 134 345c-25 22 -54 44 -85 64c-121 -211 -281 -408 -593 -408c-118 0 -292 64 -292 230c0 125 110 299 479 299
c140 0 267 -35 370 -89c106 151 198 315 297 426c2 2 4 3 7 3c4 0 8 -3 8 -8c0 -3 -1 -5 -3 -8c-78 -136 -109 -253 -146 -402c-9 -36 -18 -73 -27 -108c21 -19 39 -39 55 -60c131 224 207 410 374 410c57 0 76 -20 76 -34c0 -7 -5 -12 -12 -12c-27 0 -31 25 -81 25
c-137 0 -208 -161 -351 -397c19 -25 34 -52 46 -80c1 -1 2 -3 2 -4c0 -4 -3 -6 -6 -6c-2 0 -3 2 -3 5c-11 25 -25 51 -44 76zM933 228c-15 20 -32 39 -52 57c-25 -99 -51 -190 -95 -267c2 0 3 -5 4 -4c55 71 101 143 143 214zM872 307c31 130 60 274 151 461c-2 0 -3 5 -4 3
c-81 -100 -146 -253 -230 -402c30 -19 58 -39 83 -62z" />
    <glyph glyph-name="ncaron" unicode="&#x148;" horiz-adv-x="389" 
d="M43 0h-51c86 108 238 291 238 328c0 6 -2 9 -8 9c-28 0 -131 -94 -218 -195l-7 7c63 71 184 200 231 200c13 0 20 -10 20 -22c0 -33 -28 -71 -105 -191l2 -2c114 127 201 215 238 215c12 0 21 -10 21 -31c0 -101 -208 -258 -208 -305c0 -9 5 -13 13 -13
c40 0 135 100 178 150l7 -7c-43 -49 -143 -153 -185 -153c-14 0 -28 8 -28 33c0 92 207 248 207 304c0 9 -3 11 -9 11c-41 0 -224 -202 -336 -338zM379 483c47 46 133 96 176 103l1 -8c-47 -12 -128 -66 -173 -112c-13 -13 -14 -20 -27 -20c-4 0 -8 2 -8 6c0 2 0 4 4 11
c16 35 29 72 29 102c0 8 -1 15 -2 17l7 4c4 -7 7 -20 7 -36c0 -19 -4 -43 -14 -67z" />
    <glyph glyph-name="Ohungarumlaut" unicode="&#x150;" horiz-adv-x="932" 
d="M196 58c-22 -5 -42 -7 -60 -7c-66 0 -123 21 -146 79c0 8 2 12 4 12c1 0 2 -1 3 -4c19 -53 69 -78 138 -78c18 0 37 2 57 7c-9 23 -14 51 -14 83c0 172 94 328 219 451c170 167 399 273 531 273c67 0 104 -31 104 -84c0 -35 -16 -80 -52 -133c13 -25 20 -58 20 -98
c0 -338 -382 -599 -625 -599c-84 0 -149 30 -179 98zM224 75c66 20 141 58 215 103c-29 19 -47 51 -47 100c0 222 265 453 446 453c63 0 111 -20 138 -65c32 49 47 91 47 124c0 47 -30 74 -83 74c-208 0 -723 -367 -723 -735c0 -20 2 -38 7 -54zM227 66
c22 -64 82 -93 158 -93c228 0 605 254 605 586c0 36 -5 65 -16 89c-105 -152 -319 -346 -516 -469c16 -6 32 -9 51 -9c59 0 135 32 193 92c2 2 4 3 5 3c3 0 4 -3 4 -7c-61 -62 -140 -97 -204 -97c-22 0 -41 4 -58 12c-81 -50 -157 -88 -222 -107zM449 184
c206 130 422 327 521 473c-24 46 -70 65 -132 65c-176 0 -427 -298 -427 -465c0 -35 15 -59 38 -73zM975 969c12 13 32 21 53 21c13 0 19 -2 19 -7c0 -3 -4 -8 -9 -13c-21 -23 -172 -73 -203 -78c-3 0 -5 1 -5 2s1 3 3 3c64 18 113 41 142 72zM1107 969c12 13 32 21 53 21
c13 0 19 -2 19 -7c0 -3 -4 -8 -8 -13c-22 -23 -173 -73 -203 -78c-3 0 -6 1 -6 2s1 3 4 3c62 18 112 41 141 72z" />
    <glyph glyph-name="ohungarumlaut" unicode="&#x151;" horiz-adv-x="276" 
d="M221 149c-71 -86 -154 -162 -197 -162c-25 0 -37 17 -37 44c0 40 32 113 99 182c0 0 1 2 -2 2c-23 -17 -51 -40 -80 -73l-7 7c33 37 223 200 286 200c19 0 29 -12 29 -30c0 -33 -27 -93 -79 -156c-3 -4 -5 -9 -5 -19c0 -9 5 -16 14 -16c8 0 19 6 32 22l7 -7
c-16 -18 -29 -25 -39 -25c-12 0 -22 9 -22 23c0 4 0 6 1 8zM27 -1c21 0 73 20 195 167c3 39 25 75 40 75c3 0 6 -2 8 -5c19 32 30 63 30 80c0 14 -6 21 -17 21c-47 0 -124 -89 -180 -157c-53 -64 -92 -134 -92 -165c0 -11 5 -16 16 -16zM359 546c11 18 31 30 51 30
c12 0 18 -4 18 -10c0 -5 -3 -12 -8 -19c-20 -33 -166 -104 -195 -112c-3 0 -5 2 -5 3c0 2 1 4 3 5c61 25 108 59 136 103zM486 546c11 18 31 30 51 30c12 0 18 -4 18 -10c0 -5 -3 -12 -8 -19c-20 -33 -166 -104 -195 -112c-3 0 -5 2 -5 3c0 2 1 4 3 5c60 25 108 59 136 103z
" />
    <glyph glyph-name="Omacron" unicode="&#x14c;" horiz-adv-x="932" 
d="M196 58c-22 -5 -42 -7 -60 -7c-66 0 -123 21 -146 79c0 8 2 12 4 12c1 0 2 -1 3 -4c19 -53 69 -78 138 -78c18 0 37 2 57 7c-9 23 -14 51 -14 83c0 172 94 328 219 451c170 167 399 273 531 273c67 0 104 -31 104 -84c0 -35 -16 -80 -52 -133c13 -25 20 -58 20 -98
c0 -338 -382 -599 -625 -599c-84 0 -149 30 -179 98zM224 75c66 20 141 58 215 103c-29 19 -47 51 -47 100c0 222 265 453 446 453c63 0 111 -20 138 -65c32 49 47 91 47 124c0 47 -30 74 -83 74c-208 0 -723 -367 -723 -735c0 -20 2 -38 7 -54zM227 66
c22 -64 82 -93 158 -93c228 0 605 254 605 586c0 36 -5 65 -16 89c-105 -152 -319 -346 -516 -469c16 -6 32 -9 51 -9c59 0 135 32 193 92c2 2 4 3 5 3c3 0 4 -3 4 -7c-61 -62 -140 -97 -204 -97c-22 0 -41 4 -58 12c-81 -50 -157 -88 -222 -107zM449 184
c206 130 422 327 521 473c-24 46 -70 65 -132 65c-176 0 -427 -298 -427 -465c0 -35 15 -59 38 -73zM874 937h179l-11 -22h-179z" />
    <glyph glyph-name="omacron" unicode="&#x14d;" horiz-adv-x="276" 
d="M221 149c-71 -86 -154 -162 -197 -162c-25 0 -37 17 -37 44c0 40 32 113 99 182c0 0 1 2 -2 2c-23 -17 -51 -40 -80 -73l-7 7c33 37 223 200 286 200c19 0 29 -12 29 -30c0 -33 -27 -93 -79 -156c-3 -4 -5 -9 -5 -19c0 -9 5 -16 14 -16c8 0 19 6 32 22l7 -7
c-16 -18 -29 -25 -39 -25c-12 0 -22 9 -22 23c0 4 0 6 1 8zM27 -1c21 0 73 20 195 167c3 39 25 75 40 75c3 0 6 -2 8 -5c19 32 30 63 30 80c0 14 -6 21 -17 21c-47 0 -124 -89 -180 -157c-53 -64 -92 -134 -92 -165c0 -11 5 -16 16 -16zM282 492h179l-11 -22h-179z" />
    <glyph glyph-name="Racute" unicode="&#x154;" horiz-adv-x="933" 
d="M1186 936c-53 -46 -130 -87 -186 -103l-1 9c52 17 126 65 171 111c13 13 16 20 29 20c4 0 8 -2 8 -6c0 -8 -7 -19 -21 -31zM479 240c-90 89 -197 125 -294 125c-151 0 -276 -89 -276 -196c0 -87 68 -145 200 -145c150 0 266 92 370 216zM817 424c6 -14 9 -31 9 -51
c0 -120 -99 -322 -99 -363c0 -7 4 -13 12 -13c41 0 121 73 189 153l7 -7c-70 -82 -151 -156 -197 -156c-22 0 -36 10 -36 48c0 100 101 276 101 365c0 7 -1 14 -2 20c-15 -3 -28 -5 -40 -5c-35 0 -52 13 -52 26c0 12 15 23 41 23c30 0 49 -10 61 -28c41 18 86 56 120 105
c38 56 55 111 55 160c0 28 -5 54 -16 77c-185 -98 -283 -368 -444 -570c72 -87 132 -214 162 -394c0 -5 -1 -7 -3 -7s-3 0 -5 2c-32 173 -90 300 -163 389c-95 -115 -216 -204 -398 -204c-116 0 -221 67 -221 176c0 113 132 205 290 205c98 0 206 -36 299 -126
c155 185 284 439 478 539c-34 67 -109 110 -205 110c-6 0 -13 0 -20 -1c7 -18 11 -41 11 -69c0 -224 -191 -391 -332 -391c-63 0 -94 41 -94 103c0 109 75 210 174 278c76 51 151 79 227 88c-21 48 -65 69 -118 69c-156 0 -396 -188 -396 -443c0 -3 -2 -5 -4 -5s-4 2 -4 5
c0 264 243 452 405 452c58 0 105 -24 128 -77h21c101 0 181 -45 222 -113c25 12 52 21 83 27c4 0 5 -3 5 -6c0 -2 -1 -4 -3 -4c-27 -5 -55 -14 -80 -26c16 -30 25 -64 25 -100c0 -52 -17 -109 -56 -166c-36 -53 -90 -83 -137 -95zM797 430c-7 16 -23 26 -50 26
c-16 0 -26 -7 -26 -15s12 -17 40 -17c11 0 23 2 36 6zM730 897c-60 -6 -141 -31 -223 -88c-98 -67 -172 -167 -172 -269c0 -60 28 -92 84 -92c61 0 128 39 205 124c109 121 117 216 117 256c0 27 -4 50 -11 69z" />
    <glyph glyph-name="racute" unicode="&#x155;" horiz-adv-x="254" 
d="M-3 149c39 40 58 59 117 119c40 41 67 70 87 92c-1 5 -1 10 -1 15c0 30 18 51 37 51c7 0 12 -4 12 -13c0 -14 -14 -29 -38 -54c4 -26 26 -51 46 -66c-38 -38 -207 -253 -207 -282c0 -7 3 -11 11 -11c34 0 123 75 170 126c8 9 15 17 21 24l7 -7c-6 -7 -14 -16 -22 -25
c-48 -51 -140 -128 -176 -128c-14 0 -29 8 -29 33c0 79 142 222 198 279c-10 11 -23 29 -27 47c-65 -71 -151 -157 -199 -207zM210 370c19 20 28 34 28 42c0 3 -2 4 -4 4c-12 0 -24 -22 -24 -46zM465 549c-53 -46 -130 -87 -186 -103l-1 9c52 17 126 65 171 111
c13 13 16 20 29 20c4 0 8 -2 8 -6c0 -8 -7 -19 -21 -31z" />
    <glyph glyph-name="Rcaron" unicode="&#x158;" horiz-adv-x="933" 
d="M1018 882c47 46 133 96 176 103l1 -9c-47 -12 -128 -65 -173 -111c-13 -13 -14 -20 -27 -20c-4 0 -8 2 -8 6c0 2 0 4 4 11c9 19 29 68 29 105c0 5 -1 9 -2 11l7 7c4 -7 7 -20 7 -36c0 -19 -4 -43 -14 -67zM479 240c-90 89 -197 125 -294 125c-151 0 -276 -89 -276 -196
c0 -87 68 -145 200 -145c150 0 266 92 370 216zM817 424c6 -14 9 -31 9 -51c0 -120 -102 -322 -102 -363c0 -7 4 -13 12 -13c41 0 116 73 195 153l7 -7c-81 -82 -157 -156 -203 -156c-22 0 -36 10 -36 48c0 100 104 276 104 365c0 7 -1 14 -2 20c-15 -3 -28 -5 -40 -5
c-35 0 -52 13 -52 26c0 12 15 23 41 23c30 0 49 -10 61 -28c41 18 86 56 120 105c38 56 55 111 55 160c0 28 -5 54 -16 77c-185 -98 -283 -368 -444 -570c72 -87 132 -214 162 -394c0 -5 -1 -7 -3 -7s-3 0 -5 2c-32 173 -90 300 -163 389c-95 -115 -216 -204 -398 -204
c-116 0 -221 67 -221 176c0 113 132 205 290 205c98 0 206 -36 299 -126c155 185 284 439 478 539c-34 67 -109 110 -205 110c-6 0 -13 0 -20 -1c7 -18 11 -41 11 -69c0 -224 -191 -391 -332 -391c-63 0 -94 41 -94 103c0 109 74 215 174 282c76 51 151 75 227 84
c-21 48 -65 69 -118 69c-156 0 -396 -188 -396 -443c0 -3 -2 -5 -4 -5s-4 2 -4 5c0 264 243 452 405 452c58 0 105 -24 128 -77h21c101 0 181 -45 222 -113c25 12 52 21 83 27c4 0 5 -3 5 -6c0 -2 -1 -4 -3 -4c-27 -5 -55 -14 -80 -26c16 -30 25 -64 25 -100
c0 -52 -17 -109 -56 -166c-36 -53 -90 -83 -137 -95zM797 430c-7 16 -23 26 -50 26c-16 0 -26 -7 -26 -15s12 -17 40 -17c11 0 23 2 36 6zM730 897c-60 -6 -143 -27 -225 -83c-98 -67 -170 -172 -170 -274c0 -60 28 -92 84 -92c61 0 128 39 205 124c109 121 117 216 117 256
c0 27 -4 50 -11 69z" />
    <glyph glyph-name="rcaron" unicode="&#x159;" horiz-adv-x="254" 
d="M-3 149c39 40 58 59 117 119c40 41 67 70 87 92c-1 5 -1 10 -1 15c0 30 18 51 37 51c7 0 12 -4 12 -13c0 -14 -14 -29 -38 -54c4 -26 26 -51 46 -66c-38 -38 -207 -253 -207 -282c0 -7 3 -11 11 -11c34 0 123 75 170 126c8 9 15 17 21 24l7 -7c-6 -7 -14 -16 -22 -25
c-48 -51 -140 -128 -176 -128c-14 0 -29 8 -29 33c0 79 142 222 198 279c-10 11 -23 29 -27 47c-65 -71 -151 -157 -199 -207zM210 370c19 20 28 34 28 42c0 3 -2 4 -4 4c-12 0 -24 -22 -24 -46zM328 483c47 46 133 96 176 103l1 -8c-47 -12 -128 -66 -173 -112
c-13 -13 -14 -20 -27 -20c-4 0 -8 2 -8 6c0 2 0 4 4 11c16 35 29 72 29 102c0 8 -1 15 -2 17l7 4c4 -7 7 -20 7 -36c0 -19 -4 -43 -14 -67z" />
    <glyph glyph-name="Rcommaaccent" unicode="&#x156;" horiz-adv-x="933" 
d="M479 240c-90 89 -197 125 -294 125c-151 0 -276 -89 -276 -196c0 -87 68 -145 200 -145c150 0 266 92 370 216zM817 424c6 -14 9 -31 9 -51c0 -120 -102 -322 -102 -363c0 -7 4 -13 12 -13c41 0 116 73 195 153l7 -7c-81 -82 -157 -156 -203 -156c-22 0 -36 10 -36 48
c0 100 104 276 104 365c0 7 -1 14 -2 20c-15 -3 -28 -5 -40 -5c-35 0 -52 13 -52 26c0 12 15 23 41 23c30 0 49 -10 61 -28c41 18 86 56 120 105c38 56 55 111 55 160c0 28 -5 54 -16 77c-185 -98 -283 -368 -444 -570c72 -87 132 -214 162 -394c0 -5 -1 -7 -3 -7s-3 0 -5 2
c-32 173 -90 300 -163 389c-95 -115 -216 -204 -398 -204c-116 0 -221 67 -221 176c0 113 132 205 290 205c98 0 206 -36 299 -126c155 185 284 439 478 539c-34 67 -109 110 -205 110c-6 0 -13 0 -20 -1c7 -18 11 -41 11 -69c0 -224 -191 -391 -332 -391
c-63 0 -94 41 -94 103c0 109 74 215 174 282c76 51 151 75 227 84c-21 48 -65 69 -118 69c-156 0 -396 -188 -396 -443c0 -3 -2 -5 -4 -5s-4 2 -4 5c0 264 243 452 405 452c58 0 105 -24 128 -77h21c101 0 181 -45 222 -113c25 12 52 21 83 27c4 0 5 -3 5 -6
c0 -2 -1 -4 -3 -4c-27 -5 -55 -14 -80 -26c16 -30 25 -64 25 -100c0 -52 -17 -109 -56 -166c-36 -53 -90 -83 -137 -95zM797 430c-7 16 -23 26 -50 26c-16 0 -26 -7 -26 -15s12 -17 40 -17c11 0 23 2 36 6zM730 897c-60 -6 -143 -27 -225 -83c-98 -67 -170 -172 -170 -274
c0 -60 28 -92 84 -92c61 0 128 39 205 124c109 121 117 216 117 256c0 27 -4 50 -11 69zM455 -96c-5 -3 -9 -3 -14 -3c-14 0 -25 9 -25 26c0 14 12 26 26 26c23 0 26 -21 26 -34c0 -57 -57 -99 -111 -99v8c51 0 93 42 98 76z" />
    <glyph glyph-name="rcommaaccent" unicode="&#x157;" horiz-adv-x="254" 
d="M-3 149c39 40 58 59 117 119c40 41 67 70 87 92c-1 5 -1 10 -1 15c0 30 18 51 37 51c7 0 12 -4 12 -13c0 -14 -14 -29 -38 -54c4 -26 26 -51 46 -66c-38 -38 -207 -253 -207 -282c0 -7 3 -11 11 -11c34 0 123 75 170 126c8 9 15 17 21 24l7 -7c-6 -7 -14 -16 -22 -25
c-48 -51 -140 -128 -176 -128c-14 0 -29 8 -29 33c0 79 142 222 198 279c-10 11 -23 29 -27 47c-65 -71 -151 -157 -199 -207zM210 370c19 20 28 34 28 42c0 3 -2 4 -4 4c-12 0 -24 -22 -24 -46zM-15 -91c-4 -2 -9 -3 -13 -3c-15 0 -26 10 -26 26c0 14 12 26 27 26
c22 0 26 -21 26 -34c0 -57 -57 -99 -111 -99v8c50 0 93 42 97 76z" />
    <glyph glyph-name="Sacute" unicode="&#x15a;" horiz-adv-x="742" 
d="M756 492c110 77 204 157 271 237c46 55 65 100 65 132c0 33 -19 51 -48 51c-34 0 -84 -27 -132 -88c-53 -67 -106 -176 -156 -332zM-19 128c180 44 380 130 562 231c-65 33 -142 52 -225 52c-212 0 -342 -130 -342 -246c0 -12 2 -25 5 -37zM-31 125c-3 13 -4 25 -4 38
c0 137 145 258 353 258c78 0 161 -20 234 -57c51 28 104 60 152 92c75 188 139 306 197 377c51 61 104 89 143 89c35 0 59 -22 59 -60c0 -34 -20 -82 -68 -138c-73 -85 -173 -170 -284 -247c-25 -76 -51 -143 -76 -201c26 -27 62 -74 76 -121c0 -9 -2 -12 -4 -12s-5 2 -5 8
c-12 42 -46 89 -72 115c-97 -209 -223 -300 -443 -300c-132 0 -228 63 -255 150c-41 -10 -79 -18 -115 -24c-5 0 -7 3 -7 5s1 4 3 4c38 6 77 14 116 24zM-16 119c22 -65 92 -121 234 -121c183 0 315 116 413 304c-24 19 -50 36 -78 52c-184 -104 -387 -188 -569 -235z
M636 311c20 39 41 83 60 129c-42 -27 -88 -55 -134 -81c26 -14 51 -29 74 -48zM1165 1006c-55 -32 -134 -60 -191 -71l-1 6c53 12 129 45 175 77c14 9 17 14 30 14c4 0 8 -1 8 -4c0 -6 -7 -13 -21 -22z" />
    <glyph glyph-name="sacute" unicode="&#x15b;" horiz-adv-x="200" 
d="M182 327c-61 -66 -135 -140 -178 -185l-7 7c39 40 58 59 117 119c40 41 67 70 87 92c26 28 43 52 54 52c5 0 8 -3 8 -8c0 -3 -1 -6 -5 -9c-29 -22 -55 -52 -69 -87c-15 -37 -1 -82 -24 -148c-38 -107 -136 -173 -180 -173c-27 0 -37 18 -37 39c0 31 22 69 52 69
c15 0 21 -8 21 -19c0 -14 -10 -26 -26 -26c-17 0 -32 -14 -32 -31c0 -11 7 -21 22 -21c44 0 118 79 153 199c18 60 30 98 48 127c0 5 -3 4 -4 3zM411 549c-53 -46 -130 -87 -186 -103l-1 9c52 17 126 65 171 111c13 13 16 20 29 20c4 0 8 -2 8 -6c0 -8 -7 -19 -21 -31z" />
    <glyph glyph-name="Tcaron" unicode="&#x164;" horiz-adv-x="843" 
d="M1291 897c47 46 133 96 176 103l1 -9c-47 -12 -128 -65 -173 -111c-13 -13 -14 -20 -27 -20c-4 0 -8 2 -8 6c0 2 0 4 4 11c9 19 29 68 29 105c0 5 -1 9 -2 11l7 7c4 -7 7 -20 7 -36c0 -19 -4 -43 -14 -67zM1146 783c-140 -64 -220 -267 -340 -454c45 -36 79 -76 101 -112
c6 -7 -9 -15 -9 -5c-22 37 -55 76 -97 109c-126 -194 -295 -368 -607 -368c-191 0 -294 90 -294 198c0 27 6 55 20 83c50 103 176 178 350 205c22 250 296 590 562 590c84 0 135 -44 149 -109c8 1 19 2 30 2c87 0 147 -22 193 -49c81 -47 115 -111 162 -111
c18 0 18 10 28 10c7 0 9 -12 2 -15c-10 -5 -20 -7 -30 -7c-52 0 -100 62 -177 109c-46 29 -104 52 -179 52c-8 0 -16 0 -26 -1c3 -16 5 -34 5 -54c0 -144 -142 -365 -300 -458c6 -3 12 -5 18 -8c23 -11 43 -22 62 -35c146 193 256 393 373 437c8 4 11 -6 4 -9zM763 347
c-32 21 -57 34 -85 45c-43 -23 -87 -38 -130 -38c-55 0 -79 30 -79 84c-19 1 -39 2 -59 2c-47 0 -91 -3 -132 -9c0 -9 -1 -17 -1 -26c0 -103 48 -183 145 -222c9 0 2 -14 -4 -9c-106 42 -150 128 -150 230c0 8 0 16 1 25c-237 -36 -359 -165 -359 -277
c0 -95 87 -176 264 -176c263 0 444 181 589 371zM970 919c-13 59 -63 100 -138 100c-163 0 -379 -154 -493 -385c-34 -68 -54 -134 -60 -193c40 6 84 9 131 9c20 0 40 -1 60 -2c4 143 244 449 500 471zM972 909c-114 -9 -245 -79 -362 -213c-80 -91 -127 -183 -130 -248
c62 -5 119 -16 178 -37c134 87 318 280 318 445c0 19 -1 37 -4 53zM647 403c-47 17 -104 29 -168 34c0 -45 20 -73 67 -73c23 0 61 14 101 39z" />
    <glyph glyph-name="tcaron" unicode="&#x165;" horiz-adv-x="192" 
d="M536 549c-52 -86 -144 -137 -202 -137c-10 0 -21 1 -30 4l-63 -81c-85 -109 -239 -294 -239 -326c0 -8 3 -12 11 -12c33 0 144 113 177 153l7 -7c-24 -28 -145 -159 -192 -159c-13 0 -20 10 -20 22c0 53 66 140 206 318l-2 2c-66 -66 -154 -150 -185 -184l-7 7
c36 41 223 207 272 275c-11 2 -23 3 -33 3c-27 0 -55 -10 -83 -44c-1 -2 -3 -2 -5 -2c-4 0 -7 2 -7 5c0 1 1 2 2 3c41 49 76 62 109 62c12 0 24 -2 35 -4l126 159h42l-133 -168c9 -2 18 -3 27 -3c86 0 134 66 161 131c5 13 6 20 19 20c8 0 14 -6 14 -16c0 -5 -2 -13 -7 -21z
" />
    <glyph glyph-name="Umacron" unicode="&#x16a;" horiz-adv-x="794" 
d="M592 822c5 -17 7 -36 7 -58c0 -204 -200 -389 -341 -389c-65 0 -96 41 -96 105c0 198 246 347 411 349c-13 44 -44 73 -109 73c-157 0 -406 -206 -406 -445c0 -52 14 -95 38 -128c1 -1 2 -2 2 -4s-3 -4 -5 -4s-3 1 -4 2c-28 38 -39 84 -39 134c0 247 252 453 415 453
c68 0 108 -30 125 -81c79 -4 142 -41 142 -153c0 -80 -49 -160 -117 -234c-157 -169 -404 -347 -404 -421c0 -16 10 -25 25 -25c138 0 651 587 716 647c93 86 152 125 214 125c11 0 16 -5 16 -10s-6 -11 -20 -11c-68 0 -137 -40 -230 -171c-221 -310 -341 -507 -341 -566
c0 -7 4 -13 12 -13c41 0 121 73 189 153l7 -7c-70 -82 -151 -156 -197 -156c-22 0 -33 10 -33 32c0 153 259 454 383 603c2 2 2 3 2 4c0 2 -1 2 -6 2c-37 -28 -560 -642 -712 -642c-24 0 -39 14 -39 42c0 110 233 299 387 459c76 79 127 156 127 221c0 72 -50 109 -119 114z
M576 822c-156 -1 -404 -140 -404 -342c0 -58 33 -95 87 -95c131 0 322 243 322 382c0 19 -1 36 -5 55zM851 813h179l-11 -22h-179z" />
    <glyph glyph-name="umacron" unicode="&#x16b;" horiz-adv-x="327" 
d="M139 276c-37 -39 -74 -72 -135 -134l-7 7c65 63 162 158 187 186h52c-77 -92 -245 -286 -245 -328c0 -7 3 -9 8 -9c41 0 221 203 333 337h51c-86 -106 -238 -290 -238 -327c0 -6 2 -9 8 -9c23 0 96 63 171 151l7 -7c-65 -78 -147 -156 -184 -156c-13 0 -20 10 -20 22
c0 33 28 72 105 192l-2 2c-114 -127 -197 -216 -234 -216c-12 0 -21 10 -21 28c0 61 107 183 168 258c4 4 -1 9 -4 3zM280 477h179l-11 -22h-179z" />
    <glyph glyph-name="Uring" unicode="&#x16e;" horiz-adv-x="794" 
d="M592 822c5 -17 7 -36 7 -58c0 -204 -200 -389 -341 -389c-65 0 -96 41 -96 105c0 198 246 347 411 349c-13 44 -44 73 -109 73c-157 0 -406 -206 -406 -445c0 -52 14 -95 38 -128c1 -1 2 -2 2 -4s-3 -4 -5 -4s-3 1 -4 2c-28 38 -39 84 -39 134c0 247 252 453 415 453
c68 0 108 -30 125 -81c79 -4 142 -41 142 -153c0 -80 -49 -160 -117 -234c-157 -169 -404 -347 -404 -421c0 -16 10 -25 25 -25c138 0 651 587 716 647c93 86 152 125 214 125c11 0 16 -5 16 -10s-6 -11 -20 -11c-68 0 -137 -40 -230 -171c-221 -310 -341 -507 -341 -566
c0 -7 4 -13 12 -13c41 0 121 73 189 153l7 -7c-70 -82 -151 -156 -197 -156c-22 0 -33 10 -33 32c0 153 259 454 383 603c2 2 2 3 2 4c0 2 -1 2 -6 2c-37 -28 -560 -642 -712 -642c-24 0 -39 14 -39 42c0 110 233 299 387 459c76 79 127 156 127 221c0 72 -50 109 -119 114z
M576 822c-156 -1 -404 -140 -404 -342c0 -58 33 -95 87 -95c131 0 322 243 322 382c0 19 -1 36 -5 55zM1008 913c16 0 25 -9 25 -24c0 -14 -7 -32 -21 -52c-29 -42 -79 -76 -110 -76c-16 0 -25 9 -25 24c0 14 7 32 21 52c29 42 79 76 110 76zM1005 898
c-24 0 -66 -29 -95 -70c-11 -15 -17 -29 -17 -39c0 -8 4 -13 14 -13c18 0 64 27 93 70c7 10 18 29 18 41c0 6 -3 11 -13 11z" />
    <glyph glyph-name="uring" unicode="&#x16f;" horiz-adv-x="327" 
d="M139 276c-37 -39 -74 -72 -135 -134l-7 7c65 63 162 158 187 186h52c-77 -92 -245 -286 -245 -328c0 -7 3 -9 8 -9c41 0 221 203 333 337h51c-86 -106 -238 -290 -238 -327c0 -6 2 -9 8 -9c23 0 96 63 171 151l7 -7c-65 -78 -147 -156 -184 -156c-13 0 -20 10 -20 22
c0 33 28 72 105 192l-2 2c-114 -127 -197 -216 -234 -216c-12 0 -21 10 -21 28c0 61 107 183 168 258c4 4 -1 9 -4 3zM439 585c16 0 25 -9 25 -24c0 -14 -7 -32 -21 -52c-29 -42 -79 -76 -110 -76c-16 0 -25 9 -25 24c0 14 7 32 21 52c29 42 79 76 110 76zM436 570
c-24 0 -66 -29 -95 -70c-11 -15 -17 -29 -17 -39c0 -8 4 -13 14 -13c18 0 64 27 93 70c7 10 18 29 18 41c0 6 -3 11 -13 11z" />
    <glyph glyph-name="Uhungarumlaut" unicode="&#x170;" horiz-adv-x="794" 
d="M592 822c5 -17 7 -36 7 -58c0 -204 -200 -389 -341 -389c-65 0 -96 41 -96 105c0 198 246 347 411 349c-13 44 -44 73 -109 73c-157 0 -406 -206 -406 -445c0 -52 14 -95 38 -128c1 -1 2 -2 2 -4s-3 -4 -5 -4s-3 1 -4 2c-28 38 -39 84 -39 134c0 247 252 453 415 453
c68 0 108 -30 125 -81c79 -4 142 -41 142 -153c0 -80 -49 -160 -117 -234c-157 -169 -404 -347 -404 -421c0 -16 10 -25 25 -25c138 0 651 587 716 647c93 86 152 125 214 125c11 0 16 -5 16 -10s-6 -11 -20 -11c-68 0 -137 -40 -230 -171c-221 -310 -341 -507 -341 -566
c0 -7 4 -13 12 -13c41 0 121 73 189 153l7 -7c-70 -82 -151 -156 -197 -156c-22 0 -33 10 -33 32c0 153 259 454 383 603c2 2 2 3 2 4c0 2 -1 2 -6 2c-37 -28 -560 -642 -712 -642c-24 0 -39 14 -39 42c0 110 233 299 387 459c76 79 127 156 127 221c0 72 -50 109 -119 114z
M576 822c-156 -1 -404 -140 -404 -342c0 -58 33 -95 87 -95c131 0 322 243 322 382c0 19 -1 36 -5 55zM927 835c12 13 32 21 53 21c13 0 19 -2 19 -7c0 -3 -4 -8 -8 -13c-22 -23 -173 -73 -204 -78c-3 0 -5 1 -5 2s1 3 3 3c64 18 113 41 142 72zM1059 835c12 13 33 21 53 21
c13 0 19 -2 19 -7c0 -3 -4 -8 -8 -13c-22 -23 -173 -73 -203 -78c-3 0 -5 1 -5 2s0 3 3 3c62 18 112 41 141 72z" />
    <glyph glyph-name="uhungarumlaut" unicode="&#x171;" horiz-adv-x="327" 
d="M139 276c-37 -39 -74 -72 -135 -134l-7 7c65 63 162 158 187 186h52c-77 -92 -245 -286 -245 -328c0 -7 3 -9 8 -9c41 0 221 203 333 337h51c-86 -106 -238 -290 -238 -327c0 -6 2 -9 8 -9c23 0 96 63 171 151l7 -7c-65 -78 -147 -156 -184 -156c-13 0 -20 10 -20 22
c0 33 28 72 105 192l-2 2c-114 -127 -197 -216 -234 -216c-12 0 -21 10 -21 28c0 61 107 183 168 258c4 4 -1 9 -4 3zM379 546c11 18 31 30 51 30c12 0 18 -4 18 -10c0 -5 -3 -12 -8 -19c-20 -33 -166 -104 -195 -112c-3 0 -5 2 -5 3c0 2 1 4 3 5c61 25 108 59 136 103z
M506 546c11 18 31 30 51 30c12 0 18 -4 18 -10c0 -5 -3 -12 -8 -19c-20 -33 -166 -104 -195 -112c-3 0 -5 2 -5 3c0 2 1 4 3 5c60 25 108 59 136 103z" />
    <glyph glyph-name="Uogonek" unicode="&#x172;" horiz-adv-x="794" 
d="M576 822c-156 -1 -404 -140 -404 -342c0 -58 33 -95 87 -95c131 0 322 243 322 382c0 19 -1 36 -5 55zM261 -10c-56 -41 -112 -110 -85 -171c16 -36 56 -43 98 -24c43 19 46 51 52 54c4 1 7 2 9 -2c1 -4 1 -8 -3 -12c-18 -26 -40 -43 -61 -52c-52 -24 -105 -6 -122 31
c-28 62 30 133 92 172h-5c-24 0 -39 14 -39 42c0 110 233 299 387 459c76 79 127 156 127 221c0 72 -50 109 -119 114c5 -17 7 -36 7 -58c0 -204 -200 -389 -341 -389c-65 0 -96 41 -96 105c0 198 246 347 411 349c-13 44 -44 73 -109 73c-157 0 -406 -206 -406 -445
c0 -52 14 -95 38 -128c1 -1 2 -2 2 -4s-3 -4 -5 -4s-3 1 -4 2c-28 38 -39 84 -39 134c0 247 252 453 415 453c68 0 108 -30 125 -81c79 -4 142 -41 142 -153c0 -80 -49 -160 -117 -234c-157 -169 -404 -347 -404 -421c0 -16 10 -25 25 -25c138 0 651 587 716 647
c93 86 152 125 214 125c11 0 16 -5 16 -10s-6 -11 -20 -11c-68 0 -137 -40 -230 -171c-221 -310 -341 -507 -341 -566c0 -7 4 -13 12 -13c41 0 121 73 189 153l7 -7c-70 -82 -151 -156 -197 -156c-22 0 -33 10 -33 32c0 153 259 454 383 603c2 2 2 3 2 4c0 2 -1 2 -6 2
c-35 -27 -510 -583 -687 -638z" />
    <glyph glyph-name="uogonek" unicode="&#x173;" horiz-adv-x="327" 
d="M159 -11c-55 -41 -111 -110 -84 -170c16 -36 56 -44 98 -25c43 19 46 51 52 54c4 2 7 3 9 -2c1 -3 1 -8 -3 -12c-18 -25 -40 -43 -61 -52c-52 -23 -105 -5 -122 32c-28 63 31 135 95 173h4c4 0 8 1 12 2zM209 19c-19 -15 -36 -25 -50 -30c17 13 35 23 50 30zM171 2l38 17
c-15 -7 -33 -17 -50 -30c-4 -1 -8 -2 -12 -2h-4c9 6 19 11 28 15zM171 2c-9 -4 -19 -9 -28 -15c-11 2 -16 11 -16 22c0 33 28 72 105 192l-2 2c-114 -127 -197 -216 -234 -216c-12 0 -21 10 -21 28c0 61 107 183 168 258c4 4 -1 9 -4 3c-37 -39 -74 -72 -135 -134l-7 7
c65 63 162 158 187 186h52c-77 -92 -245 -286 -245 -328c0 -7 3 -9 8 -9c41 0 221 203 333 337h51c-86 -106 -238 -290 -238 -327c0 -6 2 -9 8 -9c23 0 96 63 171 151l7 -7c-39 -47 -85 -94 -122 -124z" />
    <glyph glyph-name="kcommaaccent" unicode="&#x137;" horiz-adv-x="300" 
d="M183 224c-58 -52 -126 -127 -199 -224h-51c86 108 207 256 264 329c2 3 0 5 -3 3c-60 -52 -144 -138 -190 -190l-7 7c43 51 150 156 232 225c48 60 336 460 403 460c13 0 18 -7 18 -20c0 -62 -148 -262 -372 -414c-76 -104 -143 -196 -200 -266l2 -2
c83 96 207 217 281 217c25 0 38 -13 38 -24c0 -8 -8 -16 -23 -16c-16 0 -28 7 -37 7c-37 0 -84 -28 -151 -88c10 -5 23 -18 23 -41c0 -69 -100 -139 -100 -174c0 -9 5 -13 13 -13c40 0 131 100 174 150l7 -7c-43 -49 -139 -153 -181 -153c-14 0 -27 8 -27 33
c0 73 99 143 99 178c0 13 -6 19 -13 23zM294 418c236 177 344 344 344 391c0 8 -3 12 -10 12c-31 0 -197 -215 -336 -401c-2 -2 1 -3 2 -2zM5 -104c-4 -3 -9 -4 -13 -4c-15 0 -25 10 -25 26c0 15 11 27 26 27c22 0 26 -21 26 -35c0 -56 -57 -99 -111 -99v8c50 0 93 43 97 77
z" />
    <glyph glyph-name="Zdotaccent" unicode="&#x17b;" horiz-adv-x="683" 
d="M393 827c-206 -31 -408 -233 -408 -433c0 -61 30 -90 77 -90c139 0 364 218 364 407c0 46 -6 87 -33 116zM385 836c-25 23 -63 36 -113 36c-149 0 -283 -90 -363 -270c-2 -3 -4 -4 -6 -4s-3 2 -3 8c69 156 195 276 372 276c56 0 98 -17 125 -45c18 3 40 5 65 5
c129 0 203 -48 203 -134c0 -148 -198 -252 -198 -291c0 -9 5 -13 13 -13c118 0 331 168 383 219c100 97 86 135 106 135c7 0 11 -4 11 -15c0 -47 -72 -113 -170 -195c-200 -168 -487 -337 -606 -446c-3 -3 -5 -6 -5 -8c0 -1 1 -2 2 -2c2 0 5 2 8 6c29 26 329 251 404 251
c25 0 36 -12 36 -36c0 -109 -183 -257 -183 -303c0 -7 4 -13 12 -13c41 0 132 73 203 153l7 -7c-73 -82 -165 -156 -211 -156c-22 0 -36 10 -36 48c0 85 184 225 184 286c0 13 -5 17 -16 17c-72 0 -382 -227 -472 -317c-73 -73 -110 -148 -141 -148c-6 0 -10 4 -10 13
c0 12 3 18 41 59c119 128 238 226 348 307c172 126 322 209 421 294c0 5 0 5 -4 5c-45 -36 -206 -157 -312 -157c-14 0 -28 8 -28 33c0 109 177 181 177 297c0 64 -44 108 -167 108c-18 0 -38 -1 -57 -4c25 -31 36 -71 36 -134c0 -200 -218 -402 -373 -402
c-56 0 -93 33 -93 102c0 205 204 406 410 442zM826 821c16 0 30 -10 30 -22s-14 -22 -30 -22s-30 10 -30 22s14 22 30 22z" />
    <glyph glyph-name="zdotaccent" unicode="&#x17c;" horiz-adv-x="316" 
d="M168 153c3 2 9 4 15 4c19 0 30 -10 30 -28c0 -42 -88 -98 -88 -123c0 -5 2 -7 6 -7c39 0 136 97 182 151l7 -7c-46 -53 -148 -153 -192 -153c-9 0 -23 3 -23 26c0 47 86 98 86 125c0 6 -4 10 -10 10c-7 0 -15 -3 -24 -8c-59 -56 -112 -102 -139 -128
c-19 -17 -31 -25 -37 -25c-2 0 -3 1 -3 4c0 13 35 55 103 96c23 14 90 76 111 96c-3 -2 -9 -4 -15 -4c-19 0 -30 10 -30 28c0 42 86 96 86 120c0 6 -2 8 -6 8c-29 0 -180 -146 -223 -196l-7 7c49 55 195 198 233 198c9 0 23 -3 23 -26c0 -47 -84 -96 -84 -123
c0 -6 4 -10 10 -10c7 0 15 3 22 7c65 59 113 101 142 129c18 17 30 25 36 25c2 0 4 -1 4 -4c0 -13 -35 -54 -104 -96c-27 -16 -77 -61 -111 -96zM438 551c19 0 35 -12 35 -26s-16 -26 -35 -26s-35 12 -35 26s16 26 35 26z" />
    <glyph glyph-name="Gcommaaccent" unicode="&#x122;" horiz-adv-x="859" 
d="M504 337c86 50 172 107 257 172c-35 29 -81 51 -137 62c-93 -118 -120 -182 -120 -234zM20 110c-18 -6 -39 -14 -61 -20c-6 -1 -9 1 -9 4c0 2 2 4 7 5c19 5 40 12 60 20c-4 18 -7 36 -7 56c0 46 14 97 44 151c85 153 276 261 500 261c10 0 20 0 30 -1c13 19 29 40 47 61
c98 117 350 335 461 335c36 0 52 -16 52 -44c0 -78 -133 -251 -368 -430c23 -21 43 -46 58 -76c6 4 11 9 17 14c15 12 173 137 212 164c3 3 7 4 9 4c4 0 7 -3 7 -6c0 -2 -2 -4 -6 -6c-24 -20 -32 -26 -131 -126c-24 -25 -54 -61 -88 -103c6 -20 8 -51 8 -70
c0 -125 -79 -244 -216 -279c-5 0 -7 3 -7 5s1 5 5 5c137 35 208 153 208 270c0 20 -2 40 -6 60c-78 -98 -177 -221 -269 -283c-112 -76 -219 -115 -316 -115c-121 0 -211 57 -241 144zM30 123c152 52 309 119 462 207c-3 10 -5 21 -5 33c0 49 24 120 89 213
c-7 1 -14 1 -22 1c-330 0 -530 -237 -530 -406c0 -17 2 -33 6 -48zM33 114c21 -64 81 -108 186 -108c232 0 454 221 619 388c-2 6 -4 13 -7 18c-80 -67 -173 -132 -279 -132c-24 0 -47 14 -58 42c-125 -74 -281 -147 -461 -208zM505 328c7 -29 32 -38 53 -38
c68 0 143 31 268 134c-14 29 -33 56 -58 78c-76 -58 -165 -117 -263 -174zM769 515c7 4 13 9 20 15c215 168 343 341 343 407c0 18 -9 28 -29 28c-66 0 -190 -67 -400 -301c-27 -30 -51 -58 -72 -84c51 -11 99 -33 138 -65zM846 402c48 49 92 93 129 124l-3 4
c-41 -28 -85 -69 -133 -110c2 -6 5 -12 7 -18zM147 -118c-5 -3 -9 -4 -14 -4c-14 0 -25 10 -25 26c0 15 12 26 26 26c23 0 26 -20 26 -34c0 -57 -56 -99 -110 -99v8c50 0 92 43 97 77z" />
    <glyph glyph-name="Euro" unicode="&#x20ac;" horiz-adv-x="346" 
d="M323 128l5 -9c-92 -74 -191 -132 -245 -132c-42 0 -49 24 -49 48c0 41 23 122 83 215h-52l14 18h50c15 22 31 44 50 67h-84l14 18h84c65 78 150 157 255 220c29 18 54 23 71 23c27 0 41 -19 41 -52c0 -68 -42 -126 -90 -126c-22 0 -33 13 -33 30c0 31 35 76 95 76
c10 10 15 22 15 34c0 15 -9 29 -27 29c-14 0 -33 -8 -60 -27c-61 -43 -129 -127 -192 -207h178l-14 -18h-179c-6 -7 -11 -14 -17 -21c-12 -15 -24 -30 -36 -46h186l-14 -18h-186c-67 -89 -135 -190 -135 -227c0 -17 9 -26 33 -26c55 0 151 60 239 131z" />
    <glyph glyph-name="franc" unicode="&#x20a3;" horiz-adv-x="785" 
d="M907 891c-234 -20 -397 -201 -397 -329c0 -45 23 -72 67 -72c148 0 331 221 331 381c0 7 0 13 -1 20zM982 481c17 -3 33 -5 50 -5c23 0 35 9 35 18c0 7 -9 14 -26 14c-21 0 -41 -10 -59 -27zM613 261h81c61 71 115 147 166 220c-67 0 -136 -19 -228 -105c-6 0 -7 2 -7 4
s1 4 4 5c91 95 164 119 228 119c6 0 12 0 18 -1c96 136 179 256 267 289c7 0 9 -3 9 -5s-1 -4 -5 -4c-96 -44 -165 -155 -238 -284c23 -4 39 -10 62 -15c22 23 48 33 71 33c24 0 36 -11 36 -23c0 -14 -16 -28 -48 -28c-28 0 -40 1 -58 3c-13 -16 -26 -37 -37 -62
c-1 -2 -3 -3 -4 -3c-2 0 -3 1 -3 6c10 24 18 44 31 60c-24 3 -41 8 -62 9c-41 -71 -84 -147 -135 -218h72l-5 -18h-80c-118 -158 -280 -290 -554 -290c-191 0 -294 90 -294 198c0 106 96 225 305 276c23 300 338 584 569 584c81 0 132 -40 144 -110c11 1 22 1 33 1
c120 0 186 -31 231 -65c54 -41 76 -85 120 -85c14 0 18 7 26 7c5 0 8 -3 8 -7c0 -8 -14 -14 -34 -14c-26 0 -54 16 -128 78c-60 51 -109 77 -223 77c-10 0 -21 -1 -32 -1c1 -7 1 -14 1 -22c0 -177 -185 -390 -338 -390c-52 0 -82 30 -82 82c0 148 179 317 406 338
c-10 64 -55 101 -132 101c-219 0 -528 -265 -559 -572c58 14 124 21 195 21c3 0 5 -2 5 -5s-2 -5 -5 -5c-72 0 -138 -8 -196 -21c-1 -9 -1 -17 -1 -26c0 -103 48 -183 145 -222c3 0 5 -2 5 -4c0 -3 -3 -5 -9 -5c-106 42 -150 128 -150 230v25c-194 -48 -294 -164 -294 -265
c0 -95 87 -176 264 -176c211 0 372 119 504 267h-69z" />
    <glyph glyph-name="Gbreve" unicode="&#x11e;" horiz-adv-x="859" 
d="M504 337c86 50 172 107 257 172c-35 29 -81 51 -137 62c-93 -118 -120 -182 -120 -234zM20 110c-18 -6 -39 -14 -61 -20c-6 -1 -9 1 -9 4c0 2 2 4 7 5c19 5 40 12 60 20c-4 18 -7 36 -7 56c0 46 14 97 44 151c85 153 276 261 500 261c10 0 20 0 30 -1c13 19 29 40 47 61
c98 117 350 335 461 335c36 0 52 -16 52 -44c0 -78 -133 -251 -368 -430c23 -21 43 -46 58 -76c6 4 11 9 17 14c15 12 173 137 212 164c3 3 7 4 9 4c4 0 7 -3 7 -6c0 -2 -2 -4 -6 -6c-24 -20 -32 -26 -131 -126c-24 -25 -54 -61 -88 -103c6 -20 8 -51 8 -70
c0 -125 -79 -244 -216 -279c-5 0 -7 3 -7 5s1 5 5 5c137 35 208 153 208 270c0 20 -2 40 -6 60c-78 -98 -177 -221 -269 -283c-112 -76 -219 -115 -316 -115c-121 0 -211 57 -241 144zM30 123c152 52 309 119 462 207c-3 10 -5 21 -5 33c0 49 24 120 89 213
c-7 1 -14 1 -22 1c-330 0 -530 -237 -530 -406c0 -17 2 -33 6 -48zM33 114c21 -64 81 -108 186 -108c232 0 454 221 619 388c-2 6 -4 13 -7 18c-80 -67 -173 -132 -279 -132c-24 0 -47 14 -58 42c-125 -74 -281 -147 -461 -208zM505 328c7 -29 32 -38 53 -38
c68 0 143 31 268 134c-14 29 -33 56 -58 78c-76 -58 -165 -117 -263 -174zM769 515c7 4 13 9 20 15c215 168 343 341 343 407c0 18 -9 28 -29 28c-66 0 -190 -67 -400 -301c-27 -30 -51 -58 -72 -84c51 -11 99 -33 138 -65zM846 402c48 49 92 93 129 124l-3 4
c-41 -28 -85 -69 -133 -110c2 -6 5 -12 7 -18zM1327 1033h9c-2 -4 -6 -8 -9 -11c-30 -35 -83 -64 -116 -64c-17 0 -26 8 -26 20s7 27 22 44c3 3 6 7 10 11h8c-11 -13 -19 -31 -19 -41c0 -7 5 -11 19 -11c28 0 80 24 102 52z" />
    <glyph glyph-name="gbreve" unicode="&#x11f;" horiz-adv-x="308" 
d="M228 310c45 18 91 27 132 27c13 0 26 -1 39 -2c-34 -42 -141 -179 -272 -335c-1 -1 2 -3 3 -2c54 40 134 108 177 152l7 -7c-78 -80 -214 -175 -236 -202c-59 -74 -92 -117 -150 -189c-109 -135 -195 -240 -231 -240c-16 0 -24 9 -24 26c0 33 37 95 105 169
c76 84 182 162 284 239c76 103 161 211 192 250l-2 2c-74 -84 -197 -211 -236 -211c-15 0 -23 10 -23 32c0 53 33 135 100 203c2 1 -1 3 -2 2c-22 -17 -62 -55 -85 -82l-7 7c30 35 114 115 229 161zM35 -87c1 2 -1 2 -2 1c-85 -61 -172 -135 -248 -216
c-64 -69 -99 -128 -99 -155c0 -10 4 -16 11 -16c33 0 114 105 213 231c42 53 85 107 125 155zM351 328c-103 0 -191 -81 -246 -148c-53 -64 -96 -132 -96 -168c0 -8 3 -12 10 -12c53 0 287 273 332 328zM508 522h8c-2 -4 -5 -9 -8 -13c-29 -42 -79 -76 -110 -76
c-16 0 -25 9 -25 24c0 14 7 32 21 52c3 4 6 9 10 13h7c-10 -15 -18 -36 -18 -48c0 -9 5 -13 18 -13c27 0 76 28 97 61z" />
    </font>
</defs>
</svg>
