<svg xmlns="http://www.w3.org/2000/svg" viewBox="0 0 266.68 125.58"><defs><style>.cls-1{fill:#e52421;}</style></defs><title>Fichier 3</title><g id="Calque_2" data-name="Calque 2"><g id="Calque_1-2" data-name="Calque 1"><path class="cls-1" d="M5.52,36.44c0-6.58,7-12.39,16.95-12.39A25.33,25.33,0,0,1,33.7,26.79c2.45-1.34,5-2.88,7.3-4.42,3.6-9,6.67-14.69,9.46-18.1C52.9,1.34,55.44,0,57.32,0a2.66,2.66,0,0,1,2.83,2.88c0,1.63-1,3.94-3.26,6.62A73.31,73.31,0,0,1,43.25,21.36C42.05,25,40.8,28.23,39.6,31a15.85,15.85,0,0,1,3.65,5.81c0,.43-.1.58-.19.58s-.24-.1-.24-.38a14.64,14.64,0,0,0-3.46-5.52c-4.66,10-10.7,14.4-21.27,14.4-6.34,0-10.94-3-12.24-7.2-2,.48-3.79.86-5.52,1.15C.1,39.84,0,39.7,0,39.6s0-.19.14-.19c1.82-.29,3.7-.67,5.57-1.15A7.86,7.86,0,0,1,5.52,36.44ZM33.27,27a23.87,23.87,0,0,0-10.8-2.5C12.29,24.53,6,30.77,6,36.34a7.53,7.53,0,0,0,.24,1.78C14.93,36,24.53,31.87,33.27,27ZM17.67,44.36c8.78,0,15.12-5.57,19.83-14.59a29.83,29.83,0,0,0-3.74-2.5A117.17,117.17,0,0,1,6.43,38.55C7.49,41.67,10.85,44.36,17.67,44.36ZM40.61,23.14c-2,1.3-4.22,2.64-6.43,3.89a21.4,21.4,0,0,1,3.55,2.3C38.69,27.46,39.7,25.35,40.61,23.14ZM56.5,9.26c2.21-2.64,3.12-4.8,3.12-6.34A2.19,2.19,0,0,0,57.32.48c-1.63,0-4,1.3-6.34,4.22-2.54,3.22-5.09,8.45-7.49,15.94A67.85,67.85,0,0,0,56.5,9.26Z"/><path class="cls-1" d="M44,44.88c-1.2,0-1.78-.82-1.78-2.11,0-1.92,1.54-5.42,4.75-8.74,0,0,0-.1-.1-.1A23.92,23.92,0,0,0,43,37.44l-.34-.34c1.58-1.78,10.71-9.6,13.73-9.6a1.3,1.3,0,0,1,1.39,1.44c0,1.58-1.3,4.46-3.79,7.49a1.39,1.39,0,0,0-.24.91.68.68,0,0,0,.67.77c.38,0,.91-.29,1.54-1.06l.34.34c-.77.86-1.39,1.2-1.87,1.2a1,1,0,0,1-1.06-1.1.83.83,0,0,1,0-.38C50,41.24,46,44.88,44,44.88Zm9.5-8.59c.14-1.87,1.2-3.6,1.92-3.6a.49.49,0,0,1,.38.24,9.14,9.14,0,0,0,1.44-3.84c0-.67-.29-1-.82-1-2.26,0-6,4.27-8.64,7.54-2.54,3.07-4.42,6.43-4.42,7.92a.67.67,0,0,0,.77.77C45.12,44.31,47.62,43.35,53.47,36.29Z"/><path class="cls-1" d="M66.62,26.93c-3.26,3.31-5.76,5.52-10.37,10.51l-.34-.34C60.58,32,66.58,27.27,73.78,18.19a.58.58,0,0,1,.43-.29.33.33,0,0,1,.34.34.74.74,0,0,1-.24.53C72.53,20.83,63.84,32.35,59.76,38l.1.1c5.81-6.43,9.84-10.56,11.62-10.56.58,0,1,.48,1,1.49,0,4.85-9.79,12.38-9.79,14.64a.56.56,0,0,0,.62.62c1.92,0,6.48-4.8,8.54-7.2l.34.34c-2.06,2.35-6.86,7.34-8.88,7.34-.67,0-1.34-.38-1.34-1.58,0-4.42,9.75-11.91,9.75-14.59,0-.43-.14-.53-.43-.53-1.1,0-5.71,4.13-12.1,11.47-4.94,5.66-10.9,13.2-17.71,22.08H39C49.73,48.2,59.38,36.77,66.72,27Z"/><path class="cls-1" d="M76.08,37.83c5.47-6.1,9.79-10.32,11.57-10.32.58,0,1,.48,1,1.49,0,4.85-10.37,12.38-10.37,14.64a.56.56,0,0,0,.62.62c1.92,0,6.72-4.8,8.78-7.2l.34.34c-2.06,2.35-7.1,7.34-9.12,7.34-.67,0-1.34-.38-1.34-1.58,0-4.42,10.32-11.91,10.32-14.59,0-.43-.14-.53-.43-.53-2,0-10.9,9.7-16.27,16.23H68.73c4.13-5.18,10-12.43,12.67-15.79,0,0,0-.19-.1-.14a102.93,102.93,0,0,0-9.17,9.12l-.34-.34a116.58,116.58,0,0,1,11.14-10.8c2.3-2.88,16.13-22.08,19.35-22.08.62,0,.86.34.86,1,0,3-7.1,12.58-17.86,19.87-3.65,5-7.3,10-9.31,12.67Zm26.5-32.4c0-.38-.14-.58-.48-.58-1.49,0-9.5,10.32-16.08,19.2-.1.14,0,.19.14.1C97.39,15.75,102.58,7.68,102.58,5.42Z"/><path class="cls-1" d="M94.42,31c-1.06,1.25-3.74,3.55-6.43,6.43l-.34-.34c2.45-2.59,7.44-7.2,9-8.93h2.5c-4,5.09-11.47,13.92-11.47,15.7,0,.29.1.43.38.43,1.1,0,4.61-3,8.21-7.25l.34.34c-3.12,3.74-7.06,7.49-8.83,7.49a1,1,0,0,1-1-1.06c0-3,4.08-7.78,7.82-12.67C94.8,31,94.56,30.72,94.42,31Zm12.67-15a2.27,2.27,0,0,1-1.78,2.11c-.48,0-.77-.29-.77-.86A2.25,2.25,0,0,1,106.37,15C106.9,15,107.09,15.51,107.09,16Z"/><path class="cls-1" d="M97.05,44.88c-.72,0-1.1-.48-1.1-1.54,0-2.54,1.44-6.34,4.8-9.74.1,0,0-.14-.1-.1a34.26,34.26,0,0,0-4.08,3.94l-.34-.34a30.53,30.53,0,0,1,11-7.73,17.38,17.38,0,0,1,6.34-1.3c.62,0,1.25,0,1.87.1-4.13,5.18-11.47,14-11.47,15.51,0,.38.14.58.53.58,1.58,0,6.91-5.28,8.5-7.2l.34.34c-1.15,1.34-7,7.49-9.22,7.49a1,1,0,0,1-1-1.06c0-1.58,1.15-3.6,5.33-9l-.1-.1C104.83,38.79,98.93,44.88,97.05,44.88Zm4.27-9.26c-2.54,3.07-4.61,6.34-4.61,8.06,0,.38.14.58.48.58,2.54,0,13.78-13.1,15.94-15.75C108.19,28.51,104,32.4,101.33,35.62Z"/><path class="cls-1" d="M152.54,51.41c-.19,0-.24,0-.24-.1a.44.44,0,0,1,.14-.24c7.15-5.33,11.71-13.3,17-22.51a24.46,24.46,0,0,1-4.9-1c-9,10.37-18,18.87-32.79,18.87-8,0-11.14-4-11.14-9,0-11.43,14-22.23,26.35-22.23,5.86,0,8,2.3,8,5.9a9.7,9.7,0,0,1-.48,2.78c3.07.72,6,1.73,9,2.54,6.91-7,13.92-15,21.84-21.51a.64.64,0,0,1,.38-.14c.19,0,.34.1.34.29s-.1.29-.34.48c-6.1,6.67-10.56,14.55-14.79,22.13,3.26,0,5.52-.72,7.54-2.35a.37.37,0,0,1,.19-.1.21.21,0,0,1,.19.19c0,.1,0,.14-.14.19a12.9,12.9,0,0,1-8.3,3C165.22,38.16,160.27,47,152.54,51.41Zm1.78-27c-2.45,6.53-11.76,13.92-19.63,13.92-3.41,0-4.66-1.54-4.66-3.6C130,30.19,135.89,23,147.26,23a31,31,0,0,1,6.72.77,7.65,7.65,0,0,0,.58-2.83c0-3-1.87-5.28-7.54-5.28-12.19,0-25.83,10.66-25.83,21.46,0,4.51,2.88,7.87,10.22,7.87,11.52,0,21.55-8,31.54-18C160.32,26.21,157.44,25.15,154.32,24.39Zm-7-.91c-11.14,0-16.85,6.91-16.85,11.19,0,1.82,1.1,3.17,4.22,3.17,5.62,0,16.13-7,19.11-13.58A31.5,31.5,0,0,0,147.31,23.47ZM183.55,7.39c.1-.1.1-.14.1-.19s0,0,0,0-.1,0-.19.1c-7,6.14-12.58,13.15-18.19,19.63a27.08,27.08,0,0,0,4.8.77A147.2,147.2,0,0,1,183.55,7.39Z"/><path class="cls-1" d="M183.12,28.18c-4.08,5.23-11.47,14.11-11.47,15.65,0,.38.14.58.53.58,1.58,0,6.91-5.42,8.5-7.34l.34.34c-1.15,1.34-7,7.63-9.22,7.63a1,1,0,0,1-1-1.06c0-2.54,3.17-6.72,9.89-15.27l-.1-.1c-3.17,3.17-7.39,7.2-8.88,8.83l-.34-.34c1.73-2,10.71-9.94,13.06-13.2a9.23,9.23,0,0,0-1.58-.14,5,5,0,0,0-4,2.11c0,.1-.14.1-.24.1s-.34-.1-.34-.24,0-.1.1-.14c2-2.35,3.65-3,5.23-3a9.51,9.51,0,0,1,1.68.19l6-7.63h2L187,23.23a5.94,5.94,0,0,0,1.3.14A3,3,0,0,0,190.85,22a.44.44,0,0,1,.24-.14c.19,0,.24.19.24.53a4.52,4.52,0,0,1-3.74,2.06,4.74,4.74,0,0,1-1.44-.19Z"/><path class="cls-1" d="M192.33,28.18c-4.08,5.23-11.47,14.11-11.47,15.65,0,.38.14.58.53.58,1.58,0,6.91-5.42,8.5-7.34l.34.34c-1.15,1.34-7,7.63-9.22,7.63A1,1,0,0,1,180,44c0-2.54,3.17-6.72,9.89-15.27l-.1-.1c-3.17,3.17-7.39,7.2-8.88,8.83l-.34-.34c1.73-2,10.71-9.94,13.06-13.2a9.23,9.23,0,0,0-1.58-.14,5,5,0,0,0-4,2.11c0,.1-.14.1-.24.1s-.34-.1-.34-.24,0-.1.1-.14c2-2.35,3.65-3,5.23-3a9.5,9.5,0,0,1,1.68.19l6-7.63h2l-6.38,8.06a5.94,5.94,0,0,0,1.3.14A3,3,0,0,0,200.06,22a.44.44,0,0,1,.24-.14c.19,0,.24.19.24.53a4.52,4.52,0,0,1-3.74,2.06,4.74,4.74,0,0,1-1.44-.19Z"/><path class="cls-1" d="M196.6,31c-1.06,1.25-3.74,3.55-6.43,6.43l-.34-.34c2.45-2.59,7.44-7.2,9-8.93h2.5c-4,5.09-11.47,13.92-11.47,15.7,0,.29.1.43.38.43,1.1,0,4.61-3,8.21-7.25l.34.34c-3.12,3.74-7.06,7.49-8.83,7.49a1,1,0,0,1-1-1.06c0-3,4.08-7.78,7.82-12.67C197,31,196.75,30.72,196.6,31Zm12.67-15a2.27,2.27,0,0,1-1.78,2.11c-.48,0-.77-.29-.77-.86A2.25,2.25,0,0,1,208.56,15C209.08,15,209.28,15.51,209.28,16Z"/><path class="cls-1" d="M215.76,28.08c.62,0,1.25,0,1.87.1-1.63,2-6.77,8.59-13.06,16.08,0,0,.1.14.14.1a85.43,85.43,0,0,0,8.5-7.3l.34.34c-3.74,3.84-10.27,8.4-11.33,9.7-2.83,3.55-4.42,5.62-7.2,9.07-5.23,6.48-9.36,11.52-11.09,11.52-.77,0-1.15-.43-1.15-1.25,0-1.58,1.78-4.56,5-8.11,3.65-4,8.74-7.78,13.63-11.47,3.65-4.94,7.73-10.13,9.22-12l-.1-.1c-3.55,4-9.46,10.13-11.33,10.13-.72,0-1.1-.48-1.1-1.54,0-2.54,1.58-6.48,4.8-9.74.1,0,0-.14-.1-.1a34.26,34.26,0,0,0-4.08,3.94l-.34-.34a30.53,30.53,0,0,1,11-7.73A17.38,17.38,0,0,1,215.76,28.08Zm-15.7,20.31a82.62,82.62,0,0,0-11.91,10.37c-3.07,3.31-4.75,6.14-4.75,7.44,0,.48.19.77.53.77,1.58,0,5.47-5,10.22-11.09,2-2.54,4.08-5.14,6-7.44C200.2,48.34,200.11,48.34,200.06,48.39Zm3.46-12.77c-2.54,3.07-4.61,6.34-4.61,8.06,0,.38.14.58.48.58,2.54,0,13.78-13.1,15.94-15.75C210.38,28.51,206.16,32.4,203.52,35.62Z"/><path class="cls-1" d="M213.55,37.44l-.34-.34c3.12-3,7.78-7.58,9-8.93h2.5c-3.7,4.42-11.76,13.73-11.76,15.75,0,.34.14.43.38.43,2,0,10.61-9.75,16-16.18h2.45c-4.13,5.09-11.43,13.92-11.43,15.7,0,.29.1.43.38.43,1.1,0,4.61-3,8.21-7.25l.34.34c-3.12,3.74-7.06,7.49-8.83,7.49a1,1,0,0,1-1-1.06c0-1.58,1.34-3.46,5-9.22l-.1-.1c-5.47,6.1-9.46,10.37-11.23,10.37-.58,0-1-.48-1-1.34,0-2.93,5.14-8.78,8.06-12.38.19-.19,0-.43-.19-.14C218.25,32.88,216.47,34.47,213.55,37.44Z"/><path class="cls-1" d="M235.68,31c-1.06,1.25-3.74,3.55-6.43,6.43l-.34-.34c2.45-2.59,7.44-7.2,9-8.93h2.5c-4,5.09-11.47,13.92-11.47,15.7,0,.29.1.43.38.43,1.1,0,4.61-3,8.21-7.25l.34.34c-3.12,3.74-7.06,7.49-8.83,7.49a1,1,0,0,1-1-1.06c0-3,4.08-7.78,7.82-12.67C236.06,31,235.82,30.72,235.68,31Zm12.67-15a2.27,2.27,0,0,1-1.78,2.11c-.48,0-.77-.29-.77-.86A2.25,2.25,0,0,1,247.63,15C248.16,15,248.35,15.51,248.35,16Z"/><path class="cls-1" d="M259.39,12.58A1.3,1.3,0,0,1,258,11.19a1.39,1.39,0,0,1,1.39-1.39c1.2,0,1.39,1.1,1.39,1.82,0,3-3,5.28-5.9,5.28v-.43a5.44,5.44,0,0,0,5.18-4.08A1.35,1.35,0,0,1,259.39,12.58Z"/><path class="cls-1" d="M254.25,37.44l-.34-.34c1.87-1.92,2.78-2.83,5.62-5.71,1.92-2,3.22-3.36,4.18-4.42,1.25-1.34,2.06-2.5,2.59-2.5a.35.35,0,0,1,.38.38.51.51,0,0,1-.24.43,10.12,10.12,0,0,0-3.31,4.18c-.72,1.78,0,3.94-1.15,7.1-1.82,5.14-6.53,8.3-8.64,8.3A1.66,1.66,0,0,1,251.56,43c0-1.49,1.06-3.31,2.5-3.31.72,0,1,.38,1,.91a1.21,1.21,0,0,1-1.25,1.25,1.54,1.54,0,0,0-1.54,1.49,1,1,0,0,0,1.06,1c2.11,0,5.66-3.79,7.34-9.55a26.33,26.33,0,0,1,2.3-6.1c0-.24-.14-.19-.19-.14C259.87,31.73,256.31,35.28,254.25,37.44Z"/><path class="cls-1" d="M27.7,84.82c-3.26,3.31-5.76,5.52-10.37,10.51L17,95c4.66-5.14,10.66-9.84,17.86-18.91a.58.58,0,0,1,.43-.29.33.33,0,0,1,.34.34.74.74,0,0,1-.24.53c-1.78,2.06-10.46,13.58-14.55,19.2l.1.1c5.81-6.43,9.84-10.56,11.62-10.56.58,0,1,.48,1,1.49,0,4.85-9.79,12.38-9.79,14.64a.56.56,0,0,0,.62.62c1.92,0,6.48-4.8,8.54-7.2l.34.34c-2.06,2.35-6.86,7.34-8.88,7.34-.67,0-1.34-.38-1.34-1.58,0-4.42,9.75-11.91,9.75-14.59,0-.43-.14-.53-.43-.53-1.1,0-5.71,4.13-12.1,11.47-4.94,5.66-10.9,13.2-17.71,22.08H.1C10.8,106.09,20.45,94.66,27.8,84.92Z"/><path class="cls-1" d="M33.22,95.29,32.88,95c1.73-2,10.61-9.55,12.91-9.55a.92.92,0,0,1,1,1c0,1.87-3,6.14-11.33,10.51-1.34,1.92-2.45,3.84-2.45,4.56,0,.53.19.82.72.82,2.59,0,8.16-4.37,10.75-7.39l.34.34c-3,3.5-8.64,7.54-11,7.54a1.47,1.47,0,0,1-1.63-1.49c0-2.54,1.78-5.81,5.09-9.7a.05.05,0,1,0,0-.1A29.49,29.49,0,0,0,33.22,95.29Zm4.85-1.82c-.67.86-1.39,1.78-2.11,2.74,7.06-3.94,10.27-8.35,10.27-9.79a.47.47,0,0,0-.48-.53C43.83,85.88,40.75,90.2,38.07,93.46Z"/><path class="cls-1" d="M50,89.29c1.92-2,3.22-3.36,4.18-4.42a3.65,3.65,0,0,1,0-.72c0-1.44.86-2.45,1.78-2.45a.54.54,0,0,1,.58.62c0,.67-.67,1.39-1.82,2.59a5.51,5.51,0,0,0,2.21,3.17c-1.82,1.82-9.94,12.15-9.94,13.54a.46.46,0,0,0,.53.53c1.63,0,5.9-3.6,8.16-6l1-1.15.34.34-1.06,1.2c-2.3,2.45-6.72,6.14-8.45,6.14-.67,0-1.39-.38-1.39-1.58,0-3.79,6.82-10.66,9.5-13.39a5.49,5.49,0,0,1-1.3-2.26c-3.12,3.41-7.25,7.54-9.55,9.94L44.4,95C46.27,93.08,47.19,92.17,50,89.29Zm6-6.91a.18.18,0,0,0-.19-.19c-.58,0-1.15,1.06-1.15,2.21C55.54,83.43,56,82.76,56,82.38Z"/><path class="cls-1" d="M56.93,95.34,56.59,95c1.87-1.92,2.78-2.83,5.62-5.71,1.92-2,3.22-3.36,4.18-4.42,1.25-1.34,2.06-2.5,2.59-2.5a.35.35,0,0,1,.38.38.51.51,0,0,1-.24.43,10.12,10.12,0,0,0-3.31,4.18c-.72,1.78,0,3.94-1.15,7.1-1.82,5.14-6.53,8.3-8.64,8.3a1.66,1.66,0,0,1-1.78-1.87c0-1.49,1.06-3.31,2.5-3.31.72,0,1,.38,1,.91a1.21,1.21,0,0,1-1.25,1.25A1.54,1.54,0,0,0,55,101.24a1,1,0,0,0,1.06,1c2.11,0,5.66-3.79,7.34-9.55a26.33,26.33,0,0,1,2.3-6.1c0-.24-.14-.19-.19-.14C62.55,89.62,59,93.18,56.93,95.34Z"/><path class="cls-1" d="M67.49,102.78c-1.2,0-1.78-.82-1.78-2.11,0-1.92,1.54-5.42,4.75-8.74,0,0,0-.1-.1-.1a23.92,23.92,0,0,0-3.84,3.5L66.19,95c1.58-1.78,10.71-9.6,13.73-9.6a1.3,1.3,0,0,1,1.39,1.44c0,1.58-1.3,4.46-3.79,7.49a1.39,1.39,0,0,0-.24.91A.68.68,0,0,0,78,96c.38,0,.91-.29,1.54-1.06l.34.34c-.77.86-1.39,1.2-1.87,1.2a1,1,0,0,1-1.06-1.1.83.83,0,0,1,0-.38C73.54,99.13,69.55,102.78,67.49,102.78ZM77,94.18c.14-1.87,1.2-3.6,1.92-3.6a.49.49,0,0,1,.38.24A9.14,9.14,0,0,0,80.74,87c0-.67-.29-1-.82-1-2.26,0-6,4.27-8.64,7.54-2.54,3.07-4.42,6.43-4.42,7.92a.67.67,0,0,0,.77.77C68.64,102.2,71.14,101.24,77,94.18Z"/><path class="cls-1" d="M79.2,102.15c4.13-5.18,11.43-14,11.43-15.75,0-.29-.1-.43-.38-.43C88.9,86,84,90.49,79.78,95.34L79.44,95c3-3.41,8.83-9.6,11.09-9.6a1,1,0,0,1,1,1.06c0,1.58-1.34,3.41-5,9.17l.1.1C92,89.62,96.19,85.4,98,85.4c.58,0,1,.48,1,1.49,0,4.85-10,12.38-10,14.64a.56.56,0,0,0,.62.62c1.92,0,6.48-4.8,8.54-7.2l.34.34c-2.06,2.35-6.86,7.34-8.88,7.34-.67,0-1.34-.38-1.34-1.58,0-4.42,9.94-11.91,9.94-14.59,0-.43-.14-.53-.43-.53-2,0-10.75,9.7-16.13,16.23Z"/><path class="cls-1" d="M98.93,102.78c-.72,0-1.1-.48-1.1-1.54,0-2.54,1.44-6.34,4.8-9.74.1,0,0-.14-.1-.1a34.26,34.26,0,0,0-4.08,3.94L98.11,95a30.53,30.53,0,0,1,11-7.73,17.38,17.38,0,0,1,6.34-1.3c.62,0,1.25,0,1.87.1-4.13,5.18-11.47,14-11.47,15.51,0,.38.14.58.53.58,1.58,0,6.91-5.28,8.5-7.2l.34.34c-1.15,1.34-7,7.49-9.22,7.49a1,1,0,0,1-1-1.06c0-1.58,1.15-3.6,5.33-9l-.1-.1C106.71,96.68,100.8,102.78,98.93,102.78Zm4.27-9.26c-2.54,3.07-4.61,6.34-4.61,8.06,0,.38.14.58.48.58,2.54,0,13.78-13.1,15.94-15.75C110.07,86.41,105.84,90.3,103.2,93.51Z"/><path class="cls-1" d="M115.82,102.78c-1.06,0-1.58-.48-1.58-1.54,0-2.3,2.64-5.42,10.27-14.88.14-.14,0-.29-.1-.14a129,129,0,0,0-9.27,9.12l-.34-.34A103.7,103.7,0,0,1,126,84.2c2.3-2.88,16.85-22.08,19.68-22.08.62,0,.86.34.86,1,0,3-7.1,12.58-17.86,19.87-4,5-7.15,9.36-8.06,10.56-2.21,2.88-5.38,6.91-5.38,8.16a.57.57,0,0,0,.58.62c2,0,5.81-3.5,9.07-7.34l.34.34C121.92,99.22,118,102.78,115.82,102.78Zm14-21C140.64,73.69,146,65.53,146,63.32c0-.38-.14-.58-.48-.58-1.49,0-9.74,10.85-15.89,18.91C129.55,81.8,129.65,81.85,129.79,81.75Z"/><path class="cls-1" d="M159.89,85.88c.29,0,.38.14.38.53,0,1.78-1.82,4.37-4.22,7.39a3.12,3.12,0,0,0-.24,1.3,1.1,1.1,0,0,0,1.1,1.25A3.32,3.32,0,0,0,159.12,95l.34.34a3.85,3.85,0,0,1-2.69,1.54c-.72,0-1.44-.48-1.44-1.68a2.82,2.82,0,0,1,.1-.62c-3.36,4-8.06,8.26-10.61,8.26-.86,0-1.2-.48-1.2-1.06,0-1.58,1.34-3.46,5-9.22l-.1-.1c-5.47,6.1-9.5,10.37-11.19,10.37-.86,0-1.2-.58-1.2-1.44,0-4.56,9.75-12.19,9.75-14.88,0-.43-.14-.53-.34-.53-1.25,0-6.1,4.51-10.37,9.41l-.34-.34c4.85-5.66,9.55-9.6,10.8-9.6.58,0,1,.48,1,1.49,0,4.85-9.6,12.38-9.6,14.74,0,.34.1.58.38.58,2,0,10.61-9.7,16-16.13h2.45c-4.13,5.09-11.42,13.92-11.42,15.7,0,.29.1.53.38.53,3.07,0,10.75-8,13-12C158.21,88.23,159.22,85.88,159.89,85.88Z"/><path class="cls-1" d="M159.46,95.29l-.34-.34c1.73-2,10.61-9.55,12.91-9.55a.92.92,0,0,1,1,1c0,1.87-3,6.14-11.33,10.51-1.34,1.92-2.45,3.84-2.45,4.56,0,.53.19.82.72.82,2.59,0,8.16-4.37,10.75-7.39l.34.34c-3,3.5-8.64,7.54-11,7.54a1.47,1.47,0,0,1-1.63-1.49c0-2.54,1.78-5.81,5.09-9.7a.05.05,0,1,0,0-.1A29.49,29.49,0,0,0,159.46,95.29Zm4.85-1.82c-.67.86-1.39,1.78-2.11,2.74,7.06-3.94,10.27-8.35,10.27-9.79a.47.47,0,0,0-.48-.53C170.06,85.88,167,90.2,164.3,93.46Z"/><path class="cls-1" d="M176.5,93.51c-2.4,3.12-5.38,6.91-5.38,8.16a.57.57,0,0,0,.58.62c2,0,6.1-3.79,9.07-7.3a32.47,32.47,0,0,0,3.41-4.46c.34-2.11,1.39-4.66,2.11-4.66.29,0,.38.14.38.53,0,1.78-1.82,4.37-4.22,7.39a3.12,3.12,0,0,0-.24,1.3,1.1,1.1,0,0,0,1.1,1.25A3.32,3.32,0,0,0,185.52,95l.34.34a3.85,3.85,0,0,1-2.69,1.54c-.72,0-1.44-.48-1.44-1.68a2.32,2.32,0,0,1,0-.58c-3.5,4.22-7.78,8.21-10.13,8.21-1.06,0-1.58-.48-1.58-1.54,0-2.3,2.78-5.57,10.37-15,0,0,0-.19-.1-.14-3.17,2.78-7.06,6.72-9.36,9.27l-.34-.34a93.14,93.14,0,0,1,11.28-10.8c2.3-2.88,16.56-22.08,19.63-22.08.62,0,.86.34.86,1,0,3-7.1,12.58-17.86,19.87C180.62,87.94,177.41,92.31,176.5,93.51Zm25.35-30.19c0-.38-.14-.58-.48-.58-1.49,0-9.46,10.32-15.84,18.87-.1.14,0,.19.14.1C196.71,73.64,201.84,65.57,201.84,63.32Z"/><path class="cls-1" d="M206.16,84.82c-3.26,3.31-5.76,5.52-10.37,10.51l-.34-.34c4.66-5.14,10.66-9.84,17.86-18.91a.58.58,0,0,1,.43-.29.33.33,0,0,1,.34.34.74.74,0,0,1-.24.53c-1.78,2.06-10.46,13.58-14.55,19.2l.1.1C205.2,89.53,209.23,85.4,211,85.4c.58,0,1,.48,1,1.49,0,4.85-9.79,12.38-9.79,14.64a.56.56,0,0,0,.62.62c1.92,0,6.48-4.8,8.54-7.2l.34.34c-2.06,2.35-6.86,7.34-8.88,7.34-.67,0-1.34-.38-1.34-1.58,0-4.42,9.75-11.91,9.75-14.59,0-.43-.14-.53-.43-.53-1.1,0-5.71,4.13-12.1,11.47-4.94,5.66-10.9,13.2-17.71,22.08h-2.45c10.71-13.39,20.35-24.82,27.7-34.56Z"/><path class="cls-1" d="M212.16,102.78c-.72,0-1.1-.48-1.1-1.54,0-2.54,1.44-6.34,4.8-9.74.1,0,0-.14-.1-.1a34.26,34.26,0,0,0-4.08,3.94l-.34-.34a30.53,30.53,0,0,1,11-7.73,17.38,17.38,0,0,1,6.34-1.3c.62,0,1.25,0,1.87.1-4.13,5.18-11.47,14-11.47,15.51,0,.38.14.58.53.58,1.58,0,6.91-5.28,8.5-7.2l.34.34c-1.15,1.34-7,7.49-9.22,7.49a1,1,0,0,1-1-1.06c0-1.58,1.15-3.6,5.33-9l-.1-.1C219.93,96.68,214,102.78,212.16,102.78Zm4.27-9.26c-2.54,3.07-4.61,6.34-4.61,8.06,0,.38.14.58.48.58,2.54,0,13.78-13.1,15.94-15.75C223.29,86.41,219.07,90.3,216.43,93.51Z"/><path class="cls-1" d="M245.37,86c.62,0,1.25,0,1.87.1-1.63,2-6.77,8.59-13.06,16.08,0,0,.1.14.14.1a85.43,85.43,0,0,0,8.5-7.3l.34.34c-3.74,3.84-10.27,8.4-11.33,9.7-2.83,3.55-4.42,5.62-7.2,9.07-5.23,6.48-9.36,11.52-11.09,11.52-.77,0-1.15-.43-1.15-1.25,0-1.58,1.78-4.56,5-8.11,3.65-4,8.74-7.78,13.63-11.47,3.65-4.94,7.73-10.13,9.22-12l-.1-.1c-3.55,4-9.46,10.13-11.33,10.13-.72,0-1.1-.48-1.1-1.54,0-2.54,1.58-6.48,4.8-9.74.1,0,0-.14-.1-.1a34.26,34.26,0,0,0-4.08,3.94L228,95a30.53,30.53,0,0,1,11-7.73A17.38,17.38,0,0,1,245.37,86Zm-15.7,20.31a82.62,82.62,0,0,0-11.91,10.37c-3.07,3.31-4.75,6.14-4.75,7.44,0,.48.19.77.53.77,1.58,0,5.47-5,10.22-11.09,2-2.54,4.08-5.14,6-7.44C229.82,106.23,229.73,106.23,229.68,106.28Zm3.46-12.77c-2.54,3.07-4.61,6.34-4.61,8.06,0,.38.14.58.48.58,2.54,0,13.78-13.1,15.94-15.75C240,86.41,235.77,90.3,233.13,93.51Z"/><path class="cls-1" d="M243.17,95.29l-.34-.34c1.73-2,10.61-9.55,12.91-9.55a.92.92,0,0,1,1,1c0,1.87-3,6.14-11.33,10.51-1.34,1.92-2.45,3.84-2.45,4.56,0,.53.19.82.72.82,2.59,0,8.16-4.37,10.75-7.39l.34.34c-3,3.5-8.64,7.54-11,7.54a1.47,1.47,0,0,1-1.63-1.49c0-2.54,1.78-5.81,5.09-9.7a.05.05,0,1,0,0-.1A29.49,29.49,0,0,0,243.17,95.29ZM248,93.46c-.67.86-1.39,1.78-2.11,2.74,7.06-3.94,10.27-8.35,10.27-9.79a.47.47,0,0,0-.48-.53C253.77,85.88,250.7,90.2,248,93.46Z"/></g></g></svg>